<svg width="674" height="75" viewBox="0 0 674 75" fill="none" xmlns="http://www.w3.org/2000/svg">
<path d="M12.8777 38.1268C12.9057 38.9263 12.6615 39.7273 12.1452 40.5298C11.6443 41.3158 10.9145 41.9656 9.95586 42.4794C9.01376 43.0086 7.92708 43.2947 6.69583 43.3377C5.65647 43.374 4.8299 43.3148 4.21613 43.1601C3.60291 43.0214 3.291 42.8002 3.28039 42.4964C3.27481 42.3365 3.37753 42.0687 3.58855 41.6931C3.815 41.301 3.99219 41.1027 4.12011 41.0982C4.31199 41.0915 4.40933 41.1281 4.41212 41.2081C4.4138 41.2561 4.38377 41.3131 4.32204 41.3793C4.2763 41.445 4.25455 41.5098 4.25679 41.5737C4.25846 41.6217 4.35692 41.6903 4.55215 41.7796C4.76337 41.8682 5.07825 41.9453 5.49679 42.0107C5.91533 42.0762 6.42042 42.0986 7.01206 42.0779C7.95548 42.0449 8.77256 41.8323 9.46329 41.44C10.17 41.0471 10.7055 40.5641 11.0697 39.991C11.4339 39.4179 11.6068 38.8676 11.5884 38.3399C11.5644 37.6523 11.2079 37.0724 10.519 36.6002C9.84611 36.1274 8.76629 35.6928 7.27955 35.2964C5.84023 34.8824 4.7235 34.5372 3.92937 34.2607C3.15067 33.9677 2.51364 33.6057 2.0183 33.1747C1.5224 32.7278 1.263 32.1765 1.24011 31.5209C1.2094 30.6414 1.67494 29.7606 2.63674 28.8785C3.59799 27.9805 4.79695 27.2422 6.23364 26.6637C7.66976 26.0692 9.01145 25.7502 10.2587 25.7066C10.8983 25.6843 11.2466 25.8002 11.3035 26.0544C11.3604 26.3085 11.3944 26.5955 11.4056 26.9153C11.4139 27.1552 11.3302 27.2782 11.1543 27.2843C11.0743 27.2871 10.9776 27.2665 10.864 27.2224C10.7658 27.1618 10.6762 27.1169 10.5951 27.0877C10.498 27.0591 10.385 27.031 10.2559 27.0035C10.1269 26.976 9.94246 26.9664 9.70261 26.9748C8.87111 27.0038 7.87926 27.2546 6.72705 27.7271C5.57484 28.1996 4.57816 28.7707 3.73702 29.4405C2.91188 30.1097 2.50963 30.7401 2.53029 31.3318C2.54705 31.8115 2.75345 32.2205 3.1495 32.5589C3.56154 32.8967 4.09983 33.1821 4.76436 33.4151C5.42834 33.632 6.36638 33.9034 7.57849 34.2293C9.35529 34.6796 10.6706 35.21 11.5244 35.8206C12.3943 36.4306 12.8454 37.1993 12.8777 38.1268ZM25.4571 31.948C25.4666 32.2198 25.3539 32.4319 25.1191 32.5842C24.9002 32.7359 24.4884 32.8624 23.8836 32.9635C22.4214 33.2707 21.6029 33.4434 21.4281 33.4815L19.8783 33.7998C19.9073 34.6313 19.9458 35.5025 19.9936 36.4134C20.0574 37.3237 20.1253 38.1218 20.1973 38.8077C20.2936 39.7329 20.4304 40.4406 20.6076 40.9307C20.7848 41.4208 20.8825 41.6976 20.9008 41.761C20.9064 41.9209 20.8074 42.0684 20.604 42.2036C20.4172 42.3542 20.2358 42.4326 20.0599 42.4387C19.964 42.4421 19.8829 42.4129 19.8167 42.3512C19.7511 42.3054 19.692 42.2195 19.6396 42.0932C19.5358 41.8727 19.4254 41.4603 19.3082 40.856C19.207 40.2512 19.1196 39.5818 19.046 38.8479C18.9751 38.194 18.9086 37.4359 18.8465 36.5735C18.7998 35.6946 18.7622 34.8474 18.7337 34.0319C17.8433 34.2071 16.93 34.4151 15.9938 34.6559C15.1525 34.8614 14.6519 34.9669 14.492 34.9725C14.3001 34.9792 14.1142 34.9297 13.9344 34.8239C13.7706 34.7175 13.6854 34.5684 13.6787 34.3765C13.6714 34.1687 13.7386 34.0302 13.8803 33.9612C14.022 33.8923 14.2607 33.8519 14.5965 33.8402C14.8364 33.8318 15.1867 33.7795 15.6477 33.6834C16.108 33.5713 16.4016 33.497 16.5284 33.4605C17.5925 33.2152 18.3153 33.0539 18.6969 32.9766C18.6851 32.6408 18.6538 32.2016 18.6028 31.659C18.5452 30.9246 18.5096 30.3655 18.4962 29.9817C18.4744 29.3581 18.4737 28.8778 18.4939 28.5409C18.5296 28.1875 18.5987 27.8729 18.7011 27.5971C18.8179 27.2729 19.0521 27.1046 19.4039 27.0923C19.5478 27.0873 19.6446 27.1079 19.6943 27.1542C19.7439 27.2005 19.771 27.2876 19.7754 27.4155C19.7788 27.5115 19.7486 27.7927 19.6848 28.2592C19.6211 28.7257 19.6026 29.3427 19.6294 30.1103C19.6501 30.7019 19.6892 31.3649 19.7469 32.0994L19.7935 32.7461C20.5091 32.6091 21.9219 32.2636 24.0319 31.7096C24.1587 31.6731 24.2587 31.5576 24.332 31.3629C24.4212 31.1677 24.5138 31.0684 24.6097 31.065C24.7856 31.0589 24.9652 31.1567 25.1483 31.3584C25.3469 31.5436 25.4498 31.7401 25.4571 31.948ZM36.9068 39.9533C36.9267 40.0647 36.9949 40.1824 37.1113 40.3064C37.2271 40.4144 37.2864 40.5084 37.2892 40.5883C37.2959 40.7802 37.2238 41.0069 37.0728 41.2683C36.9213 41.5137 36.7656 41.6392 36.6057 41.6448C36.3338 41.6543 36.1201 41.4937 35.9644 41.1629C35.8088 40.8321 35.7232 40.4429 35.7075 39.9952C35.6941 39.6114 35.6779 38.4593 35.6589 36.5388L35.651 35.6265C35.6382 35.2587 35.533 34.9982 35.3356 34.845C34.6585 36.0854 34.0237 37.1642 33.4314 38.0814C32.839 38.9987 32.0771 39.8738 31.1456 40.7068C30.2135 41.5238 29.2198 41.9508 28.1645 41.9876C27.6528 42.0055 27.2475 41.8596 26.9485 41.5498C26.6655 41.2395 26.515 40.8285 26.4972 40.3168C26.4748 39.6772 26.7322 38.7957 27.2693 37.6722C27.8059 36.5328 28.5021 35.3798 29.3579 34.2132C30.2131 33.0307 31.0756 32.056 31.9454 31.2892C32.5203 30.7888 32.9808 30.4525 33.327 30.2803C33.6727 30.0921 33.9814 29.9933 34.2533 29.9838C34.5091 29.9749 34.7757 30.0456 35.0532 30.196C35.3306 30.3464 35.5703 30.5622 35.7722 30.8433C35.9741 31.1245 36.0815 31.4489 36.0944 31.8167C36.1117 32.3124 35.9922 32.7888 35.736 33.2461L36.1396 33.1119C36.3155 33.1057 36.4269 33.318 36.474 33.7486C36.4989 34.0039 36.5331 34.523 36.5764 35.306C36.6358 36.0884 36.6824 36.7352 36.7162 37.2463C36.7506 37.7734 36.7845 38.2845 36.8178 38.7797C36.8511 39.2748 36.8808 39.666 36.9068 39.9533ZM28.455 40.6807C29.3185 40.6505 30.1388 40.3017 30.916 39.6342C31.6932 38.9666 32.3782 38.1822 32.9711 37.281C33.5795 36.3632 34.2448 35.2433 34.9671 33.9213C35.1422 33.4349 35.22 32.9119 35.2005 32.3522C35.1888 32.0164 35.0748 31.7322 34.8585 31.4996C34.6577 31.2505 34.3894 31.1318 34.0536 31.1435C33.6539 31.1575 33.1517 31.4472 32.547 32.0126C31.8487 32.6454 31.1176 33.4874 30.3538 34.5387C29.5895 35.574 28.9608 36.5965 28.4678 37.6064C27.9747 38.6162 27.7382 39.4089 27.7583 39.9846C27.7751 40.4643 28.0073 40.6963 28.455 40.6807ZM47.2948 30.513C47.3076 30.8808 47.2476 31.6834 47.1147 32.9207C46.972 34.3346 46.8957 35.1297 46.8858 35.3062C46.7466 37.2803 46.6472 38.7886 46.5876 39.8314C46.5434 40.8575 46.5358 41.7864 46.5648 42.6178C46.5888 43.3054 46.6558 43.8474 46.7657 44.2438C46.8916 44.6397 47.0144 44.9476 47.1341 45.1675C47.2704 45.4029 47.3394 45.5446 47.3411 45.5926C47.3461 45.7365 47.2227 45.8689 46.9707 45.9897C46.7188 46.1106 46.4569 46.1758 46.1851 46.1853C45.9772 46.1925 45.7995 45.9186 45.6521 45.3634C45.5206 44.8076 45.4342 43.9381 45.3929 42.7548C45.3616 41.8594 45.4074 40.649 45.5302 39.1238L45.7744 35.8013C45.3717 36.6478 44.864 37.4661 44.2512 38.2559C43.6538 39.0293 43.0193 39.4276 42.3477 39.4511C41.7241 39.4729 41.1455 38.9487 40.6118 37.8787C40.0781 36.8087 39.6434 35.5911 39.3075 34.226C38.9877 32.8603 38.8166 31.8577 38.7942 31.2181C38.7803 30.8183 38.8932 30.6143 39.1331 30.6059C39.4849 30.5936 39.7202 30.9136 39.839 31.5658C40.6019 35.9899 41.527 38.183 42.6143 38.145C43.046 38.1299 43.4159 37.9489 43.724 37.6019C44.0475 37.2384 44.4206 36.6891 44.8432 35.9539C45.0393 35.6108 45.2476 35.1553 45.4679 34.5872C45.6882 34.0192 45.8559 33.5491 45.971 33.1768L46.0543 30.7484C46.0734 30.3795 46.1124 30.122 46.1714 29.9759C46.2297 29.8137 46.3549 29.7293 46.5468 29.7226C46.7067 29.717 46.8699 29.8074 47.0365 29.9937C47.2026 30.164 47.2887 30.3371 47.2948 30.513ZM66.789 40.0385C66.798 40.2943 66.733 40.4967 66.5941 40.6456C66.4552 40.7946 66.2579 40.8735 66.002 40.8824C65.6822 40.8936 65.3747 40.5681 65.0794 39.906C64.8001 39.2434 64.6159 38.5534 64.5268 37.8361C64.4388 37.1507 64.3423 35.7612 64.2372 33.6676C64.2094 33.3324 64.1897 32.9969 64.178 32.6611C64.1657 32.3093 64.1474 32.0138 64.123 31.7745C63.6978 32.894 63.11 34.1713 62.3597 35.6063C61.6093 37.0414 60.8439 38.2769 60.0636 39.3127C59.2993 40.348 58.6613 40.8746 58.1496 40.8925C57.6219 40.9109 57.2604 40.6434 57.0649 40.0899C56.8855 39.5358 56.7745 38.6511 56.7321 37.4359C56.6924 36.3005 56.7914 35.0083 57.029 33.5591C57.2825 32.1094 57.5881 31.0021 57.9456 30.2371C58.0938 29.8957 58.2219 29.6671 58.3299 29.5513C58.4374 29.4195 58.563 29.351 58.707 29.346C59.1067 29.332 59.3094 29.405 59.315 29.5649C59.3178 29.6449 59.2442 29.8316 59.0944 30.125C58.6906 30.9396 58.3483 31.9121 58.0676 33.0426C57.7869 34.1731 57.6794 35.6817 57.7453 37.5686C57.7895 38.8318 57.9874 39.4573 58.3392 39.445C58.7549 39.4305 59.2987 38.9552 59.9704 38.0192C60.6576 37.0666 61.3306 35.9385 61.9895 34.6347C62.6484 33.3309 63.1453 32.2009 63.4801 31.2446C63.5969 30.9203 63.7235 30.4196 63.8599 29.7424C63.8984 29.4689 63.9397 29.2753 63.9837 29.1617C64.0272 29.0321 64.081 28.9662 64.1449 28.964C64.3208 28.9578 64.5152 29.0231 64.7281 29.1598C64.941 29.2964 65.0503 29.4447 65.0559 29.6046C65.0827 30.3721 65.1527 31.6905 65.266 33.5597C65.3947 35.4123 65.5117 36.697 65.6167 37.4138C65.7025 38.0352 65.8314 38.519 66.0036 38.8652C66.1918 39.2108 66.3695 39.4848 66.5366 39.6871C66.7032 39.8734 66.7874 39.9905 66.789 40.0385ZM79.1951 34.25C79.2348 35.3853 78.53 36.2904 77.0806 36.9654C75.6313 37.6404 73.7264 38.1072 71.366 38.3657C71.372 39.4542 71.387 40.3422 71.411 41.0298C71.4428 41.9412 71.5119 42.7713 71.6181 43.5201C71.6601 43.8068 71.6831 44.0061 71.687 44.118C71.6959 44.3739 71.6475 44.5917 71.5417 44.7715C71.4365 44.9673 71.2799 45.0688 71.072 45.0761C70.7842 45.0861 70.6207 44.9878 70.5814 44.781C70.5559 44.5097 70.5172 44.0868 70.4651 43.5123C70.4295 42.9532 70.4017 42.3858 70.3816 41.8102L70.2884 38.4514C70.2084 38.4542 70.0568 38.4675 69.8335 38.4913C69.6262 38.5145 69.4186 38.5298 69.2107 38.537C68.8269 38.5504 68.6258 38.2933 68.6074 37.7656C68.594 37.3819 68.6832 37.1866 68.8751 37.1799C68.9391 37.1777 69.1326 37.219 69.4558 37.3037C69.7789 37.3885 70.0525 37.427 70.2763 37.4192L70.0153 30.6321C69.8868 30.6206 69.6221 30.6058 69.2213 30.5878C68.8198 30.5538 68.5212 30.4842 68.3254 30.379C68.1456 30.2732 68.0521 30.1163 68.0448 29.9085C68.0303 29.4927 68.103 29.2821 68.2629 29.2765C68.4388 29.2703 68.6569 29.3267 68.9172 29.4457C68.9498 29.4606 69.0474 29.5052 69.2101 29.5796C69.3722 29.638 69.5977 29.6781 69.8867 29.7001C69.9737 29.4409 70.0555 29.2619 70.1321 29.1632C70.2247 29.0639 70.3989 29.0098 70.6548 29.0008C70.9746 28.9897 71.1367 29.048 71.1412 29.176C71.1428 29.2239 71.1219 29.3127 71.0784 29.4423C71.0344 29.5559 71.0143 29.6687 71.0182 29.7806C72.0146 29.8899 73.1443 30.1466 74.4071 30.5508C75.6854 30.9384 76.792 31.4521 77.7269 32.0919C78.6778 32.7311 79.1672 33.4505 79.1951 34.25ZM78.1671 34.3819C78.1437 33.7103 77.7387 33.1161 76.9522 32.5992C76.1657 32.0824 75.2226 31.667 74.123 31.3532C73.0393 31.0388 71.999 30.819 71.002 30.6937C71.0664 31.6201 71.1334 32.8505 71.203 34.385C71.272 35.9035 71.3152 36.9106 71.3325 37.4063C72.2919 37.3728 73.3111 37.2171 74.3901 36.9393C75.4685 36.6455 76.3682 36.2779 77.0892 35.8364C77.8257 35.3784 78.185 34.8936 78.1671 34.3819ZM98.4438 29.3992C98.4533 29.6711 98.3407 29.8831 98.1058 30.0354C97.887 30.1872 97.4752 30.3136 96.8703 30.4148C95.4082 30.722 94.5897 30.8947 94.4149 30.9328L92.8651 31.2511C92.8941 32.0826 92.9325 32.9538 92.9803 33.8646C93.0442 34.775 93.1121 35.5731 93.184 36.259C93.2804 37.1842 93.4172 37.8918 93.5944 38.382C93.7716 38.8721 93.8693 39.1488 93.8875 39.2122C93.8931 39.3721 93.7942 39.5197 93.5908 39.6549C93.4039 39.8055 93.2226 39.8838 93.0467 39.89C92.9507 39.8933 92.8697 39.8642 92.8035 39.8024C92.7378 39.7567 92.6788 39.6707 92.6264 39.5445C92.5226 39.3239 92.4121 38.9115 92.295 38.3073C92.1938 37.7024 92.1064 37.0331 92.0327 36.2992C91.9619 35.6453 91.8954 34.8871 91.8332 34.0248C91.7865 33.1459 91.7489 32.2987 91.7205 31.4832C90.83 31.6583 89.9167 31.8663 88.9806 32.1072C88.1392 32.3126 87.6386 32.4182 87.4787 32.4238C87.2868 32.4305 87.101 32.3809 86.9212 32.2751C86.7574 32.1688 86.6721 32.0197 86.6654 31.8278C86.6582 31.6199 86.7254 31.4815 86.867 31.4125C87.0087 31.3435 87.2475 31.3032 87.5833 31.2914C87.8231 31.283 88.1735 31.2308 88.6344 31.1346C89.0948 31.0225 89.3884 30.9482 89.5152 30.9118C90.5793 30.6665 91.3021 30.5052 91.6836 30.4278C91.6719 30.092 91.6405 29.6528 91.5896 29.1103C91.5319 28.3758 91.4964 27.8167 91.483 27.433C91.4612 26.8094 91.4604 26.3291 91.4807 25.9922C91.5164 25.6387 91.5854 25.3241 91.6879 25.0484C91.8046 24.7241 92.0389 24.5558 92.3907 24.5435C92.5346 24.5385 92.6314 24.5591 92.681 24.6054C92.7307 24.6517 92.7577 24.7388 92.7622 24.8668C92.7655 24.9627 92.7353 25.2439 92.6716 25.7104C92.6078 26.177 92.5893 26.794 92.6162 27.5615C92.6368 28.1531 92.676 28.8162 92.7336 29.5506L92.7802 30.1974C93.4959 30.0603 94.9087 29.7148 97.0186 29.1608C97.1455 29.1244 97.2455 29.0088 97.3187 28.8142C97.408 28.6189 97.5006 28.5196 97.5965 28.5163C97.7724 28.5101 97.9519 28.6079 98.1351 28.8097C98.3337 28.9948 98.4366 29.1914 98.4438 29.3992ZM108.167 34.0307C108.189 34.6544 107.982 35.382 107.547 36.2137C107.111 37.0454 106.48 37.7719 105.653 38.3931C104.826 38.9984 103.869 39.32 102.781 39.3579C101.71 39.3953 100.908 39.1272 100.376 38.5534C99.8435 37.9796 99.562 37.253 99.5313 36.3735C99.5045 35.606 99.6072 34.6498 99.8394 33.505C100.088 32.3597 100.452 31.3303 100.932 30.417C100.962 30.3519 101.082 30.1156 101.292 29.708C101.517 29.2839 101.77 28.9629 102.051 28.745C102.331 28.5111 102.63 28.3885 102.95 28.3773C103.094 28.3723 103.224 28.4078 103.338 28.4839C103.468 28.5434 103.535 28.6291 103.539 28.741C103.54 28.773 103.495 28.8546 103.404 28.9859C103.328 29.1006 103.267 29.1908 103.221 29.2564C102.7 29.931 102.283 30.594 101.97 31.2453C101.551 32.0765 101.227 32.8962 100.999 33.7047C100.787 34.5126 100.698 35.3882 100.731 36.3317C100.775 37.5949 101.564 38.1997 103.099 38.1461C103.819 38.121 104.475 37.8899 105.068 37.453C105.677 37.0154 106.156 36.4944 106.503 35.8899C106.849 35.2695 107.014 34.7114 106.997 34.2157C106.977 33.656 106.776 33.1748 106.394 32.7718C106.011 32.3689 105.492 31.9468 104.837 31.5054C104.41 31.2161 104.098 30.9789 103.899 30.7937C103.701 30.6085 103.599 30.452 103.595 30.324C103.588 30.1322 103.719 29.9755 103.986 29.8541C104.254 29.7167 104.571 29.6415 104.939 29.6287C105.147 29.6214 105.284 29.6327 105.349 29.6624C105.413 29.6762 105.446 29.715 105.449 29.779C105.45 29.811 105.42 29.8681 105.359 29.9503C105.313 30.0159 105.291 30.0727 105.293 30.1207C105.294 30.1686 105.46 30.323 105.789 30.5836C106.447 31.089 107.001 31.6059 107.452 32.1345C107.903 32.6631 108.141 33.2952 108.167 34.0307ZM125.177 21.9818C125.188 22.3016 125.194 22.9337 125.195 23.8783C125.195 24.8068 125.212 25.7428 125.245 26.6862C125.309 28.5091 125.414 30.3706 125.56 32.2706C125.706 34.1547 125.813 35.3917 125.882 35.9817C125.885 36.0776 125.897 36.1813 125.917 36.2927C125.937 36.404 125.956 36.5074 125.976 36.6028C126.055 37.0483 126.097 37.319 126.1 37.4149C126.106 37.5748 125.991 37.7309 125.756 37.8832C125.537 38.035 125.364 38.1131 125.236 38.1175C125.06 38.1237 124.938 38.0639 124.87 37.9382C124.817 37.796 124.786 37.6049 124.778 37.3651C124.747 36.4856 124.739 35.5653 124.753 34.6042L124.73 33.2602C124.715 32.8125 124.686 32.2291 124.645 31.5101C124.603 30.7751 124.558 30.1603 124.509 29.6658C123.785 32.3166 122.933 34.5237 121.954 36.2869C120.991 38.0336 119.909 38.9279 118.71 38.9698C118.166 38.9888 117.693 38.7491 117.292 38.2508C116.906 37.752 116.697 37.0229 116.663 36.0635C116.619 34.8002 116.995 33.4103 117.79 31.8936C118.602 30.3763 119.533 29.0631 120.582 27.9537C121.648 26.8439 122.445 26.2797 122.973 26.2613C123.485 26.2434 123.746 26.4024 123.758 26.7382C123.766 26.962 123.695 27.2287 123.546 27.5381C123.412 27.8309 123.253 28.1006 123.07 28.3472C122.902 28.5932 122.802 28.7167 122.77 28.7178C122.739 28.719 122.698 28.7124 122.65 28.698C122.617 28.6672 122.6 28.6358 122.598 28.6038C122.596 28.5238 122.631 28.3865 122.704 28.1918C122.777 27.9972 122.813 27.8678 122.811 27.8039C122.808 27.7239 122.798 27.6682 122.781 27.6368C122.764 27.6054 122.715 27.5911 122.635 27.5939C122.299 27.6056 121.708 28.0905 120.861 29.0487C120.029 29.9903 119.292 31.1047 118.648 32.3919C118.005 33.6792 117.702 34.8665 117.74 35.9538C117.753 36.3376 117.846 36.6946 118.018 37.0248C118.189 37.355 118.459 37.5137 118.827 37.5008C119.994 37.4601 121.039 36.439 121.962 34.4376C122.9 32.4196 123.693 30.1425 124.341 27.6064L124.222 25.5933C124.112 23.82 124.055 22.8774 124.052 22.7655C124.018 21.8061 124.034 21.1171 124.099 20.6986C124.126 20.5376 124.154 20.4245 124.184 20.3594C124.229 20.2938 124.316 20.2587 124.444 20.2543C124.604 20.2487 124.766 20.2991 124.93 20.4054C125.093 20.4958 125.178 20.6289 125.184 20.8048L125.177 21.9818ZM138.423 36.4083C138.443 36.5196 138.511 36.6373 138.627 36.7613C138.743 36.8694 138.803 36.9633 138.805 37.0433C138.812 37.2352 138.74 37.4618 138.589 37.7233C138.438 37.9687 138.282 38.0942 138.122 38.0998C137.85 38.1093 137.636 37.9487 137.481 37.6179C137.325 37.2871 137.239 36.8979 137.224 36.4501C137.21 36.0664 137.194 34.9142 137.175 32.9937L137.167 32.0814C137.154 31.7137 137.049 31.4532 136.852 31.3C136.175 32.5404 135.54 33.6192 134.948 34.5364C134.355 35.4536 133.593 36.3288 132.662 37.1618C131.73 37.9788 130.736 38.4057 129.681 38.4426C129.169 38.4605 128.764 38.3145 128.465 38.0048C128.182 37.6945 128.031 37.2835 128.013 36.7718C127.991 36.1322 128.248 35.2506 128.786 34.1272C129.322 32.9878 130.018 31.8348 130.874 30.6682C131.729 29.4856 132.592 28.511 133.462 27.7441C134.037 27.2438 134.497 26.9075 134.843 26.7353C135.189 26.5471 135.498 26.4483 135.77 26.4388C136.025 26.4299 136.292 26.5006 136.569 26.651C136.847 26.8014 137.086 27.0172 137.288 27.2983C137.49 27.5794 137.598 27.9039 137.611 28.2717C137.628 28.7674 137.508 29.2438 137.252 29.701L137.656 29.5669C137.832 29.5607 137.943 29.773 137.99 30.2036C138.015 30.4589 138.049 30.978 138.093 31.761C138.152 32.5434 138.199 33.1901 138.232 33.7013C138.267 34.2284 138.301 34.7395 138.334 35.2346C138.367 35.7298 138.397 36.121 138.423 36.4083ZM129.971 37.1357C130.835 37.1055 131.655 36.7567 132.432 36.0891C133.209 35.4216 133.894 34.6372 134.487 33.736C135.096 32.8182 135.761 31.6983 136.483 30.3763C136.658 29.8899 136.736 29.3668 136.717 28.8072C136.705 28.4714 136.591 28.1872 136.375 27.9546C136.174 27.7054 135.906 27.5867 135.57 27.5985C135.17 27.6124 134.668 27.9021 134.063 28.4676C133.365 29.1003 132.634 29.9424 131.87 30.9937C131.106 32.029 130.477 33.0515 129.984 34.0613C129.491 35.0712 129.254 35.8639 129.275 36.4396C129.291 36.9193 129.524 37.1513 129.971 37.1357ZM151.521 27.5458C151.53 27.8176 151.418 28.0296 151.183 28.1819C150.964 28.3337 150.552 28.4601 149.947 28.5613C148.485 28.8685 147.667 29.0412 147.492 29.0793L145.942 29.3976C145.971 30.2291 146.01 31.1003 146.057 32.0111C146.121 32.9215 146.189 33.7196 146.261 34.4055C146.357 35.3307 146.494 36.0384 146.671 36.5285C146.849 37.0186 146.946 37.2953 146.965 37.3587C146.97 37.5186 146.871 37.6662 146.668 37.8014C146.481 37.952 146.3 38.0304 146.124 38.0365C146.028 38.0399 145.947 38.0107 145.88 37.9489C145.815 37.9032 145.756 37.8172 145.703 37.691C145.6 37.4704 145.489 37.0581 145.372 36.4538C145.271 35.8489 145.183 35.1796 145.11 34.4457C145.039 33.7918 144.972 33.0336 144.91 32.1713C144.864 31.2924 144.826 30.4452 144.797 29.6297C143.907 29.8048 142.994 30.0128 142.058 30.2537C141.216 30.4592 140.716 30.5647 140.556 30.5703C140.364 30.577 140.178 30.5274 139.998 30.4216C139.834 30.3153 139.749 30.1662 139.742 29.9743C139.735 29.7664 139.802 29.628 139.944 29.559C140.086 29.49 140.324 29.4497 140.66 29.4379C140.9 29.4296 141.251 29.3773 141.711 29.2812C142.172 29.169 142.465 29.0947 142.592 29.0583C143.656 28.813 144.379 28.6517 144.761 28.5743C144.749 28.2385 144.718 27.7993 144.667 27.2568C144.609 26.5224 144.573 25.9633 144.56 25.5795C144.538 24.9559 144.537 24.4756 144.558 24.1387C144.593 23.7852 144.662 23.4706 144.765 23.1949C144.882 22.8706 145.116 22.7023 145.468 22.69C145.612 22.685 145.708 22.7057 145.758 22.752C145.808 22.7982 145.835 22.8854 145.839 23.0133C145.843 23.1092 145.812 23.3904 145.749 23.857C145.685 24.3235 145.666 24.9405 145.693 25.708C145.714 26.2997 145.753 26.9627 145.811 27.6971L145.857 28.3439C146.573 28.2068 147.986 27.8613 150.096 27.3073C150.222 27.2709 150.323 27.1553 150.396 26.9607C150.485 26.7654 150.578 26.6661 150.674 26.6628C150.849 26.6566 151.029 26.7544 151.212 26.9562C151.411 27.1414 151.514 27.3379 151.521 27.5458ZM161.947 31C162.059 30.9961 162.119 31.114 162.128 31.3539C162.138 31.6417 161.944 32.2809 161.546 33.2714C161.164 34.2613 160.556 35.1871 159.722 36.0487C158.904 36.9098 157.871 37.3621 156.623 37.4057C155.6 37.4414 154.733 37.1515 154.024 36.5359C153.314 35.9203 152.935 34.9489 152.889 33.6217C152.846 32.3745 153.09 31.1332 153.624 29.8978C154.156 28.6464 154.873 27.6208 155.774 26.8209C156.674 26.005 157.619 25.5797 158.611 25.5451C159.202 25.5244 159.703 25.643 160.112 25.9009C160.537 26.1422 160.758 26.5108 160.775 27.0065C160.795 27.5661 160.494 28.121 159.873 28.671C159.267 29.2204 158.468 29.7126 157.475 30.1476C156.481 30.5825 155.452 30.9066 154.387 31.1199C154.221 31.8622 154.15 32.5851 154.174 33.2886C154.207 34.2161 154.448 34.9281 154.897 35.4247C155.363 35.9208 156.003 36.1546 156.819 36.1261C158.05 36.0831 159.034 35.6085 159.771 34.7022C160.508 33.7959 161.113 32.7822 161.586 31.661C161.616 31.5959 161.668 31.474 161.741 31.2953C161.815 31.1007 161.883 31.0022 161.947 31ZM159.705 27.308C159.696 27.0521 159.553 26.857 159.276 26.7226C159.015 26.5876 158.709 26.5263 158.357 26.5386C157.75 26.5598 157.173 26.78 156.627 27.1993C156.082 27.6186 155.627 28.1148 155.262 28.6879C154.914 29.2604 154.692 29.7644 154.595 30.2001C155.327 30.0945 156.096 29.8595 156.9 29.4952C157.703 29.131 158.37 28.7394 158.9 28.3207C159.445 27.9014 159.714 27.5638 159.705 27.308ZM179.256 31.5482C179.278 32.1719 179.071 32.8995 178.636 33.7312C178.201 34.5629 177.57 35.2894 176.743 35.9106C175.916 36.5159 174.958 36.8375 173.871 36.8754C172.8 36.9128 171.998 36.6447 171.465 36.0709C170.933 35.4971 170.651 34.7705 170.621 33.891C170.594 33.1235 170.697 32.1673 170.929 31.0225C171.177 29.8772 171.541 28.8478 172.022 27.9345C172.051 27.8694 172.171 27.6331 172.381 27.2255C172.607 26.8014 172.859 26.4804 173.14 26.2625C173.42 26.0286 173.72 25.906 174.04 25.8948C174.184 25.8898 174.313 25.9253 174.428 26.0014C174.558 26.0609 174.625 26.1466 174.629 26.2585C174.63 26.2905 174.585 26.3721 174.493 26.5034C174.417 26.6181 174.356 26.7083 174.311 26.7739C173.79 27.4485 173.373 28.1115 173.059 28.7628C172.64 29.594 172.316 30.4137 172.089 31.2222C171.877 32.0301 171.787 32.9057 171.82 33.8492C171.864 35.1124 172.654 35.7172 174.189 35.6636C174.908 35.6385 175.565 35.4074 176.158 34.9705C176.767 34.5329 177.245 34.0119 177.592 33.4074C177.939 32.787 178.103 32.2289 178.086 31.7332C178.066 31.1735 177.866 30.6923 177.483 30.2893C177.101 29.8864 176.582 29.4643 175.926 29.0229C175.5 28.7336 175.187 28.4964 174.989 28.3112C174.79 28.126 174.689 27.9695 174.684 27.8415C174.677 27.6497 174.808 27.493 175.076 27.3716C175.343 27.2342 175.661 27.159 176.029 27.1462C176.237 27.1389 176.373 27.1502 176.438 27.1799C176.503 27.1937 176.536 27.2325 176.538 27.2965C176.539 27.3285 176.509 27.3856 176.448 27.4678C176.402 27.5334 176.38 27.5902 176.382 27.6382C176.384 27.6861 176.549 27.8405 176.878 28.1011C177.537 28.6065 178.091 29.1234 178.542 29.652C178.992 30.1806 179.231 30.8127 179.256 31.5482ZM189.599 36.3262C189.606 36.5181 189.531 36.6808 189.376 36.8143C189.221 36.9638 189.032 37.0424 188.808 37.0503C188.648 37.0558 188.51 37.0206 188.396 36.9446C188.282 36.8845 188.222 36.7905 188.218 36.6626C188.195 36.007 188.207 34.9899 188.255 33.6114C188.3 32.137 188.305 30.912 188.271 29.9366C188.238 28.9932 188.179 28.2268 188.095 27.6374C188.026 27.0314 187.887 26.7321 187.679 26.7394C187.136 26.7583 186.56 27.4589 185.951 28.8409C185.359 30.2064 184.685 32.0071 183.931 34.2427L183.604 35.2147C183.546 35.3769 183.439 35.5087 183.282 35.6102C183.142 35.7112 182.991 35.7645 182.831 35.77C182.64 35.7767 182.511 35.7652 182.446 35.7355C182.381 35.7057 182.338 35.6112 182.316 35.4518L182.055 33.4917L181.575 30.0504C181.415 28.6792 181.237 27.4846 181.042 26.4668C180.985 26.2287 180.955 26.0456 180.95 25.9177C180.942 25.6778 181.039 25.4823 181.242 25.3311C181.444 25.164 181.681 25.0757 181.953 25.0662C182.113 25.0606 182.239 25.4404 182.329 26.2057C182.436 26.9705 182.559 28.2069 182.699 29.9151L182.839 31.183C183.024 32.7935 183.131 33.8144 183.162 34.2456C183.207 34.1479 183.243 34.0426 183.271 33.9296C183.315 33.8 183.366 33.6621 183.425 33.5159C184.21 31.2472 184.953 29.3561 185.652 27.8428C186.367 26.3129 187.077 25.5356 187.78 25.5111C188.276 25.4938 188.627 25.9058 188.832 26.7471C189.053 27.5719 189.21 28.6391 189.304 29.9486C189.403 31.402 189.501 33.5279 189.599 36.3262ZM209.564 25.5189C209.573 25.7907 209.46 26.0028 209.226 26.155C209.007 26.3068 208.595 26.4332 207.99 26.5344C206.528 26.8416 205.709 27.0143 205.535 27.0524L203.985 27.3707C204.014 28.2022 204.052 29.0734 204.1 29.9842C204.164 30.8946 204.232 31.6927 204.304 32.3786C204.4 33.3038 204.537 34.0115 204.714 34.5016C204.891 34.9917 204.989 35.2684 205.007 35.3318C205.013 35.4917 204.914 35.6393 204.711 35.7745C204.524 35.9251 204.342 36.0035 204.166 36.0096C204.07 36.013 203.989 35.9838 203.923 35.922C203.858 35.8763 203.799 35.7903 203.746 35.6641C203.642 35.4435 203.532 35.0312 203.415 34.4269C203.314 33.822 203.226 33.1527 203.152 32.4188C203.082 31.7649 203.015 31.0067 202.953 30.1444C202.906 29.2655 202.869 28.4183 202.84 27.6028C201.95 27.7779 201.037 27.9859 200.1 28.2268C199.259 28.4323 198.758 28.5378 198.598 28.5434C198.407 28.5501 198.221 28.5005 198.041 28.3947C197.877 28.2884 197.792 28.1393 197.785 27.9474C197.778 27.7395 197.845 27.6011 197.987 27.5321C198.128 27.4631 198.367 27.4228 198.703 27.411C198.943 27.4027 199.293 27.3504 199.754 27.2543C200.215 27.1421 200.508 27.0678 200.635 27.0314C201.699 26.7861 202.422 26.6248 202.803 26.5474C202.792 26.2116 202.76 25.7724 202.709 25.2299C202.652 24.4955 202.616 23.9364 202.603 23.5526C202.581 22.929 202.58 22.4487 202.6 22.1118C202.636 21.7583 202.705 21.4437 202.808 21.168C202.924 20.8437 203.159 20.6754 203.51 20.6631C203.654 20.6581 203.751 20.6788 203.801 20.7251C203.85 20.7713 203.877 20.8585 203.882 20.9864C203.885 21.0823 203.855 21.3635 203.791 21.8301C203.728 22.2966 203.709 22.9136 203.736 23.6811C203.757 24.2728 203.796 24.9358 203.853 25.6702L203.9 26.317C204.616 26.1799 206.028 25.8344 208.138 25.2804C208.265 25.244 208.365 25.1284 208.438 24.9338C208.528 24.7385 208.62 24.6392 208.716 24.6359C208.892 24.6297 209.072 24.7275 209.255 24.9293C209.453 25.1145 209.556 25.311 209.564 25.5189ZM221.606 35.3766C221.613 35.5685 221.555 35.7306 221.431 35.863C221.308 36.0114 221.143 36.0892 220.935 36.0964C220.775 36.102 220.638 36.0668 220.523 35.9908C220.409 35.9307 220.35 35.8367 220.345 35.7088L220.335 34.0521C220.347 32.0825 220.33 30.4741 220.287 29.2269C220.223 27.404 220.051 26.1372 219.77 25.4266C219.488 24.7 219.18 24.3425 218.844 24.3543C218.092 24.3805 217.19 25.5807 216.136 27.955C215.082 30.3132 214.075 32.8859 213.116 35.6731C213.043 35.8997 212.939 36.1195 212.802 36.3324C212.682 36.5448 212.549 36.6534 212.405 36.6585C212.054 36.6707 211.874 36.565 211.866 36.3411C211.832 35.3657 211.728 33.5442 211.555 30.8766C211.381 28.193 211.256 26.4284 211.178 25.5825C210.934 22.7253 210.737 20.9631 210.585 20.296C210.434 19.6289 210.357 19.2713 210.356 19.2234C210.35 19.0635 210.434 18.9405 210.607 18.8544C210.78 18.7683 211.003 18.7205 211.274 18.711C211.498 18.7032 211.676 19.2093 211.808 20.2293C211.955 21.2328 212.08 22.5252 212.183 24.1066L212.231 24.7773C212.28 25.2719 212.354 26.6942 212.452 29.0442C212.549 31.3782 212.617 33.0969 212.656 34.2002C213.327 32.3357 213.958 30.6726 214.547 29.2112C215.152 27.7492 215.857 26.3797 216.661 25.1029C217.464 23.8101 218.226 23.1511 218.945 23.126C219.553 23.1048 220.082 23.5986 220.534 24.6074C220.985 25.6003 221.245 27.1041 221.316 29.1189C221.347 30.0144 221.407 31.261 221.494 32.8589L221.606 35.3766ZM233.388 28.5052C233.5 28.5013 233.56 28.6193 233.568 28.8591C233.578 29.147 233.385 29.7861 232.987 30.7766C232.605 31.7665 231.997 32.6923 231.163 33.5539C230.344 34.415 229.312 34.8674 228.064 34.9109C227.041 34.9466 226.174 34.6567 225.464 34.0411C224.754 33.4255 224.376 32.4541 224.33 31.1269C224.286 29.8797 224.531 28.6384 225.064 27.403C225.597 26.1517 226.314 25.126 227.214 24.3261C228.114 23.5102 229.06 23.085 230.052 23.0503C230.643 23.0297 231.144 23.1483 231.553 23.4062C231.978 23.6475 232.199 24.016 232.216 24.5117C232.235 25.0713 231.935 25.6262 231.313 26.1762C230.708 26.7257 229.909 27.2178 228.915 27.6528C227.922 28.0877 226.893 28.4118 225.828 28.6251C225.661 29.3674 225.591 30.0903 225.615 30.7939C225.647 31.7213 225.888 32.4333 226.338 32.9299C226.804 33.426 227.444 33.6598 228.26 33.6313C229.491 33.5883 230.475 33.1137 231.212 32.2074C231.949 31.3012 232.554 30.2874 233.027 29.1662C233.057 29.1011 233.108 28.9793 233.182 28.8006C233.255 28.6059 233.324 28.5074 233.388 28.5052ZM231.146 24.8132C231.137 24.5574 230.994 24.3622 230.717 24.2278C230.456 24.0928 230.15 24.0315 229.798 24.0438C229.19 24.065 228.614 24.2853 228.068 24.7046C227.522 25.1239 227.067 25.62 226.703 26.1931C226.355 26.7656 226.132 27.2697 226.036 27.7053C226.768 27.5997 227.537 27.3647 228.34 27.0005C229.144 26.6362 229.811 26.2447 230.341 25.8259C230.886 25.4066 231.155 25.0691 231.146 24.8132ZM244.851 33.5802C244.857 33.7401 244.758 33.8717 244.553 33.9749C244.349 34.0781 244.118 34.1342 243.863 34.1431C243.671 34.1498 243.479 33.9324 243.287 33.4908C243.111 33.0326 243.007 32.3398 242.975 31.4124C242.928 29.605 242.875 27.4215 242.818 24.8619C242.777 22.3018 242.749 20.3736 242.736 19.0772C242.736 18.613 242.801 18.1784 242.931 17.7736C243.077 17.3683 243.341 17.1589 243.725 17.1455C243.853 17.1411 243.936 17.2102 243.973 17.353C244.025 17.4793 244.058 17.7343 244.071 18.118C244.072 18.134 244.066 18.1903 244.053 18.2868C244.056 18.3667 244.061 18.5186 244.069 18.7425C243.928 22.958 243.928 27.0645 244.067 31.0621C244.085 31.5738 244.216 32.1135 244.46 32.6814C244.72 33.2486 244.85 33.5483 244.851 33.5802ZM257.226 32.2596C257.246 32.371 257.314 32.4886 257.43 32.6127C257.546 32.7207 257.605 32.8147 257.608 32.8946C257.615 33.0865 257.543 33.3132 257.392 33.5746C257.24 33.82 257.084 33.9455 256.924 33.9511C256.653 33.9606 256.439 33.8 256.283 33.4692C256.128 33.1384 256.042 32.7492 256.026 32.3015C256.013 31.9177 255.997 30.7656 255.978 28.8451L255.97 27.9328C255.957 27.565 255.852 27.3045 255.654 27.1513C254.977 28.3917 254.343 29.4705 253.75 30.3877C253.158 31.305 252.396 32.1801 251.464 33.0131C250.532 33.8301 249.539 34.2571 248.483 34.2939C247.972 34.3118 247.566 34.1658 247.267 33.8561C246.984 33.5458 246.834 33.1348 246.816 32.6231C246.794 31.9835 247.051 31.102 247.588 29.9785C248.125 28.8391 248.821 27.6861 249.677 26.5195C250.532 25.337 251.394 24.3623 252.264 23.5955C252.839 23.0951 253.3 22.7588 253.646 22.5866C253.992 22.3984 254.3 22.2996 254.572 22.2901C254.828 22.2812 255.095 22.3519 255.372 22.5023C255.649 22.6527 255.889 22.8685 256.091 23.1496C256.293 23.4308 256.4 23.7552 256.413 24.123C256.43 24.6187 256.311 25.0951 256.055 25.5524L256.458 25.4182C256.634 25.412 256.746 25.6243 256.793 26.0549C256.818 26.3102 256.852 26.8293 256.895 27.6123C256.955 28.3947 257.001 29.0415 257.035 29.5526C257.069 30.0797 257.103 30.5908 257.137 31.086C257.17 31.5811 257.2 31.9723 257.226 32.2596ZM248.774 32.987C249.637 32.9568 250.458 32.608 251.235 31.9405C252.012 31.2729 252.697 30.4885 253.29 29.5873C253.898 28.6695 254.564 27.5496 255.286 26.2276C255.461 25.7412 255.539 25.2182 255.519 24.6585C255.508 24.3227 255.394 24.0385 255.177 23.8059C254.977 23.5568 254.708 23.4381 254.372 23.4498C253.973 23.4637 253.47 23.7535 252.866 24.3189C252.168 24.9517 251.436 25.7937 250.673 26.845C249.908 27.8803 249.28 28.9028 248.787 29.9127C248.294 30.9225 248.057 31.7152 248.077 32.2909C248.094 32.7706 248.326 33.0026 248.774 32.987ZM270.323 23.3971C270.333 23.6689 270.22 23.881 269.985 24.0333C269.767 24.185 269.355 24.3114 268.75 24.4126C267.288 24.7198 266.469 24.8925 266.295 24.9306L264.745 25.2489C264.774 26.0804 264.812 26.9516 264.86 27.8625C264.924 28.7728 264.992 29.5709 265.064 30.2568C265.16 31.182 265.297 31.8897 265.474 32.3798C265.651 32.8699 265.749 33.1467 265.767 33.2101C265.773 33.37 265.674 33.5175 265.47 33.6527C265.284 33.8033 265.102 33.8817 264.926 33.8878C264.83 33.8912 264.749 33.862 264.683 33.8003C264.617 33.7545 264.558 33.6685 264.506 33.5423C264.402 33.3218 264.292 32.9094 264.175 32.3051C264.073 31.7003 263.986 31.0309 263.912 30.297C263.841 29.6431 263.775 28.885 263.713 28.0226C263.666 27.1437 263.629 26.2965 263.6 25.481C262.71 25.6562 261.796 25.8642 260.86 26.105C260.019 26.3105 259.518 26.416 259.358 26.4216C259.166 26.4283 258.981 26.3788 258.801 26.273C258.637 26.1666 258.552 26.0175 258.545 25.8256C258.538 25.6177 258.605 25.4793 258.747 25.4103C258.888 25.3413 259.127 25.301 259.463 25.2893C259.703 25.2809 260.053 25.2286 260.514 25.1325C260.974 25.0203 261.268 24.946 261.395 24.9096C262.459 24.6643 263.182 24.503 263.563 24.4256C263.551 24.0898 263.52 23.6507 263.469 23.1081C263.412 22.3737 263.376 21.8146 263.363 21.4308C263.341 20.8072 263.34 20.3269 263.36 19.99C263.396 19.6365 263.465 19.3219 263.567 19.0462C263.684 18.7219 263.919 18.5537 264.27 18.5414C264.414 18.5363 264.511 18.557 264.561 18.6033C264.61 18.6496 264.637 18.7367 264.642 18.8646C264.645 18.9605 264.615 19.2418 264.551 19.7083C264.487 20.1748 264.469 20.7918 264.496 21.5593C264.516 22.151 264.556 22.814 264.613 23.5485L264.66 24.1952C265.375 24.0582 266.788 23.7126 268.898 23.1587C269.025 23.1222 269.125 23.0067 269.198 22.812C269.288 22.6168 269.38 22.5175 269.476 22.5141C269.652 22.508 269.832 22.6058 270.015 22.8075C270.213 22.9927 270.316 23.1892 270.323 23.3971ZM280.75 26.8513C280.862 26.8474 280.922 26.9654 280.93 27.2052C280.94 27.493 280.746 28.1322 280.349 29.1227C279.967 30.1126 279.359 31.0384 278.525 31.9C277.706 32.7611 276.673 33.2134 275.426 33.257C274.403 33.2927 273.536 33.0028 272.826 32.3872C272.116 31.7716 271.738 30.8002 271.692 29.473C271.648 28.2258 271.893 26.9845 272.426 25.7491C272.959 24.4978 273.675 23.4721 274.576 22.6722C275.476 21.8563 276.422 21.431 277.413 21.3964C278.005 21.3758 278.505 21.4944 278.915 21.7522C279.339 21.9936 279.56 22.3621 279.578 22.8578C279.597 23.4174 279.296 23.9723 278.675 24.5223C278.07 25.0717 277.271 25.5639 276.277 25.9989C275.284 26.4338 274.254 26.7579 273.189 26.9712C273.023 27.7135 272.952 28.4364 272.977 29.14C273.009 30.0674 273.25 30.7794 273.7 31.276C274.165 31.7721 274.806 32.0059 275.621 31.9774C276.853 31.9344 277.837 31.4598 278.574 30.5535C279.31 29.6472 279.915 28.6335 280.389 27.5123C280.418 27.4472 280.47 27.3254 280.544 27.1467C280.617 26.952 280.686 26.8535 280.75 26.8513ZM278.507 23.1593C278.499 22.9035 278.356 22.7083 278.079 22.5739C277.818 22.4389 277.512 22.3776 277.16 22.3899C276.552 22.4111 275.976 22.6314 275.43 23.0507C274.884 23.47 274.429 23.9661 274.065 24.5392C273.717 25.1117 273.494 25.6158 273.397 26.0514C274.13 25.9458 274.898 25.7108 275.702 25.3465C276.506 24.9823 277.173 24.5908 277.702 24.172C278.248 23.7527 278.516 23.4152 278.507 23.1593ZM291.54 29.2362C291.565 29.9397 291.301 30.6294 290.748 31.3051C290.211 31.9642 289.485 32.5019 288.571 32.918C287.658 33.3502 286.697 33.5838 285.69 33.619C285.002 33.643 284.536 33.5953 284.292 33.4757C284.048 33.3562 283.921 33.1845 283.914 32.9606C283.909 32.8167 284.084 32.5624 284.439 32.1978C284.794 31.8172 285.036 31.6246 285.164 31.6202C285.356 31.6135 285.453 31.6501 285.456 31.73C285.458 31.794 285.42 31.8594 285.342 31.9261C285.265 31.9929 285.227 32.0502 285.228 32.0982C285.231 32.1622 285.329 32.2228 285.523 32.28C285.733 32.3367 285.982 32.3601 286.27 32.35C286.941 32.3266 287.609 32.1832 288.272 31.9199C288.951 31.64 289.499 31.2927 289.917 30.8778C290.334 30.463 290.535 30.0317 290.52 29.584C290.505 29.1523 290.357 28.8132 290.076 28.5669C289.795 28.3205 289.445 28.1486 289.025 28.0512C288.621 27.9373 287.935 27.7851 286.968 27.5947C285.905 27.3917 285.074 27.2126 284.476 27.0574C283.894 26.8856 283.422 26.6699 283.061 26.4104C282.699 26.1349 282.51 25.7812 282.495 25.3495C282.468 24.5819 282.82 23.8653 283.549 23.1994C284.278 22.5335 285.124 21.9997 286.086 21.5979C287.049 21.196 287.794 20.9859 288.322 20.9675C288.865 20.9485 289.143 21.0989 289.154 21.4187C289.161 21.6106 289.104 21.8287 288.985 22.073C288.865 22.3013 288.677 22.42 288.421 22.4289C288.325 22.4322 288.22 22.4039 288.106 22.3438C287.991 22.2678 287.878 22.2317 287.766 22.2356C287.446 22.2468 286.946 22.3683 286.266 22.6002C285.585 22.8321 284.972 23.1657 284.427 23.601C283.882 24.0363 283.62 24.5497 283.641 25.1414C283.654 25.5251 283.88 25.8054 284.318 25.9822C284.772 26.1425 285.604 26.3376 286.812 26.5676C286.958 26.6105 287.103 26.6454 287.248 26.6724C287.393 26.6834 287.521 26.7029 287.635 26.731C288.876 26.9758 289.831 27.2706 290.499 27.6155C291.168 27.9604 291.515 28.5006 291.54 29.2362ZM303.983 22.2217C303.992 22.4935 303.879 22.7056 303.645 22.8579C303.426 23.0096 303.014 23.136 302.409 23.2372C300.947 23.5444 300.128 23.7171 299.954 23.7552L298.404 24.0735C298.433 24.905 298.471 25.7762 298.519 26.6871C298.583 27.5974 298.651 28.3955 298.723 29.0814C298.819 30.0066 298.956 30.7143 299.133 31.2044C299.31 31.6945 299.408 31.9713 299.426 32.0347C299.432 32.1946 299.333 32.3421 299.13 32.4773C298.943 32.6279 298.761 32.7063 298.585 32.7124C298.489 32.7158 298.408 32.6866 298.342 32.6249C298.277 32.5791 298.218 32.4931 298.165 32.3669C298.061 32.1464 297.951 31.734 297.834 31.1297C297.733 30.5249 297.645 29.8555 297.572 29.1216C297.501 28.4677 297.434 27.7096 297.372 26.8472C297.325 25.9683 297.288 25.1211 297.259 24.3056C296.369 24.4808 295.456 24.6888 294.519 24.9296C293.678 25.1351 293.177 25.2406 293.017 25.2462C292.826 25.2529 292.64 25.2033 292.46 25.0976C292.296 24.9912 292.211 24.8421 292.204 24.6502C292.197 24.4423 292.264 24.3039 292.406 24.2349C292.547 24.1659 292.786 24.1256 293.122 24.1139C293.362 24.1055 293.712 24.0532 294.173 23.9571C294.634 23.8449 294.927 23.7706 295.054 23.7342C296.118 23.4889 296.841 23.3276 297.222 23.2502C297.211 22.9144 297.179 22.4753 297.128 21.9327C297.071 21.1983 297.035 20.6392 297.022 20.2554C297 19.6318 296.999 19.1515 297.019 18.8146C297.055 18.4611 297.124 18.1465 297.227 17.8708C297.343 17.5465 297.578 17.3783 297.929 17.366C298.073 17.3609 298.17 17.3816 298.22 17.4279C298.269 17.4742 298.296 17.5613 298.301 17.6892C298.304 17.7851 298.274 18.0664 298.21 18.5329C298.147 18.9994 298.128 19.6164 298.155 20.3839C298.176 20.9756 298.215 21.6386 298.272 22.373L298.319 23.0198C299.035 22.8828 300.447 22.5372 302.557 21.9833C302.684 21.9468 302.784 21.8313 302.857 21.6366C302.947 21.4413 303.039 21.3421 303.135 21.3387C303.311 21.3326 303.491 21.4304 303.674 21.6321C303.872 21.8173 303.975 22.0138 303.983 22.2217ZM322.867 25.7408C322.907 26.8761 322.202 27.7812 320.752 28.4562C319.303 29.1312 317.398 29.598 315.038 29.8565C315.044 30.945 315.059 31.833 315.083 32.5206C315.115 33.432 315.184 34.2621 315.29 35.0108C315.332 35.2976 315.355 35.4969 315.359 35.6088C315.368 35.8646 315.319 36.0825 315.213 36.2623C315.108 36.4581 314.952 36.5596 314.744 36.5668C314.456 36.5769 314.292 36.4785 314.253 36.2718C314.228 36.0005 314.189 35.5776 314.137 35.0031C314.101 34.444 314.074 33.8766 314.053 33.301L313.96 29.9422C313.88 29.945 313.729 29.9583 313.505 29.9821C313.298 30.0053 313.09 30.0206 312.882 30.0278C312.499 30.0412 312.298 29.7841 312.279 29.2564C312.266 28.8726 312.355 28.6774 312.547 28.6707C312.611 28.6685 312.804 28.7097 313.128 28.7945C313.451 28.8793 313.724 28.9178 313.948 28.91L313.687 22.1229C313.559 22.1114 313.294 22.0966 312.893 22.0786C312.492 22.0446 312.193 21.975 311.997 21.8698C311.817 21.764 311.724 21.6071 311.717 21.3993C311.702 20.9835 311.775 20.7728 311.935 20.7673C312.111 20.7611 312.329 20.8175 312.589 20.9365C312.622 20.9514 312.719 20.996 312.882 21.0704C313.044 21.1288 313.27 21.1689 313.558 21.1909C313.645 20.9317 313.727 20.7527 313.804 20.654C313.896 20.5547 314.071 20.5006 314.327 20.4916C314.646 20.4805 314.808 20.5388 314.813 20.6668C314.815 20.7147 314.794 20.8035 314.75 20.9331C314.706 21.0467 314.686 21.1595 314.69 21.2714C315.686 21.3807 316.816 21.6374 318.079 22.0416C319.357 22.4292 320.464 22.9429 321.399 23.5827C322.35 24.2219 322.839 24.9412 322.867 25.7408ZM321.839 25.8727C321.815 25.2011 321.41 24.6069 320.624 24.09C319.837 23.5732 318.894 23.1578 317.795 22.844C316.711 22.5296 315.671 22.3098 314.674 22.1845C314.738 23.1108 314.805 24.3413 314.875 25.8758C314.944 27.3943 314.987 28.4014 315.004 28.8971C315.964 28.8636 316.983 28.7079 318.062 28.4301C319.14 28.1363 320.04 27.7687 320.761 27.3272C321.497 26.8692 321.857 26.3844 321.839 25.8727ZM333.1 26.1759C333.122 26.7995 332.915 27.5272 332.48 28.3589C332.045 29.1906 331.414 29.917 330.587 30.5383C329.759 31.1435 328.802 31.4651 327.715 31.5031C326.643 31.5405 325.841 31.2723 325.309 30.6986C324.777 30.1248 324.495 29.3982 324.464 28.5187C324.438 27.7512 324.54 26.795 324.773 25.6502C325.021 24.5048 325.385 23.4755 325.865 22.5622C325.895 22.4971 326.015 22.2608 326.225 21.8532C326.45 21.4291 326.703 21.1081 326.984 20.8901C327.264 20.6562 327.564 20.5337 327.883 20.5225C328.027 20.5175 328.157 20.553 328.271 20.629C328.402 20.6885 328.469 20.7742 328.473 20.8862C328.474 20.9182 328.428 20.9998 328.337 21.1311C328.261 21.2458 328.2 21.336 328.154 21.4016C327.634 22.0762 327.216 22.7391 326.903 23.3905C326.484 24.2216 326.16 25.0414 325.932 25.8499C325.72 26.6577 325.631 27.5334 325.664 28.4768C325.708 29.7401 326.497 30.3449 328.033 30.2913C328.752 30.2661 329.408 30.0351 330.002 29.5981C330.611 29.1606 331.089 28.6396 331.436 28.0351C331.782 27.4146 331.947 26.8566 331.93 26.3609C331.91 25.8012 331.709 25.3199 331.327 24.917C330.945 24.5141 330.426 24.092 329.77 23.6506C329.343 23.3613 329.031 23.124 328.832 22.9389C328.634 22.7537 328.532 22.5971 328.528 22.4692C328.521 22.2773 328.652 22.1207 328.92 21.9992C329.187 21.8618 329.505 21.7867 329.872 21.7739C330.08 21.7666 330.217 21.7778 330.282 21.8076C330.346 21.8213 330.38 21.8602 330.382 21.9242C330.383 21.9561 330.353 22.0132 330.292 22.0954C330.246 22.1611 330.224 22.2179 330.226 22.2658C330.227 22.3138 330.393 22.4681 330.722 22.7288C331.38 23.2341 331.935 23.7511 332.385 24.2797C332.836 24.8083 333.074 25.4403 333.1 26.1759ZM343.727 27.4138C343.752 28.1173 343.488 28.807 342.935 29.4827C342.398 30.1418 341.672 30.6795 340.758 31.0956C339.844 31.5278 338.884 31.7614 337.877 31.7966C337.189 31.8206 336.723 31.7729 336.479 31.6533C336.234 31.5338 336.108 31.3621 336.101 31.1382C336.096 30.9943 336.271 30.74 336.626 30.3754C336.981 29.9948 337.223 29.8022 337.351 29.7978C337.542 29.7911 337.64 29.8277 337.643 29.9076C337.645 29.9716 337.607 30.037 337.529 30.1037C337.452 30.1705 337.414 30.2278 337.415 30.2758C337.418 30.3398 337.516 30.4004 337.71 30.4576C337.92 30.5143 338.169 30.5377 338.457 30.5276C339.128 30.5041 339.796 30.3608 340.459 30.0975C341.138 29.8176 341.686 29.4703 342.104 29.0554C342.521 28.6406 342.722 28.2093 342.707 27.7616C342.692 27.3299 342.544 26.9908 342.263 26.7445C341.982 26.4981 341.632 26.3262 341.212 26.2288C340.808 26.1148 340.122 25.9627 339.155 25.7723C338.091 25.5693 337.261 25.3902 336.663 25.235C336.081 25.0632 335.609 24.8475 335.247 24.588C334.886 24.3124 334.697 23.9588 334.682 23.5271C334.655 22.7595 335.007 22.0428 335.736 21.377C336.465 20.7111 337.311 20.1773 338.273 19.7755C339.236 19.3736 339.981 19.1635 340.509 19.1451C341.052 19.1261 341.33 19.2765 341.341 19.5963C341.348 19.7882 341.291 20.0063 341.172 20.2506C341.052 20.4789 340.864 20.5976 340.608 20.6065C340.512 20.6098 340.407 20.5815 340.293 20.5214C340.178 20.4454 340.065 20.4093 339.953 20.4132C339.633 20.4244 339.133 20.5459 338.452 20.7778C337.772 21.0097 337.159 21.3433 336.614 21.7786C336.069 22.2139 335.807 22.7273 335.828 23.319C335.841 23.7027 336.067 23.983 336.505 24.1598C336.959 24.3201 337.79 24.5152 338.999 24.7451C339.145 24.7881 339.29 24.823 339.435 24.85C339.58 24.861 339.708 24.8805 339.821 24.9086C341.063 25.1534 342.018 25.4482 342.686 25.7931C343.355 26.138 343.702 26.6782 343.727 27.4138ZM356.17 20.3993C356.179 20.6711 356.066 20.8832 355.832 21.0354C355.613 21.1872 355.201 21.3136 354.596 21.4148C353.134 21.722 352.315 21.8947 352.141 21.9328L350.591 22.2511C350.62 23.0826 350.658 23.9538 350.706 24.8647C350.77 25.775 350.838 26.5731 350.91 27.259C351.006 28.1842 351.143 28.8919 351.32 29.382C351.497 29.8721 351.595 30.1489 351.613 30.2123C351.619 30.3722 351.52 30.5197 351.317 30.6549C351.13 30.8055 350.948 30.8839 350.772 30.89C350.676 30.8934 350.595 30.8642 350.529 30.8024C350.464 30.7567 350.404 30.6707 350.352 30.5445C350.248 30.324 350.138 29.9116 350.021 29.3073C349.92 28.7024 349.832 28.0331 349.758 27.2992C349.688 26.6453 349.621 25.8871 349.559 25.0248C349.512 24.1459 349.475 23.2987 349.446 22.4832C348.556 22.6584 347.642 22.8664 346.706 23.1072C345.865 23.3127 345.364 23.4182 345.204 23.4238C345.013 23.4305 344.827 23.3809 344.647 23.2751C344.483 23.1688 344.398 23.0197 344.391 22.8278C344.384 22.6199 344.451 22.4815 344.593 22.4125C344.734 22.3435 344.973 22.3032 345.309 22.2914C345.549 22.2831 345.899 22.2308 346.36 22.1347C346.82 22.0225 347.114 21.9482 347.241 21.9118C348.305 21.6665 349.028 21.5052 349.409 21.4278C349.398 21.092 349.366 20.6528 349.315 20.1103C349.258 19.3759 349.222 18.8168 349.209 18.433C349.187 17.8094 349.186 17.3291 349.206 16.9922C349.242 16.6387 349.311 16.3241 349.414 16.0484C349.53 15.7241 349.765 15.5558 350.116 15.5436C350.26 15.5385 350.357 15.5592 350.407 15.6055C350.456 15.6518 350.483 15.7389 350.488 15.8668C350.491 15.9627 350.461 16.244 350.397 16.7105C350.334 17.177 350.315 17.794 350.342 18.5615C350.363 19.1532 350.402 19.8162 350.459 20.5506L350.506 21.1974C351.222 21.0603 352.634 20.7148 354.744 20.1609C354.871 20.1244 354.971 20.0088 355.044 19.8142C355.134 19.6189 355.226 19.5196 355.322 19.5163C355.498 19.5102 355.678 19.6079 355.861 19.8097C356.059 19.9949 356.162 20.1914 356.17 20.3993ZM366.26 26.6269C366.285 27.3305 366.021 28.0201 365.468 28.6958C364.931 29.355 364.205 29.8926 363.291 30.3088C362.378 30.7409 361.417 30.9746 360.41 31.0097C359.722 31.0338 359.256 30.986 359.012 30.8664C358.768 30.7469 358.642 30.5752 358.634 30.3513C358.629 30.2074 358.804 29.9531 359.159 29.5885C359.514 29.2079 359.756 29.0154 359.884 29.0109C360.076 29.0042 360.173 29.0408 360.176 29.1208C360.178 29.1847 360.14 29.2501 360.063 29.3168C359.985 29.3836 359.947 29.4409 359.948 29.4889C359.951 29.5529 360.049 29.6135 360.243 29.6708C360.453 29.7275 360.702 29.7508 360.99 29.7407C361.661 29.7173 362.329 29.5739 362.992 29.3106C363.671 29.0307 364.219 28.6834 364.637 28.2686C365.054 27.8537 365.256 27.4224 365.24 26.9747C365.225 26.543 365.077 26.2039 364.796 25.9576C364.515 25.7112 364.165 25.5394 363.746 25.4419C363.341 25.328 362.656 25.1758 361.688 24.9855C360.625 24.7825 359.794 24.6033 359.196 24.4481C358.614 24.2763 358.142 24.0607 357.781 23.8011C357.419 23.5256 357.23 23.1719 357.215 22.7402C357.188 21.9727 357.54 21.256 358.269 20.5901C358.998 19.9243 359.844 19.3904 360.807 18.9886C361.769 18.5867 362.514 18.3766 363.042 18.3582C363.586 18.3392 363.863 18.4896 363.874 18.8094C363.881 19.0013 363.824 19.2194 363.705 19.4637C363.585 19.692 363.397 19.8107 363.141 19.8196C363.045 19.823 362.94 19.7946 362.826 19.7346C362.711 19.6585 362.598 19.6224 362.486 19.6264C362.166 19.6375 361.666 19.7591 360.986 19.9909C360.305 20.2228 359.693 20.5564 359.147 20.9917C358.602 21.427 358.34 21.9405 358.361 22.5321C358.374 22.9159 358.6 23.1961 359.038 23.373C359.492 23.5332 360.324 23.7283 361.532 23.9583C361.678 24.0012 361.823 24.0362 361.968 24.0631C362.113 24.0741 362.242 24.0936 362.355 24.1217C363.596 24.3665 364.551 24.6614 365.219 25.0062C365.888 25.3511 366.235 25.8913 366.26 26.6269ZM385.187 27.7911C385.207 27.9025 385.275 28.0201 385.391 28.1442C385.507 28.2522 385.566 28.3462 385.569 28.4261C385.576 28.618 385.504 28.8447 385.353 29.1061C385.201 29.3515 385.045 29.477 384.886 29.4826C384.614 29.4921 384.4 29.3315 384.244 29.0007C384.089 28.6699 384.003 28.2807 383.987 27.833C383.974 27.4492 383.958 26.2971 383.939 24.3766L383.931 23.4643C383.918 23.0965 383.813 22.836 383.615 22.6828C382.938 23.9232 382.304 25.002 381.711 25.9192C381.119 26.8365 380.357 27.7116 379.425 28.5446C378.493 29.3616 377.5 29.7886 376.444 29.8254C375.933 29.8433 375.527 29.6973 375.228 29.3876C374.945 29.0773 374.795 28.6663 374.777 28.1546C374.755 27.515 375.012 26.6335 375.549 25.51C376.086 24.3706 376.782 23.2176 377.638 22.051C378.493 20.8685 379.356 19.8938 380.225 19.127C380.8 18.6266 381.261 18.2903 381.607 18.1181C381.953 17.9299 382.261 17.8311 382.533 17.8216C382.789 17.8127 383.056 17.8834 383.333 18.0338C383.61 18.1842 383.85 18.4 384.052 18.6811C384.254 18.9623 384.361 19.2867 384.374 19.6545C384.392 20.1502 384.272 20.6266 384.016 21.0839L384.419 20.9497C384.595 20.9435 384.707 21.1558 384.754 21.5864C384.779 21.8417 384.813 22.3608 384.856 23.1438C384.916 23.9262 384.962 24.573 384.996 25.0841C385.031 25.6112 385.064 26.1223 385.098 26.6175C385.131 27.1126 385.161 27.5038 385.187 27.7911ZM376.735 28.5185C377.598 28.4883 378.419 28.1395 379.196 27.472C379.973 26.8044 380.658 26.02 381.251 25.1188C381.859 24.201 382.525 23.0811 383.247 21.7591C383.422 21.2727 383.5 20.7497 383.48 20.19C383.469 19.8542 383.355 19.57 383.138 19.3374C382.938 19.0883 382.669 18.9696 382.333 18.9813C381.934 18.9952 381.432 19.285 380.827 19.8504C380.129 20.4832 379.398 21.3252 378.634 22.3765C377.869 23.4118 377.241 24.4343 376.748 25.4442C376.255 26.454 376.018 27.2467 376.038 27.8224C376.055 28.3021 376.287 28.5341 376.735 28.5185ZM396.239 29.1102C396.245 29.3021 396.171 29.4648 396.015 29.5983C395.861 29.7478 395.671 29.8264 395.447 29.8342C395.287 29.8398 395.15 29.8046 395.035 29.7285C394.921 29.6685 394.862 29.5745 394.857 29.4466C394.835 28.791 394.847 27.7739 394.895 26.3954C394.94 24.921 394.945 23.696 394.911 22.7206C394.878 21.7772 394.819 21.0108 394.734 20.4214C394.665 19.8154 394.527 19.5161 394.319 19.5233C393.775 19.5423 393.199 20.2428 392.591 21.6249C391.998 22.9904 391.325 24.791 390.57 27.0267L390.244 27.9987C390.186 28.1608 390.078 28.2927 389.922 28.3942C389.781 28.4952 389.631 28.5484 389.471 28.554C389.279 28.5607 389.151 28.5492 389.086 28.5195C389.021 28.4897 388.977 28.3952 388.956 28.2358L388.695 26.2757L388.215 22.8344C388.055 21.4631 387.877 20.2686 387.681 19.2508C387.625 19.0126 387.595 18.8296 387.59 18.7017C387.582 18.4618 387.679 18.2663 387.882 18.1151C388.084 17.948 388.321 17.8596 388.593 17.8501C388.753 17.8446 388.878 18.2244 388.969 18.9897C389.076 19.7545 389.199 20.9909 389.339 22.6991L389.479 23.967C389.663 25.5775 389.771 26.5984 389.802 27.0295C389.847 26.9319 389.883 26.8266 389.911 26.7135C389.955 26.5839 390.006 26.4461 390.065 26.2999C390.85 24.0311 391.592 22.1401 392.292 20.6267C393.007 19.0969 393.716 18.3196 394.42 18.2951C394.916 18.2777 395.266 18.6898 395.472 19.5311C395.693 20.3559 395.85 21.4231 395.944 22.7326C396.043 24.186 396.141 26.3119 396.239 29.1102ZM407.052 12.1385C407.063 12.4583 407.069 13.0904 407.07 14.035C407.071 14.9635 407.087 15.8995 407.12 16.8429C407.184 18.6658 407.289 20.5273 407.435 22.4274C407.581 24.3114 407.688 25.5484 407.757 26.1384C407.76 26.2343 407.772 26.338 407.792 26.4494C407.812 26.5607 407.831 26.6641 407.851 26.7595C407.93 27.205 407.972 27.4757 407.975 27.5716C407.981 27.7315 407.866 27.8876 407.631 28.0399C407.412 28.1917 407.239 28.2698 407.111 28.2742C406.935 28.2804 406.813 28.2206 406.745 28.0949C406.692 27.9527 406.661 27.7616 406.653 27.5218C406.622 26.6423 406.614 25.722 406.628 24.7609L406.605 23.4169C406.59 22.9692 406.561 22.3858 406.52 21.6668C406.478 20.9318 406.433 20.317 406.384 19.8225C405.66 22.4733 404.808 24.6804 403.829 26.4436C402.866 28.1903 401.784 29.0846 400.585 29.1265C400.041 29.1455 399.569 28.9058 399.167 28.4076C398.781 27.9087 398.572 27.1796 398.538 26.2202C398.494 24.9569 398.87 23.567 399.665 22.0503C400.477 20.533 401.408 19.2198 402.458 18.1104C403.523 17.0006 404.32 16.4364 404.848 16.418C405.36 16.4001 405.621 16.5591 405.633 16.8949C405.641 17.1187 405.57 17.3854 405.421 17.6948C405.287 17.9876 405.128 18.2573 404.945 18.5039C404.777 18.7499 404.678 18.8734 404.646 18.8745C404.614 18.8757 404.573 18.8691 404.525 18.8547C404.492 18.8239 404.475 18.7925 404.473 18.7605C404.471 18.6805 404.506 18.5432 404.579 18.3485C404.652 18.1539 404.688 18.0245 404.686 17.9606C404.683 17.8806 404.673 17.825 404.656 17.7935C404.639 17.7621 404.59 17.7478 404.51 17.7506C404.174 17.7623 403.583 18.2472 402.736 19.2054C401.904 20.147 401.167 21.2614 400.523 22.5486C399.88 23.8359 399.577 25.0232 399.615 26.1105C399.628 26.4943 399.721 26.8513 399.893 27.1815C400.064 27.5117 400.334 27.6704 400.702 27.6575C401.869 27.6168 402.914 26.5957 403.837 24.5943C404.775 22.5763 405.568 20.2992 406.216 17.7631L406.097 15.75C405.987 13.9767 405.931 13.0341 405.927 12.9222C405.893 11.9628 405.909 11.2738 405.974 10.8553C406.001 10.6943 406.029 10.5812 406.059 10.5161C406.104 10.4505 406.191 10.4154 406.319 10.411C406.479 10.4054 406.641 10.4558 406.805 10.5621C406.968 10.6525 407.053 10.7856 407.059 10.9615L407.052 12.1385ZM427.733 22.0788C427.772 23.2141 427.067 24.1192 425.618 24.7942C424.169 25.4692 422.264 25.936 419.904 26.1945C419.91 27.283 419.925 28.171 419.949 28.8586C419.98 29.77 420.049 30.6001 420.156 31.3489C420.198 31.6356 420.221 31.8349 420.225 31.9468C420.233 32.2027 420.185 32.4205 420.079 32.6003C419.974 32.7961 419.817 32.8976 419.61 32.9049C419.322 32.9149 419.158 32.8166 419.119 32.6098C419.093 32.3385 419.055 31.9156 419.003 31.3411C418.967 30.782 418.939 30.2146 418.919 29.639L418.826 26.2802C418.746 26.283 418.594 26.2963 418.371 26.3201C418.164 26.3433 417.956 26.3586 417.748 26.3658C417.364 26.3792 417.163 26.1221 417.145 25.5944C417.132 25.2107 417.221 25.0154 417.413 25.0087C417.477 25.0065 417.67 25.0478 417.993 25.1325C418.316 25.2173 418.59 25.2558 418.814 25.248L418.553 18.4609C418.424 18.4494 418.16 18.4346 417.759 18.4166C417.357 18.3826 417.059 18.313 416.863 18.2078C416.683 18.102 416.59 17.9451 416.582 17.7373C416.568 17.3215 416.641 17.1109 416.8 17.1053C416.976 17.0991 417.194 17.1555 417.455 17.2745C417.487 17.2894 417.585 17.334 417.748 17.4084C417.91 17.4668 418.135 17.5069 418.424 17.5289C418.511 17.2697 418.593 17.0907 418.67 16.992C418.762 16.8927 418.936 16.8386 419.192 16.8296C419.512 16.8185 419.674 16.8768 419.679 17.0048C419.68 17.0527 419.659 17.1415 419.616 17.2711C419.572 17.3847 419.552 17.4975 419.556 17.6094C420.552 17.7187 421.682 17.9754 422.945 18.3796C424.223 18.7672 425.33 19.2809 426.264 19.9207C427.215 20.5599 427.705 21.2793 427.733 22.0788ZM426.705 22.2107C426.681 21.5391 426.276 20.9449 425.49 20.428C424.703 19.9112 423.76 19.4958 422.66 19.182C421.577 18.8676 420.537 18.6478 419.54 18.5225C419.604 19.4489 419.671 20.6793 419.741 22.2138C419.81 23.7323 419.853 24.7394 419.87 25.2351C420.829 25.2016 421.849 25.0459 422.928 24.7681C424.006 24.4743 424.906 24.1067 425.627 23.6652C426.363 23.2072 426.723 22.7224 426.705 22.2107ZM437.966 22.5139C437.988 23.1375 437.781 23.8652 437.346 24.6969C436.91 25.5286 436.279 26.255 435.452 26.8763C434.625 27.4815 433.668 27.8031 432.58 27.8411C431.509 27.8785 430.707 27.6103 430.175 27.0366C429.642 26.4628 429.361 25.7362 429.33 24.8567C429.303 24.0892 429.406 23.133 429.638 21.9882C429.886 20.8428 430.251 19.8135 430.731 18.9002C430.761 18.8351 430.881 18.5988 431.091 18.1912C431.316 17.7671 431.569 17.4461 431.85 17.2281C432.13 16.9942 432.429 16.8717 432.749 16.8605C432.893 16.8555 433.022 16.891 433.137 16.967C433.267 17.0265 433.334 17.1122 433.338 17.2242C433.339 17.2562 433.294 17.3378 433.203 17.4691C433.127 17.5838 433.066 17.674 433.02 17.7396C432.499 18.4142 432.082 19.0771 431.769 19.7285C431.349 20.5596 431.026 21.3794 430.798 22.1879C430.586 22.9957 430.497 23.8714 430.529 24.8148C430.574 26.0781 431.363 26.6829 432.898 26.6293C433.618 26.6041 434.274 26.3731 434.867 25.9361C435.476 25.4986 435.954 24.9776 436.302 24.3731C436.648 23.7526 436.813 23.1946 436.795 22.6989C436.776 22.1392 436.575 21.6579 436.193 21.255C435.81 20.8521 435.291 20.43 434.636 19.9886C434.209 19.6993 433.897 19.4621 433.698 19.2769C433.5 19.0917 433.398 18.9351 433.394 18.8072C433.387 18.6153 433.517 18.4587 433.785 18.3373C434.053 18.1998 434.37 18.1247 434.738 18.1119C434.946 18.1046 435.082 18.1159 435.148 18.1456C435.212 18.1594 435.245 18.1982 435.248 18.2622C435.249 18.2942 435.219 18.3512 435.158 18.4334C435.112 18.4991 435.09 18.5559 435.092 18.6038C435.093 18.6518 435.259 18.8061 435.588 19.0668C436.246 19.5721 436.8 20.0891 437.251 20.6177C437.702 21.1463 437.94 21.7784 437.966 22.5139ZM447.95 17.0261C447.955 17.17 447.857 17.3416 447.656 17.5407C447.47 17.7233 447.305 17.8171 447.161 17.8221C447.049 17.826 446.936 17.782 446.82 17.6899C446.721 17.5974 446.604 17.4653 446.47 17.2939C446.353 17.1379 446.196 17.0073 446 16.9021C445.821 16.7963 445.635 16.7467 445.443 16.7534C444.979 16.7696 444.377 17.407 443.637 18.6657C442.895 19.9083 442.181 21.4701 441.495 23.3513C441.524 23.7185 441.564 24.1814 441.615 24.7399C441.683 25.2979 441.729 25.7125 441.755 25.9838L441.86 26.9407C441.868 27.1645 441.827 27.3581 441.736 27.5214C441.647 27.7006 441.474 27.7947 441.218 27.8036C440.946 27.8131 440.758 27.4595 440.653 26.7427C440.547 26.01 440.462 24.9483 440.397 23.5577C440.369 23.2065 440.335 22.7033 440.297 22.0483C440.274 21.3927 440.23 20.6097 440.166 19.6994C440.07 18.3259 440.012 17.3433 439.991 16.7517C439.979 16.3839 440.196 16.1922 440.644 16.1766C440.916 16.1671 441.08 16.2814 441.136 16.5196C441.208 16.7412 441.255 17.1799 441.278 17.8355L441.411 21.6491C441.848 20.4011 442.331 19.3196 442.859 18.4046C443.387 17.4896 443.907 16.7911 444.419 16.3089C444.946 15.8102 445.417 15.5536 445.833 15.5391C446.185 15.5268 446.523 15.595 446.848 15.7438C447.174 15.8925 447.437 16.0915 447.638 16.3406C447.838 16.5737 447.942 16.8023 447.95 17.0261ZM460.286 16.7634C460.295 17.0353 460.183 17.2473 459.948 17.3996C459.729 17.5514 459.317 17.6778 458.712 17.779C457.25 18.0862 456.432 18.2589 456.257 18.297L454.707 18.6153C454.736 19.4468 454.774 20.318 454.822 21.2288C454.886 22.1392 454.954 22.9373 455.026 23.6232C455.122 24.5484 455.259 25.256 455.436 25.7462C455.614 26.2363 455.711 26.513 455.729 26.5764C455.735 26.7363 455.636 26.8839 455.433 27.0191C455.246 27.1697 455.064 27.2481 454.889 27.2542C454.793 27.2575 454.712 27.2284 454.645 27.1666C454.58 27.1209 454.521 27.0349 454.468 26.9087C454.365 26.6881 454.254 26.2757 454.137 25.6715C454.036 25.0666 453.948 24.3973 453.875 23.6634C453.804 23.0095 453.737 22.2513 453.675 21.389C453.628 20.5101 453.591 19.6629 453.562 18.8474C452.672 19.0225 451.759 19.2305 450.823 19.4714C449.981 19.6768 449.481 19.7824 449.321 19.788C449.129 19.7947 448.943 19.7451 448.763 19.6393C448.599 19.533 448.514 19.3839 448.507 19.192C448.5 18.9841 448.567 18.8457 448.709 18.7767C448.851 18.7077 449.089 18.6674 449.425 18.6556C449.665 18.6473 450.015 18.595 450.476 18.4988C450.937 18.3867 451.23 18.3124 451.357 18.276C452.421 18.0307 453.144 17.8694 453.526 17.792C453.514 17.4562 453.482 17.017 453.432 16.4745C453.374 15.74 453.338 15.1809 453.325 14.7972C453.303 14.1736 453.302 13.6933 453.323 13.3564C453.358 13.0029 453.427 12.6883 453.53 12.4126C453.647 12.0883 453.881 11.92 454.233 11.9077C454.377 11.9027 454.473 11.9233 454.523 11.9696C454.573 12.0159 454.6 12.103 454.604 12.231C454.607 12.3269 454.577 12.6081 454.514 13.0746C454.45 13.5412 454.431 14.1582 454.458 14.9257C454.479 15.5173 454.518 16.1804 454.576 16.9148L454.622 17.5616C455.338 17.4245 456.751 17.079 458.861 16.525C458.987 16.4886 459.087 16.373 459.161 16.1784C459.25 15.9831 459.342 15.8838 459.438 15.8805C459.614 15.8743 459.794 15.9721 459.977 16.1739C460.176 16.359 460.279 16.5556 460.286 16.7634ZM470.873 11.0625C470.879 11.2544 470.84 11.5119 470.756 11.8351C470.686 12.1417 470.596 12.2969 470.484 12.3008C470.372 12.3047 470.282 12.2598 470.215 12.1661C470.163 12.0559 470.11 11.9136 470.056 11.7394C469.861 11.2019 469.573 10.7557 469.193 10.4007C468.827 10.0292 468.437 9.85076 468.021 9.86528C466.902 9.90437 466.121 10.6921 465.678 12.2285C465.251 13.7483 465.073 15.5236 465.144 17.5544C465.622 17.5057 466.155 17.415 466.743 17.2824C467.346 17.1333 467.743 17.0393 467.934 17.0007C469.061 16.7212 469.808 16.575 470.176 16.5622C470.496 16.551 470.661 16.6893 470.671 16.9771C470.679 17.201 470.639 17.4425 470.552 17.7017C470.465 17.9609 470.326 18.0939 470.134 18.1006C469.974 18.1062 469.813 18.0798 469.651 18.0214C469.424 17.9333 469.118 17.8959 468.734 17.9093C468.478 17.9182 467.954 18.0166 467.16 18.2044L465.251 18.5593C465.265 18.959 465.352 20.0687 465.511 21.8882C465.769 24.6969 465.928 26.9407 465.986 28.6197C465.997 28.9235 465.972 29.1325 465.912 29.2467C465.853 29.3768 465.727 29.4453 465.535 29.452C465.311 29.4598 465.139 29.3377 465.018 29.0858C464.897 28.8339 464.831 28.548 464.82 28.2282C464.756 26.3893 464.535 23.5073 464.158 19.582L464.083 18.8162C463.956 18.8366 463.542 18.9231 462.843 19.0756C462.16 19.2275 461.659 19.3091 461.339 19.3202C461.163 19.3264 461.01 19.2917 460.879 19.2162C460.764 19.1402 460.704 19.0222 460.699 18.8623C460.685 18.4626 460.821 18.2497 461.109 18.2236C461.524 18.1931 462.026 18.1435 462.616 18.0749C463.206 17.9903 463.659 17.9104 463.977 17.8353C463.885 15.2129 464.163 13.0739 464.809 11.4183C465.471 9.74619 466.506 8.88556 467.913 8.83642C468.425 8.81856 468.901 8.93 469.342 9.17077C469.798 9.41098 470.161 9.71051 470.43 10.0693C470.714 10.4276 470.862 10.7587 470.873 11.0625ZM480.081 21.0432C480.102 21.6668 479.896 22.3945 479.46 23.2262C479.025 24.0579 478.394 24.7844 477.567 25.4056C476.74 26.0108 475.783 26.3324 474.695 26.3704C473.624 26.4078 472.822 26.1396 472.29 25.5659C471.757 24.9921 471.476 24.2655 471.445 23.386C471.418 22.6185 471.521 21.6623 471.753 20.5175C472.001 19.3722 472.366 18.3428 472.846 17.4295C472.876 17.3644 472.996 17.1281 473.206 16.7205C473.431 16.2964 473.684 15.9754 473.964 15.7575C474.244 15.5235 474.544 15.401 474.864 15.3898C475.008 15.3848 475.137 15.4203 475.252 15.4964C475.382 15.5558 475.449 15.6416 475.453 15.7535C475.454 15.7855 475.409 15.8671 475.318 15.9984C475.242 16.1131 475.181 16.2033 475.135 16.2689C474.614 16.9435 474.197 17.6065 473.884 18.2578C473.464 19.0889 473.141 19.9087 472.913 20.7172C472.701 21.5251 472.612 22.4007 472.644 23.3441C472.689 24.6074 473.478 25.2122 475.013 25.1586C475.733 25.1334 476.389 24.9024 476.982 24.4654C477.591 24.0279 478.069 23.5069 478.417 22.9024C478.763 22.282 478.928 21.7239 478.91 21.2282C478.891 20.6685 478.69 20.1872 478.308 19.7843C477.925 19.3814 477.406 18.9593 476.751 18.5179C476.324 18.2286 476.012 17.9914 475.813 17.8062C475.615 17.621 475.513 17.4644 475.509 17.3365C475.502 17.1446 475.632 16.988 475.9 16.8666C476.168 16.7292 476.485 16.654 476.853 16.6412C477.061 16.6339 477.197 16.6452 477.263 16.6749C477.327 16.6887 477.36 16.7275 477.363 16.7915C477.364 16.8235 477.334 16.8806 477.273 16.9627C477.227 17.0284 477.205 17.0852 477.206 17.1331C477.208 17.1811 477.374 17.3354 477.703 17.5961C478.361 18.1014 478.915 18.6184 479.366 19.147C479.817 19.6756 480.055 20.3077 480.081 21.0432ZM484.494 25.2117C484.5 25.3716 484.401 25.5032 484.196 25.6064C483.992 25.7096 483.761 25.7656 483.506 25.7746C483.314 25.7813 483.122 25.5638 482.93 25.1222C482.754 24.6641 482.65 23.9713 482.618 23.0439C482.571 21.2364 482.518 19.0529 482.461 16.4934C482.42 13.9333 482.392 12.005 482.379 10.7087C482.379 10.2444 482.444 9.80991 482.574 9.40513C482.72 8.99978 482.984 8.79041 483.368 8.77701C483.496 8.77255 483.579 8.84171 483.616 8.9845C483.668 9.11075 483.701 9.36576 483.714 9.74952C483.715 9.76552 483.709 9.82176 483.696 9.91826C483.699 9.99821 483.704 10.1501 483.712 10.374C483.571 14.5895 483.571 18.696 483.71 22.6936C483.728 23.2052 483.859 23.745 484.103 24.3128C484.363 24.8801 484.493 25.1797 484.494 25.2117ZM488.051 10.7028C488.059 10.9426 487.8 11.0718 487.272 11.0902C487 11.0997 486.716 10.9975 486.421 10.7837C486.141 10.5693 485.999 10.3902 485.994 10.2463C485.988 10.0704 486.062 9.89969 486.216 9.73421C486.386 9.56816 486.559 9.48207 486.735 9.47593C486.735 9.47593 486.792 9.49796 486.906 9.54202C487.035 9.56953 487.182 9.66844 487.348 9.83875C487.481 9.96221 487.631 10.1251 487.798 10.3274C487.965 10.5297 488.049 10.6548 488.051 10.7028ZM489.177 25.7686C489.183 25.9285 489.115 26.051 488.974 26.1359C488.85 26.2364 488.699 26.2816 488.523 26.2718C488.298 26.2636 488.118 25.9097 487.981 25.21C487.861 24.5098 487.71 23.1783 487.53 21.2154C487.42 19.9224 487.32 18.6611 487.229 17.4315C487.138 16.186 487.072 15.2277 487.033 14.5566C487.027 14.3807 487.046 14.252 487.091 14.1704C487.152 14.0722 487.262 14.0203 487.422 14.0147C487.79 14.0019 488.027 14.1457 488.134 14.4462C488.24 14.7466 488.309 15.3286 488.339 16.1921L488.414 19.0232C488.47 20.6382 488.563 21.9317 488.693 22.9038C488.695 22.9518 488.785 23.4609 488.963 24.4313C489.098 25.099 489.17 25.5448 489.177 25.7686ZM500.365 20.3349C500.387 20.9585 500.18 21.6861 499.745 22.5178C499.31 23.3495 498.679 24.076 497.852 24.6972C497.025 25.3025 496.067 25.6241 494.98 25.6621C493.908 25.6995 493.107 25.4313 492.574 24.8575C492.042 24.2838 491.76 23.5571 491.73 22.6777C491.703 21.9101 491.806 20.954 492.038 19.8092C492.286 18.6638 492.65 17.6345 493.131 16.7211C493.16 16.6561 493.28 16.4197 493.49 16.0122C493.715 15.588 493.968 15.267 494.249 15.0491C494.529 14.8152 494.829 14.6926 495.149 14.6815C495.293 14.6765 495.422 14.712 495.537 14.788C495.667 14.8475 495.734 14.9332 495.738 15.0451C495.739 15.0771 495.694 15.1587 495.602 15.29C495.526 15.4047 495.465 15.4949 495.42 15.5606C494.899 16.2351 494.482 16.8981 494.168 17.5494C493.749 18.3806 493.425 19.2004 493.197 20.0088C492.986 20.8167 492.896 21.6924 492.929 22.6358C492.973 23.899 493.763 24.5038 495.298 24.4502C496.017 24.4251 496.674 24.1941 497.267 23.7571C497.876 23.3196 498.354 22.7986 498.701 22.1941C499.048 21.5736 499.212 21.0155 499.195 20.5198C499.175 19.9602 498.974 19.4789 498.592 19.076C498.21 18.6731 497.691 18.2509 497.035 17.8096C496.609 17.5203 496.296 17.283 496.098 17.0978C495.899 16.9126 495.798 16.7561 495.793 16.6282C495.786 16.4363 495.917 16.2796 496.185 16.1582C496.452 16.0208 496.77 15.9457 497.138 15.9328C497.345 15.9256 497.482 15.9368 497.547 15.9666C497.612 15.9803 497.645 16.0192 497.647 16.0831C497.648 16.1151 497.618 16.1722 497.557 16.2544C497.511 16.32 497.489 16.3768 497.491 16.4248C497.493 16.4728 497.658 16.6271 497.987 16.8878C498.645 17.3931 499.2 17.9101 499.651 18.4387C500.101 18.9672 500.34 19.5993 500.365 20.3349ZM519.349 24.2347C519.358 24.4906 519.293 24.6929 519.154 24.8419C519.015 24.9908 518.818 25.0698 518.562 25.0787C518.242 25.0899 517.935 24.7644 517.639 24.1023C517.36 23.4396 517.176 22.7497 517.087 22.0323C516.999 21.347 516.902 19.9575 516.797 17.8639C516.769 17.5287 516.75 17.1931 516.738 16.8573C516.726 16.5056 516.707 16.21 516.683 15.9707C516.258 17.0902 515.67 18.3675 514.92 19.8026C514.169 21.2377 513.404 22.4731 512.624 23.509C511.859 24.5443 511.221 25.0709 510.71 25.0887C510.182 25.1072 509.82 24.8396 509.625 24.2861C509.446 23.732 509.335 22.8474 509.292 21.6321C509.253 20.4968 509.351 19.2046 509.589 17.7554C509.843 16.3057 510.148 15.1983 510.506 14.4334C510.654 14.092 510.782 13.8634 510.89 13.7475C510.997 13.6157 511.123 13.5473 511.267 13.5423C511.667 13.5283 511.869 13.6013 511.875 13.7612C511.878 13.8411 511.804 14.0278 511.654 14.3212C511.251 15.1358 510.908 16.1083 510.628 17.2388C510.347 18.3693 510.24 19.878 510.305 21.7648C510.35 23.0281 510.547 23.6535 510.899 23.6412C511.315 23.6267 511.859 23.1515 512.53 22.2155C513.218 21.2629 513.891 20.1347 514.55 18.8309C515.208 17.5271 515.705 16.3971 516.04 15.4408C516.157 15.1166 516.284 14.6158 516.42 13.9387C516.458 13.6652 516.5 13.4716 516.544 13.358C516.587 13.2284 516.641 13.1625 516.705 13.1602C516.881 13.1541 517.075 13.2194 517.288 13.356C517.501 13.4927 517.61 13.6409 517.616 13.8008C517.643 14.5684 517.713 15.8867 517.826 17.7559C517.955 19.6086 518.072 20.8933 518.177 21.61C518.263 22.2314 518.391 22.7152 518.564 23.0614C518.752 23.4071 518.93 23.681 519.097 23.8833C519.263 24.0696 519.347 24.1867 519.349 24.2347ZM531.755 18.4462C531.795 19.5815 531.09 20.4867 529.641 21.1617C528.191 21.8367 526.286 22.3034 523.926 22.562C523.932 23.6504 523.947 24.5384 523.971 25.226C524.003 26.1375 524.072 26.9676 524.178 27.7163C524.22 28.003 524.243 28.2023 524.247 28.3143C524.256 28.5701 524.208 28.7879 524.102 28.9677C523.997 29.1635 523.84 29.2651 523.632 29.2723C523.344 29.2824 523.181 29.184 523.141 28.9773C523.116 28.706 523.077 28.2831 523.025 27.7085C522.99 27.1494 522.962 26.5821 522.942 26.0064L522.848 22.6476C522.768 22.6504 522.617 22.6637 522.394 22.6875C522.186 22.7108 521.979 22.726 521.771 22.7333C521.387 22.7467 521.186 22.4895 521.167 21.9619C521.154 21.5781 521.243 21.3829 521.435 21.3762C521.499 21.3739 521.693 21.4152 522.016 21.5C522.339 21.5848 522.613 21.6232 522.836 21.6154L522.575 14.8284C522.447 14.8169 522.182 14.8021 521.781 14.7841C521.38 14.7501 521.081 14.6804 520.885 14.5752C520.706 14.4694 520.612 14.3126 520.605 14.1047C520.59 13.689 520.663 13.4783 520.823 13.4727C520.999 13.4666 521.217 13.523 521.477 13.642C521.51 13.6569 521.607 13.7015 521.77 13.7759C521.932 13.8342 522.158 13.8744 522.447 13.8963C522.534 13.6371 522.616 13.4582 522.692 13.3594C522.785 13.2601 522.959 13.206 523.215 13.1971C523.535 13.1859 523.697 13.2443 523.701 13.3722C523.703 13.4202 523.682 13.509 523.638 13.6386C523.594 13.7522 523.574 13.8649 523.578 13.9769C524.575 14.0862 525.704 14.3429 526.967 14.7471C528.246 15.1347 529.352 15.6484 530.287 16.2881C531.238 16.9274 531.727 17.6467 531.755 18.4462ZM530.727 18.5782C530.704 17.9066 530.299 17.3124 529.512 16.7955C528.726 16.2786 527.783 15.8633 526.683 15.5495C525.599 15.2351 524.559 15.0153 523.562 14.89C523.626 15.8163 523.693 17.0467 523.763 18.5812C523.832 20.0997 523.875 21.1068 523.893 21.6025C524.852 21.569 525.871 21.4134 526.95 21.1356C528.029 20.8417 528.928 20.4741 529.649 20.0327C530.386 19.5747 530.745 19.0899 530.727 18.5782ZM541.853 7.43112C541.864 7.75092 541.87 8.3831 541.871 9.32764C541.871 10.2562 541.888 11.1922 541.921 12.1356C541.984 13.9585 542.089 15.82 542.236 17.72C542.382 19.6041 542.489 20.8411 542.558 21.431C542.561 21.527 542.573 21.6306 542.592 21.742C542.612 21.8534 542.632 21.9568 542.651 22.0521C542.731 22.4976 542.772 22.7684 542.776 22.8643C542.781 23.0242 542.667 23.1803 542.432 23.3326C542.213 23.4843 542.04 23.5624 541.912 23.5669C541.736 23.573 541.614 23.5133 541.545 23.3876C541.492 23.2453 541.462 23.0543 541.453 22.8144C541.422 21.935 541.414 21.0147 541.429 20.0536L541.406 18.7096C541.39 18.2619 541.362 17.6785 541.321 16.9595C541.279 16.2245 541.234 15.6097 541.184 15.1151C540.46 17.766 539.609 19.9731 538.63 21.7363C537.666 23.483 536.585 24.3773 535.385 24.4192C534.842 24.4382 534.369 24.1985 533.968 23.7002C533.582 23.2014 533.372 22.4722 533.339 21.5128C533.295 20.2496 533.67 18.8596 534.466 17.3429C535.278 15.8257 536.208 14.5124 537.258 13.4031C538.324 12.2932 539.121 11.7291 539.649 11.7106C540.16 11.6928 540.422 11.8517 540.434 12.1875C540.442 12.4114 540.371 12.678 540.221 12.9874C540.088 13.2803 539.929 13.55 539.745 13.7965C539.578 14.0425 539.478 14.1661 539.446 14.1672C539.414 14.1683 539.374 14.1617 539.325 14.1474C539.292 14.1165 539.275 14.0851 539.274 14.0531C539.271 13.9732 539.307 13.8359 539.38 13.6412C539.453 13.4465 539.489 13.3172 539.486 13.2532C539.484 13.1733 539.474 13.1176 539.456 13.0862C539.439 13.0548 539.391 13.0404 539.311 13.0432C538.975 13.055 538.384 13.5399 537.537 14.498C536.705 15.4396 535.967 16.5541 535.324 17.8413C534.68 19.1285 534.378 20.3158 534.416 21.4032C534.429 21.7869 534.522 22.1439 534.693 22.4741C534.865 22.8044 535.135 22.963 535.502 22.9502C536.67 22.9094 537.715 21.8883 538.637 19.8869C539.575 17.8689 540.368 15.5919 541.016 13.0557L540.898 11.0426C540.788 9.26939 540.731 8.3268 540.727 8.21487C540.694 7.25545 540.71 6.56648 540.775 6.14794C540.802 5.98692 540.83 5.87387 540.859 5.80879C540.905 5.74316 540.992 5.70811 541.12 5.70364C541.28 5.69805 541.442 5.74844 541.605 5.85478C541.769 5.94514 541.853 6.07827 541.859 6.25416L541.853 7.43112ZM555.099 21.8576C555.119 21.969 555.187 22.0867 555.303 22.2107C555.419 22.3187 555.478 22.4127 555.481 22.4927C555.488 22.6845 555.416 22.9112 555.265 23.1726C555.113 23.4181 554.957 23.5436 554.798 23.5492C554.526 23.5587 554.312 23.398 554.156 23.0672C554.001 22.7365 553.915 22.3472 553.899 21.8995C553.886 21.5157 553.87 20.3636 553.851 18.4431L553.843 17.5308C553.83 17.163 553.725 16.9025 553.528 16.7493C552.85 17.9897 552.216 19.0685 551.623 19.9858C551.031 20.903 550.269 21.7781 549.338 22.6111C548.405 23.4282 547.412 23.8551 546.356 23.892C545.845 23.9098 545.439 23.7639 545.14 23.4541C544.857 23.1438 544.707 22.7328 544.689 22.2211C544.667 21.5815 544.924 20.7 545.461 19.5766C545.998 18.4372 546.694 17.2842 547.55 16.1176C548.405 14.935 549.268 13.9603 550.137 13.1935C550.712 12.6931 551.173 12.3568 551.519 12.1847C551.865 11.9965 552.173 11.8976 552.445 11.8882C552.701 11.8792 552.968 11.95 553.245 12.1004C553.523 12.2508 553.762 12.4665 553.964 12.7477C554.166 13.0288 554.273 13.3532 554.286 13.721C554.304 14.2167 554.184 14.6932 553.928 15.1504L554.332 15.0162C554.507 15.0101 554.619 15.2223 554.666 15.6529C554.691 15.9082 554.725 16.4274 554.768 17.2103C554.828 17.9927 554.874 18.6395 554.908 19.1506C554.943 19.6777 554.976 20.1889 555.01 20.684C555.043 21.1792 555.073 21.5704 555.099 21.8576ZM546.647 22.585C547.51 22.5549 548.331 22.206 549.108 21.5385C549.885 20.871 550.57 20.0866 551.163 19.1853C551.771 18.2676 552.437 17.1477 553.159 15.8256C553.334 15.3392 553.412 14.8162 553.392 14.2565C553.381 13.9207 553.267 13.6366 553.05 13.404C552.85 13.1548 552.581 13.0361 552.246 13.0478C551.846 13.0618 551.344 13.3515 550.739 13.9169C550.041 14.5497 549.31 15.3917 548.546 16.443C547.781 17.4783 547.153 18.5009 546.66 19.5107C546.167 20.5205 545.93 21.3133 545.95 21.8889C545.967 22.3686 546.199 22.6007 546.647 22.585ZM568.197 12.9951C568.206 13.267 568.093 13.479 567.859 13.6313C567.64 13.783 567.228 13.9095 566.623 14.0107C565.161 14.3179 564.342 14.4905 564.168 14.5287L562.618 14.8469C562.647 15.6784 562.685 16.5496 562.733 17.4605C562.797 18.3708 562.865 19.169 562.937 19.8549C563.033 20.7801 563.17 21.4877 563.347 21.9778C563.524 22.4679 563.622 22.7447 563.64 22.8081C563.646 22.968 563.547 23.1156 563.344 23.2507C563.157 23.4013 562.975 23.4797 562.799 23.4859C562.703 23.4892 562.622 23.46 562.556 23.3983C562.491 23.3526 562.431 23.2666 562.379 23.1403C562.275 22.9198 562.165 22.5074 562.048 21.9031C561.947 21.2983 561.859 20.6289 561.785 19.8951C561.715 19.2411 561.648 18.483 561.586 17.6206C561.539 16.7417 561.502 15.8945 561.473 15.079C560.583 15.2542 559.669 15.4622 558.733 15.703C557.892 15.9085 557.391 16.0141 557.231 16.0196C557.04 16.0263 556.854 15.9768 556.674 15.871C556.51 15.7647 556.425 15.6155 556.418 15.4237C556.411 15.2158 556.478 15.0774 556.62 15.0084C556.761 14.9394 557 14.899 557.336 14.8873C557.576 14.8789 557.926 14.8267 558.387 14.7305C558.847 14.6184 559.141 14.5441 559.268 14.5076C560.332 14.2624 561.055 14.101 561.436 14.0237C561.425 13.6879 561.393 13.2487 561.342 12.7062C561.285 11.9717 561.249 11.4126 561.236 11.0288C561.214 10.4052 561.213 9.92496 561.233 9.58805C561.269 9.23459 561.338 8.91999 561.441 8.64425C561.557 8.31997 561.792 8.1517 562.143 8.13941C562.287 8.13439 562.384 8.15502 562.434 8.20132C562.483 8.24761 562.51 8.33472 562.515 8.46264C562.518 8.55858 562.488 8.83981 562.424 9.30632C562.361 9.77283 562.342 10.3898 562.369 11.1574C562.39 11.749 562.429 12.4121 562.486 13.1465L562.533 13.7933C563.249 13.6562 564.661 13.3107 566.771 12.7567C566.898 12.7203 566.998 12.6047 567.071 12.41C567.161 12.2148 567.253 12.1155 567.349 12.1122C567.525 12.106 567.705 12.2038 567.888 12.4055C568.086 12.5907 568.189 12.7872 568.197 12.9951ZM578.623 16.4493C578.735 16.4454 578.795 16.5634 578.803 16.8033C578.813 17.0911 578.62 17.7302 578.222 18.7207C577.84 19.7107 577.232 20.6364 576.398 21.4981C575.579 22.3592 574.546 22.8115 573.299 22.855C572.276 22.8908 571.409 22.6009 570.699 21.9853C569.989 21.3697 569.611 20.3983 569.565 19.0711C569.521 17.8238 569.766 16.5825 570.299 15.3472C570.832 14.0958 571.549 13.0702 572.449 12.2703C573.349 11.4544 574.295 11.0291 575.286 10.9945C575.878 10.9738 576.378 11.0924 576.788 11.3503C577.212 11.5916 577.433 11.9601 577.451 12.4558C577.47 13.0155 577.169 13.5703 576.548 14.1203C575.943 14.6698 575.144 15.162 574.15 15.5969C573.157 16.0319 572.128 16.356 571.062 16.5693C570.896 17.3115 570.825 18.0344 570.85 18.738C570.882 19.6654 571.123 20.3775 571.573 20.8741C572.039 21.3701 572.679 21.6039 573.495 21.5754C574.726 21.5324 575.71 21.0578 576.447 20.1516C577.184 19.2453 577.789 18.2316 578.262 17.1104C578.291 17.0453 578.343 16.9234 578.417 16.7447C578.49 16.55 578.559 16.4516 578.623 16.4493ZM576.381 12.7574C576.372 12.5015 576.229 12.3064 575.952 12.172C575.691 12.037 575.385 11.9756 575.033 11.9879C574.425 12.0091 573.849 12.2294 573.303 12.6487C572.757 13.068 572.302 13.5642 571.938 14.1372C571.59 14.7097 571.367 15.2138 571.27 15.6495C572.003 15.5438 572.771 15.3089 573.575 14.9446C574.379 14.5803 575.046 14.1888 575.575 13.7701C576.121 13.3508 576.39 13.0132 576.381 12.7574ZM589.413 18.8342C589.438 19.5378 589.174 20.2274 588.621 20.9031C588.084 21.5623 587.358 22.0999 586.444 22.5161C585.531 22.9482 584.57 23.1819 583.563 23.2171C582.875 23.2411 582.409 23.1933 582.165 23.0738C581.921 22.9542 581.795 22.7825 581.787 22.5587C581.782 22.4147 581.957 22.1605 582.312 21.7958C582.667 21.4152 582.909 21.2227 583.037 21.2182C583.229 21.2115 583.326 21.2481 583.329 21.3281C583.331 21.392 583.293 21.4574 583.216 21.5242C583.138 21.5909 583.1 21.6483 583.101 21.6962C583.104 21.7602 583.202 21.8208 583.396 21.8781C583.606 21.9348 583.855 21.9581 584.143 21.9481C584.814 21.9246 585.482 21.7812 586.145 21.5179C586.824 21.2381 587.372 20.8907 587.79 20.4759C588.208 20.061 588.409 19.6298 588.393 19.182C588.378 18.7503 588.23 18.4113 587.949 18.1649C587.668 17.9186 587.318 17.7467 586.899 17.6493C586.494 17.5353 585.809 17.3831 584.841 17.1928C583.778 16.9898 582.947 16.8107 582.349 16.6554C581.767 16.4836 581.295 16.268 580.934 16.0084C580.572 15.7329 580.383 15.3793 580.368 14.9475C580.341 14.18 580.693 13.4633 581.422 12.7974C582.151 12.1316 582.997 11.5977 583.96 11.1959C584.922 10.7941 585.667 10.5839 586.195 10.5655C586.739 10.5465 587.016 10.6969 587.027 11.0167C587.034 11.2086 586.977 11.4267 586.858 11.671C586.738 11.8994 586.55 12.018 586.294 12.0269C586.198 12.0303 586.093 12.0019 585.979 11.9419C585.864 11.8658 585.751 11.8298 585.639 11.8337C585.319 11.8449 584.819 11.9664 584.139 12.1983C583.458 12.4301 582.846 12.7637 582.3 13.199C581.755 13.6343 581.493 14.1478 581.514 14.7394C581.527 15.1232 581.753 15.4035 582.191 15.5803C582.645 15.7405 583.477 15.9356 584.685 16.1656C584.831 16.2085 584.976 16.2435 585.121 16.2704C585.266 16.2814 585.395 16.3009 585.508 16.329C586.749 16.5738 587.704 16.8687 588.372 17.2136C589.041 17.5584 589.388 18.0987 589.413 18.8342ZM593.143 7.12893C593.144 7.17691 593.127 7.58577 593.089 8.35554C592.932 10.7145 592.894 13.0692 592.976 15.4198C592.994 15.9315 593.044 16.4501 593.126 16.9755C593.209 17.5009 593.252 17.8116 593.255 17.9076C593.268 18.2914 593.115 18.4888 592.795 18.5C592.683 18.5039 592.559 18.3802 592.422 18.1288C592.285 17.8614 592.161 17.5215 592.05 17.1091C591.955 16.6802 591.9 16.2339 591.884 15.7701C591.839 14.4909 591.813 11.9302 591.807 8.08812C591.807 7.62385 591.872 7.18932 592.002 6.78454C592.148 6.3792 592.413 6.16982 592.797 6.15642C592.924 6.15196 593.007 6.22112 593.044 6.36392C593.096 6.49016 593.129 6.74517 593.143 7.12893ZM594.488 22.2592C594.496 22.4991 594.236 22.6282 593.709 22.6466C593.405 22.6572 593.154 22.57 592.955 22.3848C592.757 22.2156 592.614 22.0205 592.526 21.7994C592.438 21.5623 592.392 21.3798 592.387 21.2519C592.381 21.076 592.455 20.9053 592.609 20.7398C592.78 20.5738 592.953 20.4877 593.129 20.4816C593.241 20.4776 593.33 20.5225 593.398 20.6163C593.465 20.71 593.542 20.8434 593.628 21.0165C593.766 21.2998 593.9 21.4872 594.032 21.5787C594.163 21.6702 594.271 21.7945 594.357 21.9516C594.442 22.0927 594.485 22.1953 594.488 22.2592Z" fill="white"/>
<path d="M607.06 15.5286C650.152 13.7385 653.739 68.5714 653.739 68.5714M653.739 68.5714L670.287 44.4338M653.739 68.5714L623.128 62.5582" stroke="white"/>
</svg>
