<svg width="377" height="75" viewBox="0 0 377 75" fill="none" xmlns="http://www.w3.org/2000/svg">
<path d="M95.44 52.336C95.44 52.464 95.384 52.6 95.272 52.744C95.16 52.872 95.016 52.936 94.84 52.936C94.792 52.936 94.624 52.896 94.336 52.816C94.064 52.72 93.808 52.672 93.568 52.672C92.8 52.672 91.928 52.712 90.952 52.792C89.976 52.872 89.168 52.984 88.528 53.128C88.576 53.896 88.616 55.112 88.648 56.776C88.696 58.424 88.72 60.16 88.72 61.984C88.72 62.752 88.704 63.608 88.672 64.552C88.656 65.496 88.624 66.08 88.576 66.304C88.544 66.48 88.432 66.624 88.24 66.736C88.064 66.848 87.88 66.904 87.688 66.904C87.576 66.904 87.48 66.856 87.4 66.76C87.32 66.664 87.28 66.552 87.28 66.424L87.304 65.584C87.4 64.336 87.448 62.8 87.448 60.976C87.448 59.664 87.432 58.168 87.4 56.488C87.368 54.792 87.336 53.744 87.304 53.344C84.104 53.696 81.968 54.024 80.896 54.328C80.704 54.392 80.488 54.424 80.248 54.424C79.96 54.424 79.68 54.32 79.408 54.112C79.136 53.904 79 53.68 79 53.44C79 53.28 79.048 53.168 79.144 53.104C79.24 53.024 79.36 52.984 79.504 52.984C80.416 52.936 81.184 52.888 81.808 52.84C83.232 52.712 85.024 52.512 87.184 52.24C87.184 51.744 87.192 51.392 87.208 51.184C87.24 50.976 87.296 50.872 87.376 50.872C87.68 50.872 87.952 50.992 88.192 51.232C88.24 51.28 88.28 51.408 88.312 51.616C88.344 51.808 88.36 51.936 88.36 52C88.712 51.984 89.288 51.904 90.088 51.76C91.816 51.488 93 51.352 93.64 51.352C94.408 51.352 94.92 51.448 95.176 51.64C95.352 51.768 95.44 52 95.44 52.336ZM107.154 66.592C107.154 66.848 107.082 67.048 106.938 67.192C106.794 67.336 106.594 67.408 106.338 67.408C106.018 67.408 105.722 67.072 105.45 66.4C105.194 65.728 105.034 65.032 104.97 64.312C104.906 63.624 104.858 62.232 104.826 60.136C104.81 59.8 104.802 59.464 104.802 59.128C104.802 58.776 104.794 58.48 104.778 58.24C104.314 59.344 103.682 60.6 102.882 62.008C102.082 63.416 101.274 64.624 100.458 65.632C99.6579 66.64 99.0019 67.144 98.4899 67.144C97.9619 67.144 97.6099 66.864 97.4339 66.304C97.2739 65.744 97.1939 64.856 97.1939 63.64C97.1939 62.504 97.3379 61.216 97.6259 59.776C97.9299 58.336 98.2739 57.24 98.6579 56.488C98.8179 56.152 98.9539 55.928 99.0659 55.816C99.1779 55.688 99.3059 55.624 99.4499 55.624C99.8499 55.624 100.05 55.704 100.05 55.864C100.05 55.944 99.9699 56.128 99.8099 56.416C99.3779 57.216 99.0019 58.176 98.6819 59.296C98.3619 60.416 98.2019 61.92 98.2019 63.808C98.2019 65.072 98.3779 65.704 98.7299 65.704C99.1459 65.704 99.7059 65.248 100.41 64.336C101.13 63.408 101.842 62.304 102.546 61.024C103.25 59.744 103.786 58.632 104.154 57.688C104.282 57.368 104.426 56.872 104.586 56.2C104.634 55.928 104.682 55.736 104.73 55.624C104.778 55.496 104.834 55.432 104.898 55.432C105.074 55.432 105.266 55.504 105.474 55.648C105.682 55.792 105.786 55.944 105.786 56.104C105.786 56.872 105.81 58.192 105.858 60.064C105.922 61.92 105.994 63.208 106.074 63.928C106.138 64.552 106.25 65.04 106.41 65.392C106.586 65.744 106.754 66.024 106.914 66.232C107.074 66.424 107.154 66.544 107.154 66.592ZM117.354 56.896C117.354 57.04 117.25 57.208 117.042 57.4C116.85 57.576 116.682 57.664 116.538 57.664C116.426 57.664 116.314 57.616 116.202 57.52C116.106 57.424 115.994 57.288 115.866 57.112C115.754 56.952 115.602 56.816 115.41 56.704C115.234 56.592 115.05 56.536 114.858 56.536C114.394 56.536 113.77 57.152 112.986 58.384C112.202 59.6 111.434 61.136 110.682 62.992C110.698 63.36 110.722 63.824 110.754 64.384C110.802 64.944 110.834 65.36 110.85 65.632L110.922 66.592C110.922 66.816 110.874 67.008 110.778 67.168C110.682 67.344 110.506 67.432 110.25 67.432C109.978 67.432 109.802 67.072 109.722 66.352C109.642 65.616 109.594 64.552 109.578 63.16C109.562 62.808 109.546 62.304 109.53 61.648C109.53 60.992 109.514 60.208 109.482 59.296C109.434 57.92 109.41 56.936 109.41 56.344C109.41 55.976 109.634 55.792 110.082 55.792C110.354 55.792 110.514 55.912 110.562 56.152C110.626 56.376 110.658 56.816 110.658 57.472V61.288C111.138 60.056 111.658 58.992 112.218 58.096C112.778 57.2 113.322 56.52 113.85 56.056C114.394 55.576 114.874 55.336 115.29 55.336C115.642 55.336 115.978 55.416 116.298 55.576C116.618 55.736 116.874 55.944 117.066 56.2C117.258 56.44 117.354 56.672 117.354 56.896ZM127.292 67.168C127.292 67.36 127.212 67.52 127.052 67.648C126.892 67.792 126.7 67.864 126.476 67.864C126.316 67.864 126.18 67.824 126.068 67.744C125.956 67.68 125.9 67.584 125.9 67.456C125.9 66.8 125.948 65.784 126.044 64.408C126.14 62.936 126.188 61.712 126.188 60.736C126.188 59.792 126.156 59.024 126.092 58.432C126.044 57.824 125.916 57.52 125.708 57.52C125.164 57.52 124.564 58.2 123.908 59.56C123.268 60.904 122.532 62.68 121.7 64.888L121.34 65.848C121.276 66.008 121.164 66.136 121.004 66.232C120.86 66.328 120.708 66.376 120.548 66.376C120.356 66.376 120.228 66.36 120.164 66.328C120.1 66.296 120.06 66.2 120.044 66.04L119.852 64.072L119.492 60.616C119.38 59.24 119.244 58.04 119.084 57.016C119.036 56.776 119.012 56.592 119.012 56.464C119.012 56.224 119.116 56.032 119.324 55.888C119.532 55.728 119.772 55.648 120.044 55.648C120.204 55.648 120.316 56.032 120.38 56.8C120.46 57.568 120.54 58.808 120.62 60.52L120.716 61.792C120.844 63.408 120.916 64.432 120.932 64.864C120.98 64.768 121.02 64.664 121.052 64.552C121.1 64.424 121.156 64.288 121.22 64.144C122.084 61.904 122.892 60.04 123.644 58.552C124.412 57.048 125.148 56.296 125.852 56.296C126.348 56.296 126.684 56.72 126.86 57.568C127.052 58.4 127.172 59.472 127.22 60.784C127.268 62.24 127.292 64.368 127.292 67.168ZM146.686 51.592C146.686 51.864 146.638 52.152 146.542 52.456C146.446 52.76 146.286 53.208 146.062 53.8C145.886 54.216 145.662 54.816 145.39 55.6C144.686 57.664 144.15 59.944 143.782 62.44C143.734 62.856 143.686 63.304 143.638 63.784C143.59 64.264 143.566 64.672 143.566 65.008C143.566 65.2 143.622 65.384 143.734 65.56C143.862 65.736 143.926 65.848 143.926 65.896C143.926 65.992 143.822 66.168 143.614 66.424C143.406 66.664 143.174 66.888 142.918 67.096C142.662 67.304 142.454 67.408 142.294 67.408C141.974 67.408 141.814 67.272 141.814 67C141.814 66.648 142.014 65.448 142.414 63.4C142.814 61.336 143.15 59.752 143.422 58.648C143.038 59.08 142.694 59.416 142.39 59.656C142.086 59.896 141.71 60.016 141.262 60.016C140.622 60.016 139.974 59.512 139.318 58.504C138.662 57.48 138.006 56.256 137.35 54.832L137.11 54.352C136.886 53.888 136.662 53.488 136.438 53.152C136.214 52.816 136.102 52.624 136.102 52.576C136.102 52.496 136.158 52.44 136.27 52.408C136.398 52.36 136.534 52.336 136.678 52.336C137.206 52.336 137.678 52.84 138.094 53.848C138.67 55.224 139.238 56.416 139.798 57.424C140.374 58.416 140.966 58.912 141.574 58.912C141.974 58.912 142.326 58.776 142.63 58.504C142.934 58.232 143.182 57.912 143.374 57.544C143.55 57.208 143.758 56.728 143.998 56.104C144.254 55.48 144.446 54.968 144.574 54.568C145.086 53.032 145.366 52.144 145.414 51.904C145.494 51.568 145.566 51.336 145.63 51.208C145.694 51.064 145.798 50.992 145.942 50.992C146.118 50.992 146.286 51.056 146.446 51.184C146.606 51.296 146.686 51.432 146.686 51.592ZM156.99 62.032C156.99 62.656 156.758 63.376 156.294 64.192C155.83 65.008 155.174 65.712 154.326 66.304C153.478 66.88 152.51 67.168 151.422 67.168C150.35 67.168 149.558 66.872 149.046 66.28C148.534 65.688 148.278 64.952 148.278 64.072C148.278 63.304 148.414 62.352 148.686 61.216C148.974 60.08 149.374 59.064 149.886 58.168C149.918 58.104 150.046 57.872 150.27 57.472C150.51 57.056 150.774 56.744 151.062 56.536C151.35 56.312 151.654 56.2 151.974 56.2C152.118 56.2 152.246 56.24 152.358 56.32C152.486 56.384 152.55 56.472 152.55 56.584C152.55 56.616 152.502 56.696 152.406 56.824C152.326 56.936 152.262 57.024 152.214 57.088C151.67 57.744 151.23 58.392 150.894 59.032C150.446 59.848 150.094 60.656 149.838 61.456C149.598 62.256 149.478 63.128 149.478 64.072C149.478 65.336 150.246 65.968 151.782 65.968C152.502 65.968 153.166 65.76 153.773 65.344C154.398 64.928 154.894 64.424 155.262 63.832C155.63 63.224 155.814 62.672 155.814 62.176C155.814 61.616 155.63 61.128 155.262 60.712C154.894 60.296 154.39 59.856 153.75 59.392C153.334 59.088 153.03 58.84 152.838 58.648C152.646 58.456 152.55 58.296 152.55 58.168C152.55 57.976 152.686 57.824 152.958 57.712C153.23 57.584 153.55 57.52 153.918 57.52C154.126 57.52 154.262 57.536 154.326 57.568C154.39 57.584 154.422 57.624 154.422 57.688C154.422 57.72 154.39 57.776 154.326 57.856C154.278 57.92 154.254 57.976 154.254 58.024C154.254 58.072 154.414 58.232 154.734 58.504C155.374 59.032 155.91 59.568 156.342 60.112C156.774 60.656 156.99 61.296 156.99 62.032ZM168.935 66.592C168.935 66.848 168.863 67.048 168.719 67.192C168.575 67.336 168.375 67.408 168.119 67.408C167.799 67.408 167.503 67.072 167.231 66.4C166.975 65.728 166.815 65.032 166.751 64.312C166.687 63.624 166.639 62.232 166.607 60.136C166.591 59.8 166.583 59.464 166.583 59.128C166.583 58.776 166.575 58.48 166.559 58.24C166.095 59.344 165.463 60.6 164.663 62.008C163.863 63.416 163.055 64.624 162.239 65.632C161.439 66.64 160.783 67.144 160.271 67.144C159.743 67.144 159.391 66.864 159.215 66.304C159.055 65.744 158.975 64.856 158.975 63.64C158.975 62.504 159.119 61.216 159.407 59.776C159.711 58.336 160.055 57.24 160.439 56.488C160.599 56.152 160.735 55.928 160.847 55.816C160.959 55.688 161.087 55.624 161.231 55.624C161.631 55.624 161.831 55.704 161.831 55.864C161.831 55.944 161.751 56.128 161.591 56.416C161.159 57.216 160.783 58.176 160.463 59.296C160.143 60.416 159.983 61.92 159.983 63.808C159.983 65.072 160.159 65.704 160.511 65.704C160.927 65.704 161.487 65.248 162.191 64.336C162.911 63.408 163.623 62.304 164.327 61.024C165.031 59.744 165.567 58.632 165.935 57.688C166.063 57.368 166.207 56.872 166.367 56.2C166.415 55.928 166.463 55.736 166.511 55.624C166.559 55.496 166.615 55.432 166.679 55.432C166.855 55.432 167.047 55.504 167.255 55.648C167.463 55.792 167.567 55.944 167.567 56.104C167.567 56.872 167.591 58.192 167.639 60.064C167.703 61.92 167.775 63.208 167.855 63.928C167.919 64.552 168.031 65.04 168.191 65.392C168.367 65.744 168.535 66.024 168.695 66.232C168.855 66.424 168.935 66.544 168.935 66.592ZM179.136 56.896C179.136 57.04 179.032 57.208 178.824 57.4C178.632 57.576 178.464 57.664 178.32 57.664C178.208 57.664 178.096 57.616 177.984 57.52C177.888 57.424 177.776 57.288 177.648 57.112C177.536 56.952 177.384 56.816 177.192 56.704C177.016 56.592 176.832 56.536 176.64 56.536C176.176 56.536 175.552 57.152 174.768 58.384C173.984 59.6 173.216 61.136 172.464 62.992C172.48 63.36 172.504 63.824 172.536 64.384C172.584 64.944 172.616 65.36 172.632 65.632L172.704 66.592C172.704 66.816 172.656 67.008 172.56 67.168C172.464 67.344 172.288 67.432 172.032 67.432C171.76 67.432 171.584 67.072 171.504 66.352C171.424 65.616 171.376 64.552 171.36 63.16C171.344 62.808 171.328 62.304 171.312 61.648C171.312 60.992 171.296 60.208 171.264 59.296C171.216 57.92 171.192 56.936 171.192 56.344C171.192 55.976 171.416 55.792 171.864 55.792C172.136 55.792 172.296 55.912 172.344 56.152C172.408 56.376 172.44 56.816 172.44 57.472V61.288C172.92 60.056 173.44 58.992 174 58.096C174.56 57.2 175.104 56.52 175.632 56.056C176.176 55.576 176.656 55.336 177.072 55.336C177.424 55.336 177.76 55.416 178.08 55.576C178.4 55.736 178.656 55.944 178.848 56.2C179.04 56.44 179.136 56.672 179.136 56.896ZM201.268 51.688C201.268 51.992 201.116 52.208 200.812 52.336C200.508 52.464 200.06 52.584 199.468 52.696C198.812 52.824 197.98 52.952 196.972 53.08C195.964 53.192 195.148 53.264 194.524 53.296C194.476 53.984 194.412 55.968 194.332 59.248C194.252 62.528 194.204 64.952 194.188 66.52C195.052 66.504 196.188 66.448 197.596 66.352C198.78 66.288 199.444 66.256 199.588 66.256C199.876 66.256 200.132 66.32 200.356 66.448C200.596 66.576 200.716 66.776 200.716 67.048C200.716 67.272 200.676 67.432 200.596 67.528C200.532 67.624 200.38 67.672 200.14 67.672C200.044 67.672 199.78 67.648 199.348 67.6C199.028 67.536 198.756 67.504 198.532 67.504C197.78 67.504 196.276 67.552 194.02 67.648C193.94 67.76 193.844 67.84 193.732 67.888C193.636 67.952 193.548 67.984 193.468 67.984C193.372 67.984 193.276 67.96 193.18 67.912C193.084 67.864 193.028 67.792 193.012 67.696L191.932 67.816C190.684 67.976 189.756 68.056 189.148 68.056C188.62 68.056 188.22 67.944 187.948 67.72C187.804 67.592 187.732 67.36 187.732 67.024C187.732 66.928 187.78 66.808 187.876 66.664C187.988 66.52 188.1 66.448 188.212 66.448C188.244 66.448 188.364 66.496 188.572 66.592C188.796 66.672 189.004 66.712 189.196 66.712C189.788 66.712 190.66 66.68 191.812 66.616L192.916 66.544L193.06 63.016C193.076 62.648 193.092 62.32 193.108 62.032C193.124 61.728 193.132 61.472 193.132 61.264L193.372 53.416C191.708 53.528 190.916 53.584 190.996 53.584C189.364 53.712 188.404 53.776 188.116 53.776C187.844 53.776 187.588 53.688 187.348 53.512C187.108 53.336 186.988 53.112 186.988 52.84C186.988 52.648 187.036 52.496 187.132 52.384C187.244 52.272 187.388 52.216 187.564 52.216C187.692 52.216 187.82 52.224 187.948 52.24C188.076 52.256 188.204 52.272 188.332 52.288C188.732 52.368 189.116 52.408 189.484 52.408C189.836 52.408 190.508 52.384 191.5 52.336C192.492 52.272 193.156 52.232 193.492 52.216C193.508 52.008 193.58 51.84 193.708 51.712C193.836 51.568 194.004 51.496 194.212 51.496C194.308 51.496 194.388 51.56 194.452 51.688C194.516 51.816 194.548 51.96 194.548 52.12C195.476 52.088 197.148 51.88 199.564 51.496C199.756 51.464 199.964 51.376 200.188 51.232C200.428 51.088 200.564 51.016 200.596 51.016C200.756 51.016 200.908 51.08 201.052 51.208C201.196 51.336 201.268 51.496 201.268 51.688ZM212.238 50.584C212.238 50.904 212.222 51.536 212.19 52.48C212.158 53.408 212.142 54.344 212.142 55.288C212.142 57.112 212.182 58.976 212.262 60.88C212.342 62.768 212.406 64.008 212.454 64.6C212.454 64.696 212.462 64.8 212.478 64.912C212.494 65.024 212.51 65.128 212.526 65.224C212.59 65.672 212.622 65.944 212.622 66.04C212.622 66.2 212.502 66.352 212.262 66.496C212.038 66.64 211.862 66.712 211.734 66.712C211.558 66.712 211.438 66.648 211.374 66.52C211.326 66.376 211.302 66.184 211.302 65.944C211.302 65.064 211.326 64.144 211.374 63.184L211.398 61.84C211.398 61.392 211.39 60.808 211.374 60.088C211.358 59.352 211.334 58.736 211.302 58.24C210.486 60.864 209.558 63.04 208.518 64.768C207.494 66.48 206.382 67.336 205.182 67.336C204.638 67.336 204.174 67.08 203.79 66.568C203.422 66.056 203.238 65.32 203.238 64.36C203.238 63.096 203.662 61.72 204.51 60.232C205.374 58.744 206.35 57.464 207.438 56.392C208.542 55.32 209.358 54.784 209.886 54.784C210.398 54.784 210.654 54.952 210.654 55.288C210.654 55.512 210.574 55.776 210.414 56.08C210.27 56.368 210.102 56.632 209.91 56.872C209.734 57.112 209.63 57.232 209.598 57.232C209.566 57.232 209.526 57.224 209.478 57.208C209.446 57.176 209.43 57.144 209.43 57.112C209.43 57.032 209.47 56.896 209.55 56.704C209.63 56.512 209.67 56.384 209.67 56.32C209.67 56.24 209.662 56.184 209.646 56.152C209.63 56.12 209.582 56.104 209.502 56.104C209.166 56.104 208.558 56.568 207.678 57.496C206.814 58.408 206.038 59.496 205.35 60.76C204.662 62.024 204.318 63.2 204.318 64.288C204.318 64.672 204.398 65.032 204.558 65.368C204.718 65.704 204.982 65.872 205.35 65.872C206.518 65.872 207.598 64.888 208.59 62.92C209.598 60.936 210.47 58.688 211.206 56.176L211.158 54.16C211.11 52.384 211.086 51.44 211.086 51.328C211.086 50.368 211.126 49.68 211.206 49.264C211.238 49.104 211.27 48.992 211.302 48.928C211.35 48.864 211.438 48.832 211.566 48.832C211.726 48.832 211.886 48.888 212.046 49C212.206 49.096 212.286 49.232 212.286 49.408L212.238 50.584ZM224.109 60.88C224.221 60.88 224.277 61 224.277 61.24C224.277 61.528 224.061 62.16 223.629 63.136C223.213 64.112 222.573 65.016 221.709 65.848C220.861 66.68 219.813 67.096 218.565 67.096C217.541 67.096 216.685 66.776 215.997 66.136C215.309 65.496 214.965 64.512 214.965 63.184C214.965 61.936 215.253 60.704 215.829 59.488C216.405 58.256 217.157 57.256 218.085 56.488C219.013 55.704 219.973 55.312 220.965 55.312C221.557 55.312 222.053 55.448 222.453 55.72C222.869 55.976 223.077 56.352 223.077 56.848C223.077 57.408 222.757 57.952 222.117 58.48C221.493 59.008 220.677 59.472 219.669 59.872C218.661 60.272 217.621 60.56 216.549 60.736C216.357 61.472 216.261 62.192 216.261 62.896C216.261 63.824 216.477 64.544 216.909 65.056C217.357 65.568 217.989 65.824 218.805 65.824C220.037 65.824 221.037 65.384 221.805 64.504C222.573 63.624 223.213 62.632 223.725 61.528C223.757 61.464 223.813 61.344 223.893 61.168C223.973 60.976 224.045 60.88 224.109 60.88ZM221.997 57.112C221.997 56.856 221.861 56.656 221.589 56.512C221.333 56.368 221.029 56.296 220.677 56.296C220.069 56.296 219.485 56.496 218.925 56.896C218.365 57.296 217.893 57.776 217.509 58.336C217.141 58.896 216.901 59.392 216.789 59.824C217.525 59.744 218.301 59.536 219.117 59.2C219.933 58.864 220.613 58.496 221.157 58.096C221.717 57.696 221.997 57.368 221.997 57.112ZM236.105 65.464C236.121 65.576 236.185 65.696 236.297 65.824C236.409 65.936 236.465 66.032 236.465 66.112C236.465 66.304 236.385 66.528 236.225 66.784C236.065 67.024 235.905 67.144 235.745 67.144C235.473 67.144 235.265 66.976 235.121 66.64C234.977 66.304 234.905 65.912 234.905 65.464C234.905 65.08 234.929 63.928 234.977 62.008L235.001 61.096C235.001 60.728 234.905 60.464 234.713 60.304C233.993 61.52 233.321 62.576 232.697 63.472C232.073 64.368 231.281 65.216 230.321 66.016C229.361 66.8 228.353 67.192 227.297 67.192C226.785 67.192 226.385 67.032 226.097 66.712C225.825 66.392 225.689 65.976 225.689 65.464C225.689 64.824 225.977 63.952 226.553 62.848C227.129 61.728 227.865 60.6 228.761 59.464C229.657 58.312 230.553 57.368 231.449 56.632C232.041 56.152 232.513 55.832 232.865 55.672C233.217 55.496 233.529 55.408 233.801 55.408C234.057 55.408 234.321 55.488 234.593 55.648C234.865 55.808 235.097 56.032 235.289 56.32C235.481 56.608 235.577 56.936 235.577 57.304C235.577 57.8 235.441 58.272 235.169 58.72L235.577 58.6C235.753 58.6 235.857 58.816 235.889 59.248C235.905 59.504 235.921 60.024 235.937 60.808C235.969 61.592 235.993 62.24 236.009 62.752C236.025 63.28 236.041 63.792 236.057 64.288C236.073 64.784 236.089 65.176 236.105 65.464ZM227.633 65.896C228.497 65.896 229.329 65.576 230.129 64.936C230.929 64.296 231.641 63.536 232.265 62.656C232.905 61.76 233.609 60.664 234.377 59.368C234.569 58.888 234.665 58.368 234.665 57.808C234.665 57.472 234.561 57.184 234.353 56.944C234.161 56.688 233.897 56.56 233.561 56.56C233.161 56.56 232.649 56.832 232.025 57.376C231.305 57.984 230.545 58.8 229.745 59.824C228.945 60.832 228.281 61.832 227.753 62.824C227.225 63.816 226.961 64.6 226.961 65.176C226.961 65.656 227.185 65.896 227.633 65.896ZM259.299 51.688C259.299 51.992 259.147 52.208 258.843 52.336C258.539 52.464 258.091 52.584 257.499 52.696C256.843 52.824 256.011 52.952 255.003 53.08C253.995 53.192 253.179 53.264 252.555 53.296C252.507 53.984 252.443 55.968 252.363 59.248C252.283 62.528 252.235 64.952 252.219 66.52C253.083 66.504 254.219 66.448 255.627 66.352C256.811 66.288 257.475 66.256 257.619 66.256C257.907 66.256 258.163 66.32 258.387 66.448C258.627 66.576 258.747 66.776 258.747 67.048C258.747 67.272 258.707 67.432 258.627 67.528C258.563 67.624 258.411 67.672 258.171 67.672C258.075 67.672 257.811 67.648 257.379 67.6C257.059 67.536 256.787 67.504 256.563 67.504C255.811 67.504 254.307 67.552 252.051 67.648C251.971 67.76 251.875 67.84 251.763 67.888C251.667 67.952 251.579 67.984 251.499 67.984C251.403 67.984 251.307 67.96 251.211 67.912C251.115 67.864 251.059 67.792 251.043 67.696L249.963 67.816C248.715 67.976 247.787 68.056 247.179 68.056C246.651 68.056 246.251 67.944 245.979 67.72C245.835 67.592 245.763 67.36 245.763 67.024C245.763 66.928 245.811 66.808 245.907 66.664C246.019 66.52 246.131 66.448 246.243 66.448C246.275 66.448 246.395 66.496 246.603 66.592C246.827 66.672 247.035 66.712 247.227 66.712C247.819 66.712 248.691 66.68 249.843 66.616L250.947 66.544L251.091 63.016C251.107 62.648 251.123 62.32 251.139 62.032C251.155 61.728 251.163 61.472 251.163 61.264L251.403 53.416C249.739 53.528 248.947 53.584 249.027 53.584C247.395 53.712 246.435 53.776 246.147 53.776C245.875 53.776 245.619 53.688 245.379 53.512C245.139 53.336 245.019 53.112 245.019 52.84C245.019 52.648 245.067 52.496 245.163 52.384C245.275 52.272 245.419 52.216 245.595 52.216C245.723 52.216 245.851 52.224 245.979 52.24C246.107 52.256 246.235 52.272 246.363 52.288C246.763 52.368 247.147 52.408 247.515 52.408C247.867 52.408 248.539 52.384 249.531 52.336C250.523 52.272 251.187 52.232 251.523 52.216C251.539 52.008 251.611 51.84 251.739 51.712C251.867 51.568 252.035 51.496 252.243 51.496C252.339 51.496 252.419 51.56 252.483 51.688C252.547 51.816 252.579 51.96 252.579 52.12C253.507 52.088 255.179 51.88 257.595 51.496C257.787 51.464 257.995 51.376 258.219 51.232C258.459 51.088 258.595 51.016 258.627 51.016C258.787 51.016 258.939 51.08 259.083 51.208C259.227 51.336 259.299 51.496 259.299 51.688ZM269.909 67.168C269.909 67.36 269.829 67.52 269.669 67.648C269.509 67.792 269.317 67.864 269.093 67.864C268.933 67.864 268.797 67.824 268.685 67.744C268.573 67.68 268.517 67.584 268.517 67.456C268.517 66.8 268.565 65.784 268.661 64.408C268.757 62.936 268.805 61.712 268.805 60.736C268.805 59.792 268.773 59.024 268.709 58.432C268.661 57.824 268.533 57.52 268.325 57.52C267.781 57.52 267.181 58.2 266.525 59.56C265.885 60.904 265.149 62.68 264.317 64.888L263.957 65.848C263.893 66.008 263.781 66.136 263.621 66.232C263.477 66.328 263.325 66.376 263.165 66.376C262.973 66.376 262.845 66.36 262.781 66.328C262.717 66.296 262.677 66.2 262.661 66.04L262.469 64.072L262.109 60.616C261.997 59.24 261.861 58.04 261.701 57.016C261.653 56.776 261.629 56.592 261.629 56.464C261.629 56.224 261.733 56.032 261.941 55.888C262.149 55.728 262.389 55.648 262.661 55.648C262.821 55.648 262.933 56.032 262.997 56.8C263.077 57.568 263.157 58.808 263.237 60.52L263.333 61.792C263.461 63.408 263.533 64.432 263.549 64.864C263.597 64.768 263.637 64.664 263.669 64.552C263.717 64.424 263.773 64.288 263.837 64.144C264.701 61.904 265.509 60.04 266.261 58.552C267.029 57.048 267.765 56.296 268.469 56.296C268.965 56.296 269.301 56.72 269.477 57.568C269.669 58.4 269.789 59.472 269.837 60.784C269.885 62.24 269.909 64.368 269.909 67.168ZM283.348 57.064C283.348 57.336 283.228 57.544 282.988 57.688C282.764 57.832 282.348 57.944 281.74 58.024C280.268 58.28 279.444 58.424 279.268 58.456L277.708 58.72C277.708 59.552 277.716 60.424 277.732 61.336C277.764 62.248 277.804 63.048 277.852 63.736C277.916 64.664 278.028 65.376 278.188 65.872C278.348 66.368 278.436 66.648 278.452 66.712C278.452 66.872 278.348 67.016 278.14 67.144C277.948 67.288 277.764 67.36 277.588 67.36C277.492 67.36 277.412 67.328 277.348 67.264C277.284 67.216 277.228 67.128 277.18 67C277.084 66.776 276.988 66.36 276.892 65.752C276.812 65.144 276.748 64.472 276.7 63.736C276.652 63.08 276.612 62.32 276.58 61.456C276.564 60.576 276.556 59.728 276.556 58.912C275.66 59.056 274.74 59.232 273.796 59.44C272.948 59.616 272.444 59.704 272.284 59.704C272.092 59.704 271.908 59.648 271.732 59.536C271.572 59.424 271.492 59.272 271.492 59.08C271.492 58.872 271.564 58.736 271.708 58.672C271.852 58.608 272.092 58.576 272.428 58.576C272.668 58.576 273.02 58.536 273.484 58.456C273.948 58.36 274.244 58.296 274.372 58.264C275.444 58.056 276.172 57.92 276.556 57.856C276.556 57.52 276.54 57.08 276.508 56.536C276.476 55.8 276.46 55.24 276.46 54.856C276.46 54.232 276.476 53.752 276.508 53.416C276.556 53.064 276.636 52.752 276.748 52.48C276.876 52.16 277.116 52 277.468 52C277.612 52 277.708 52.024 277.756 52.072C277.804 52.12 277.828 52.208 277.828 52.336C277.828 52.432 277.788 52.712 277.708 53.176C277.628 53.64 277.588 54.256 277.588 55.024C277.588 55.616 277.604 56.28 277.636 57.016L277.66 57.664C278.38 57.552 279.804 57.256 281.932 56.776C282.06 56.744 282.164 56.632 282.244 56.44C282.34 56.248 282.436 56.152 282.532 56.152C282.708 56.152 282.884 56.256 283.06 56.464C283.252 56.656 283.348 56.856 283.348 57.064ZM292.904 62.032C292.904 62.656 292.672 63.376 292.208 64.192C291.744 65.008 291.088 65.712 290.24 66.304C289.392 66.88 288.424 67.168 287.336 67.168C286.264 67.168 285.472 66.872 284.96 66.28C284.448 65.688 284.192 64.952 284.192 64.072C284.192 63.304 284.328 62.352 284.6 61.216C284.888 60.08 285.288 59.064 285.8 58.168C285.832 58.104 285.96 57.872 286.184 57.472C286.424 57.056 286.688 56.744 286.976 56.536C287.264 56.312 287.568 56.2 287.888 56.2C288.032 56.2 288.16 56.24 288.272 56.32C288.4 56.384 288.464 56.472 288.464 56.584C288.464 56.616 288.416 56.696 288.32 56.824C288.24 56.936 288.176 57.024 288.128 57.088C287.584 57.744 287.144 58.392 286.808 59.032C286.36 59.848 286.008 60.656 285.752 61.456C285.512 62.256 285.392 63.128 285.392 64.072C285.392 65.336 286.16 65.968 287.696 65.968C288.416 65.968 289.08 65.76 289.688 65.344C290.312 64.928 290.808 64.424 291.176 63.832C291.544 63.224 291.728 62.672 291.728 62.176C291.728 61.616 291.544 61.128 291.176 60.712C290.808 60.296 290.304 59.856 289.664 59.392C289.248 59.088 288.944 58.84 288.752 58.648C288.56 58.456 288.464 58.296 288.464 58.168C288.464 57.976 288.6 57.824 288.872 57.712C289.144 57.584 289.464 57.52 289.832 57.52C290.04 57.52 290.176 57.536 290.24 57.568C290.304 57.584 290.336 57.624 290.336 57.688C290.336 57.72 290.304 57.776 290.24 57.856C290.192 57.92 290.168 57.976 290.168 58.024C290.168 58.072 290.328 58.232 290.648 58.504C291.288 59.032 291.824 59.568 292.256 60.112C292.688 60.656 292.904 61.296 292.904 62.032ZM315.724 65.224C315.724 65.416 315.644 65.648 315.484 65.92C315.324 66.192 315.156 66.328 314.98 66.328C314.82 66.328 314.668 66.304 314.524 66.256C314.38 66.192 314.164 66.08 313.876 65.92C312.868 65.328 311.548 64.752 309.916 64.192C309.196 63.952 308.34 63.704 307.348 63.448C306.372 63.176 305.604 62.976 305.044 62.848L305.212 65.944C305.228 66.376 305.284 66.736 305.38 67.024C305.476 67.328 305.524 67.52 305.524 67.6C305.524 67.776 305.436 67.92 305.26 68.032C305.084 68.16 304.9 68.224 304.708 68.224C304.468 68.224 304.316 68.056 304.252 67.72C304.252 67.688 304.228 67.544 304.18 67.288C304.148 67.032 304.132 66.672 304.132 66.208C304.132 65.904 304.1 65.256 304.036 64.264C304.02 63.928 304.004 63.608 303.988 63.304C303.972 62.984 303.964 62.704 303.964 62.464C303.916 62.416 303.852 62.36 303.772 62.296C303.708 62.232 303.652 62.144 303.604 62.032C303.556 61.888 303.516 61.736 303.484 61.576C303.452 61.416 303.436 61.296 303.436 61.216C303.436 61.104 303.468 61.016 303.532 60.952C303.596 60.888 303.692 60.816 303.82 60.736C303.724 56.736 303.676 54.448 303.676 53.872C303.676 53.36 303.684 52.888 303.7 52.456C303.716 52.024 303.724 51.736 303.724 51.592C303.628 51.608 303.34 51.648 302.86 51.712C302.38 51.776 301.996 51.84 301.708 51.904C300.684 52.144 299.908 52.376 299.38 52.6C298.836 52.808 298.316 53.048 297.82 53.32C297.676 53.416 297.54 53.496 297.412 53.56C297.268 53.608 297.132 53.632 297.004 53.632C296.876 53.632 296.764 53.576 296.668 53.464C296.572 53.336 296.524 53.184 296.524 53.008C296.524 52.704 297.036 52.352 298.06 51.952C299.084 51.552 300.196 51.224 301.396 50.968C302.068 50.824 302.924 50.704 303.964 50.608C305.004 50.496 305.972 50.44 306.868 50.44C308.404 50.44 309.708 50.608 310.78 50.944C311.868 51.28 312.684 51.752 313.228 52.36C313.788 52.968 314.068 53.664 314.068 54.448C314.068 55.456 313.78 56.32 313.204 57.04C312.628 57.76 311.86 58.384 310.9 58.912C309.956 59.44 308.668 60.04 307.036 60.712C306.62 60.904 306.204 61.08 305.788 61.24C305.388 61.4 305.116 61.512 304.972 61.576C304.972 61.672 304.98 61.744 304.996 61.792C306.724 62.176 308.428 62.616 310.108 63.112L310.612 63.256C312.356 63.784 313.644 64.2 314.476 64.504C315.308 64.792 315.724 65.032 315.724 65.224ZM312.868 54.448C312.868 53.92 312.636 53.432 312.172 52.984C311.708 52.536 311.004 52.176 310.06 51.904C309.132 51.616 308.004 51.472 306.676 51.472C305.684 51.472 305.06 51.488 304.804 51.52C304.788 51.632 304.764 51.896 304.732 52.312C304.716 52.728 304.708 53.144 304.708 53.56L304.804 57.4L304.9 60.376C305.044 60.36 305.324 60.288 305.74 60.16C306.172 60.016 306.532 59.88 306.82 59.752C308.852 58.936 310.364 58.12 311.356 57.304C312.364 56.472 312.868 55.52 312.868 54.448ZM325.804 60.88C325.916 60.88 325.972 61 325.972 61.24C325.972 61.528 325.756 62.16 325.324 63.136C324.908 64.112 324.268 65.016 323.404 65.848C322.556 66.68 321.508 67.096 320.26 67.096C319.236 67.096 318.38 66.776 317.692 66.136C317.004 65.496 316.66 64.512 316.66 63.184C316.66 61.936 316.948 60.704 317.524 59.488C318.1 58.256 318.852 57.256 319.78 56.488C320.708 55.704 321.668 55.312 322.66 55.312C323.252 55.312 323.748 55.448 324.148 55.72C324.564 55.976 324.772 56.352 324.772 56.848C324.772 57.408 324.452 57.952 323.812 58.48C323.188 59.008 322.372 59.472 321.364 59.872C320.356 60.272 319.316 60.56 318.244 60.736C318.052 61.472 317.956 62.192 317.956 62.896C317.956 63.824 318.172 64.544 318.604 65.056C319.052 65.568 319.684 65.824 320.5 65.824C321.732 65.824 322.732 65.384 323.5 64.504C324.268 63.624 324.908 62.632 325.42 61.528C325.452 61.464 325.508 61.344 325.588 61.168C325.668 60.976 325.74 60.88 325.804 60.88ZM323.692 57.112C323.692 56.856 323.556 56.656 323.284 56.512C323.028 56.368 322.724 56.296 322.372 56.296C321.764 56.296 321.18 56.496 320.62 56.896C320.06 57.296 319.588 57.776 319.204 58.336C318.836 58.896 318.596 59.392 318.484 59.824C319.22 59.744 319.996 59.536 320.812 59.2C321.628 58.864 322.308 58.496 322.852 58.096C323.412 57.696 323.692 57.368 323.692 57.112ZM337.801 65.464C337.817 65.576 337.881 65.696 337.993 65.824C338.105 65.936 338.161 66.032 338.161 66.112C338.161 66.304 338.081 66.528 337.921 66.784C337.761 67.024 337.601 67.144 337.441 67.144C337.169 67.144 336.961 66.976 336.817 66.64C336.673 66.304 336.601 65.912 336.601 65.464C336.601 65.08 336.625 63.928 336.673 62.008L336.697 61.096C336.697 60.728 336.601 60.464 336.409 60.304C335.689 61.52 335.017 62.576 334.393 63.472C333.769 64.368 332.977 65.216 332.017 66.016C331.057 66.8 330.049 67.192 328.993 67.192C328.481 67.192 328.081 67.032 327.793 66.712C327.521 66.392 327.385 65.976 327.385 65.464C327.385 64.824 327.673 63.952 328.249 62.848C328.825 61.728 329.561 60.6 330.457 59.464C331.353 58.312 332.249 57.368 333.145 56.632C333.737 56.152 334.209 55.832 334.561 55.672C334.913 55.496 335.225 55.408 335.497 55.408C335.753 55.408 336.017 55.488 336.289 55.648C336.561 55.808 336.793 56.032 336.985 56.32C337.177 56.608 337.273 56.936 337.273 57.304C337.273 57.8 337.137 58.272 336.865 58.72L337.273 58.6C337.449 58.6 337.553 58.816 337.585 59.248C337.601 59.504 337.617 60.024 337.633 60.808C337.665 61.592 337.689 62.24 337.705 62.752C337.721 63.28 337.737 63.792 337.753 64.288C337.769 64.784 337.785 65.176 337.801 65.464ZM329.329 65.896C330.193 65.896 331.025 65.576 331.825 64.936C332.625 64.296 333.337 63.536 333.961 62.656C334.601 61.76 335.305 60.664 336.073 59.368C336.265 58.888 336.361 58.368 336.361 57.808C336.361 57.472 336.257 57.184 336.049 56.944C335.857 56.688 335.593 56.56 335.257 56.56C334.857 56.56 334.345 56.832 333.721 57.376C333.001 57.984 332.241 58.8 331.441 59.824C330.641 60.832 329.977 61.832 329.449 62.824C328.921 63.816 328.657 64.6 328.657 65.176C328.657 65.656 328.881 65.896 329.329 65.896ZM342.896 66.352C342.896 66.512 342.792 66.64 342.584 66.736C342.376 66.832 342.144 66.88 341.888 66.88C341.696 66.88 341.512 66.656 341.336 66.208C341.176 65.744 341.096 65.048 341.096 64.12C341.112 62.312 341.136 60.128 341.168 57.568C341.216 55.008 341.256 53.08 341.288 51.784C341.304 51.32 341.384 50.888 341.528 50.488C341.688 50.088 341.96 49.888 342.344 49.888C342.472 49.888 342.552 49.96 342.584 50.104C342.632 50.232 342.656 50.488 342.656 50.872C342.656 50.888 342.648 50.944 342.632 51.04C342.632 51.12 342.632 51.272 342.632 51.496C342.344 55.704 342.2 59.808 342.2 63.808C342.2 64.32 342.312 64.864 342.536 65.44C342.776 66.016 342.896 66.32 342.896 66.352ZM346.956 51.976C346.956 52.216 346.692 52.336 346.164 52.336C345.892 52.336 345.612 52.224 345.324 52C345.052 51.776 344.916 51.592 344.916 51.448C344.916 51.272 344.996 51.104 345.156 50.944C345.332 50.784 345.508 50.704 345.684 50.704C345.684 50.704 345.74 50.728 345.852 50.776C345.98 50.808 346.124 50.912 346.284 51.088C346.412 51.216 346.556 51.384 346.716 51.592C346.876 51.8 346.956 51.928 346.956 51.976ZM347.556 67.072C347.556 67.232 347.484 67.352 347.34 67.432C347.212 67.528 347.06 67.568 346.884 67.552C346.66 67.536 346.492 67.176 346.38 66.472C346.284 65.768 346.18 64.432 346.068 62.464C346.004 61.168 345.948 59.904 345.9 58.672C345.852 57.424 345.82 56.464 345.804 55.792C345.804 55.616 345.828 55.488 345.876 55.408C345.94 55.312 346.052 55.264 346.212 55.264C346.58 55.264 346.812 55.416 346.908 55.72C347.004 56.024 347.052 56.608 347.052 57.472L347.028 60.304C347.028 61.92 347.076 63.216 347.172 64.192C347.172 64.24 347.244 64.752 347.388 65.728C347.5 66.4 347.556 66.848 347.556 67.072ZM361.231 57.064C361.231 57.336 361.111 57.544 360.871 57.688C360.647 57.832 360.231 57.944 359.623 58.024C358.151 58.28 357.327 58.424 357.151 58.456L355.591 58.72C355.591 59.552 355.599 60.424 355.615 61.336C355.647 62.248 355.687 63.048 355.735 63.736C355.799 64.664 355.911 65.376 356.071 65.872C356.231 66.368 356.319 66.648 356.335 66.712C356.335 66.872 356.231 67.016 356.023 67.144C355.831 67.288 355.647 67.36 355.471 67.36C355.375 67.36 355.295 67.328 355.231 67.264C355.167 67.216 355.111 67.128 355.063 67C354.967 66.776 354.871 66.36 354.775 65.752C354.695 65.144 354.631 64.472 354.583 63.736C354.535 63.08 354.495 62.32 354.463 61.456C354.447 60.576 354.439 59.728 354.439 58.912C353.543 59.056 352.623 59.232 351.679 59.44C350.831 59.616 350.327 59.704 350.167 59.704C349.975 59.704 349.791 59.648 349.615 59.536C349.455 59.424 349.375 59.272 349.375 59.08C349.375 58.872 349.447 58.736 349.591 58.672C349.735 58.608 349.975 58.576 350.311 58.576C350.551 58.576 350.903 58.536 351.367 58.456C351.831 58.36 352.127 58.296 352.255 58.264C353.327 58.056 354.055 57.92 354.439 57.856C354.439 57.52 354.423 57.08 354.391 56.536C354.359 55.8 354.343 55.24 354.343 54.856C354.343 54.232 354.359 53.752 354.391 53.416C354.439 53.064 354.519 52.752 354.631 52.48C354.759 52.16 354.999 52 355.351 52C355.495 52 355.591 52.024 355.639 52.072C355.687 52.12 355.711 52.208 355.711 52.336C355.711 52.432 355.671 52.712 355.591 53.176C355.511 53.64 355.471 54.256 355.471 55.024C355.471 55.616 355.487 56.28 355.519 57.016L355.543 57.664C356.263 57.552 357.687 57.256 359.815 56.776C359.943 56.744 360.047 56.632 360.127 56.44C360.223 56.248 360.319 56.152 360.415 56.152C360.591 56.152 360.767 56.256 360.943 56.464C361.135 56.656 361.231 56.856 361.231 57.064ZM370.402 56.392C370.402 56.76 370.314 57.56 370.138 58.792C369.946 60.2 369.842 60.992 369.826 61.168C369.618 63.136 369.466 64.64 369.37 65.68C369.29 66.704 369.25 67.632 369.25 68.464C369.25 69.152 369.298 69.696 369.394 70.096C369.506 70.496 369.618 70.808 369.73 71.032C369.858 71.272 369.922 71.416 369.922 71.464C369.922 71.608 369.794 71.736 369.538 71.848C369.282 71.96 369.018 72.016 368.746 72.016C368.538 72.016 368.37 71.736 368.242 71.176C368.13 70.616 368.074 69.744 368.074 68.56C368.074 67.664 368.162 66.456 368.338 64.936L368.698 61.624C368.266 62.456 367.73 63.256 367.09 64.024C366.466 64.776 365.818 65.152 365.146 65.152C364.522 65.152 363.962 64.608 363.466 63.52C362.97 62.432 362.578 61.2 362.29 59.824C362.018 58.448 361.882 57.44 361.882 56.8C361.882 56.4 362.002 56.2 362.242 56.2C362.594 56.2 362.818 56.528 362.914 57.184C363.522 61.632 364.37 63.856 365.458 63.856C365.89 63.856 366.266 63.688 366.586 63.352C366.922 63 367.314 62.464 367.762 61.744C367.97 61.408 368.194 60.96 368.434 60.4C368.674 59.84 368.858 59.376 368.986 59.008L369.154 56.584C369.186 56.216 369.234 55.96 369.298 55.816C369.362 55.656 369.49 55.576 369.682 55.576C369.842 55.576 370.002 55.672 370.162 55.864C370.322 56.04 370.402 56.216 370.402 56.392ZM374.742 52.072C374.742 52.12 374.71 52.528 374.646 53.296C374.406 55.648 374.286 58 374.286 60.352C374.286 60.864 374.318 61.384 374.382 61.912C374.446 62.44 374.478 62.752 374.478 62.848C374.478 63.232 374.318 63.424 373.998 63.424C373.886 63.424 373.766 63.296 373.638 63.04C373.51 62.768 373.398 62.424 373.302 62.008C373.222 61.576 373.182 61.128 373.182 60.664C373.182 59.384 373.246 56.824 373.374 52.984C373.39 52.52 373.47 52.088 373.614 51.688C373.774 51.288 374.046 51.088 374.43 51.088C374.558 51.088 374.638 51.16 374.67 51.304C374.718 51.432 374.742 51.688 374.742 52.072ZM375.558 67.24C375.558 67.48 375.294 67.6 374.766 67.6C374.462 67.6 374.214 67.504 374.022 67.312C373.83 67.136 373.694 66.936 373.614 66.712C373.534 66.472 373.494 66.288 373.494 66.16C373.494 65.984 373.574 65.816 373.734 65.656C373.91 65.496 374.086 65.416 374.262 65.416C374.374 65.416 374.462 65.464 374.526 65.56C374.59 65.656 374.662 65.792 374.742 65.968C374.87 66.256 374.998 66.448 375.126 66.544C375.254 66.64 375.358 66.768 375.438 66.928C375.518 67.072 375.558 67.176 375.558 67.24Z" fill="black"/>
<path d="M66.5887 58.9392C23.4968 60.7293 19.9093 5.89641 19.9093 5.89641M19.9093 5.89641L3.36147 30.034M19.9093 5.89641L50.5208 11.9095" stroke="black"/>
</svg>
