<svg width="315" height="448" viewBox="0 0 315 448" fill="none" xmlns="http://www.w3.org/2000/svg">
<rect x="100.707" y="86.4971" width="69" height="69" transform="rotate(-45 100.707 86.4971)" stroke="#E0E2E7"/>
<rect x="100.707" y="224.497" width="69" height="69" transform="rotate(-45 100.707 224.497)" stroke="#E0E2E7"/>
<rect x="129.707" y="155.497" width="69" height="69" transform="rotate(-45 129.707 155.497)" stroke="#E0E2E7"/>
<rect x="129.707" y="293.497" width="69" height="69" transform="rotate(-45 129.707 293.497)" stroke="#E0E2E7"/>
<rect x="100.707" y="362.498" width="69" height="69" transform="rotate(-45 100.707 362.498)" stroke="#E0E2E7"/>
<g clip-path="url(#clip0_195_347)">
<path d="M145.597 96.1851C145.597 96.4922 145.688 96.793 145.858 97.0489L146.693 98.3033C146.835 98.5177 147.029 98.6936 147.256 98.8152C147.483 98.9369 147.736 99.0005 147.994 99.0005H151.007C151.264 99.0005 151.518 98.9369 151.745 98.8152C151.972 98.6936 152.165 98.5177 152.308 98.3033L153.142 97.0489C153.312 96.793 153.403 96.4925 153.404 96.1851L153.406 94.3125H145.594L145.597 96.1851ZM140.906 82.5938C140.906 84.7603 141.709 86.7369 143.033 88.2471C143.84 89.1675 145.102 91.0904 145.583 92.7124C145.584 92.7251 145.586 92.7378 145.588 92.7505H153.412C153.414 92.7378 153.416 92.7256 153.417 92.7124C153.898 91.0904 155.16 89.1675 155.967 88.2471C157.291 86.7369 158.094 84.7603 158.094 82.5938C158.094 77.8384 154.232 73.9854 149.473 74C144.492 74.0152 140.906 78.0513 140.906 82.5938ZM149.5 78.6875C147.346 78.6875 145.594 80.44 145.594 82.5938C145.594 83.0254 145.244 83.375 144.812 83.375C144.381 83.375 144.031 83.0254 144.031 82.5938C144.031 79.5782 146.484 77.125 149.5 77.125C149.932 77.125 150.281 77.4747 150.281 77.9063C150.281 78.3379 149.932 78.6875 149.5 78.6875Z" fill="black"/>
</g>
<path d="M9 161H5.40909V149.364H9.15909C10.2879 149.364 11.2538 149.597 12.0568 150.062C12.8598 150.525 13.4754 151.189 13.9034 152.057C14.3314 152.92 14.5455 153.955 14.5455 155.159C14.5455 156.371 14.3295 157.415 13.8977 158.29C13.4659 159.161 12.8371 159.831 12.0114 160.301C11.1856 160.767 10.1818 161 9 161ZM6.81818 159.75H8.90909C9.87121 159.75 10.6686 159.564 11.3011 159.193C11.9337 158.822 12.4053 158.294 12.7159 157.608C13.0265 156.922 13.1818 156.106 13.1818 155.159C13.1818 154.22 13.0284 153.411 12.7216 152.733C12.4148 152.051 11.9564 151.528 11.3466 151.165C10.7367 150.797 9.97727 150.614 9.06818 150.614H6.81818V159.75ZM19.2955 161.205C18.7424 161.205 18.2405 161.1 17.7898 160.892C17.339 160.68 16.9811 160.375 16.7159 159.977C16.4508 159.576 16.3182 159.091 16.3182 158.523C16.3182 158.023 16.4167 157.617 16.6136 157.307C16.8106 156.992 17.0739 156.746 17.4034 156.568C17.733 156.39 18.0966 156.258 18.4943 156.17C18.8958 156.08 19.2992 156.008 19.7045 155.955C20.2348 155.886 20.6648 155.835 20.9943 155.801C21.3277 155.763 21.5701 155.701 21.7216 155.614C21.8769 155.527 21.9545 155.375 21.9545 155.159V155.114C21.9545 154.553 21.8011 154.117 21.4943 153.807C21.1913 153.496 20.7311 153.341 20.1136 153.341C19.4735 153.341 18.9716 153.481 18.608 153.761C18.2443 154.042 17.9886 154.341 17.8409 154.659L16.5682 154.205C16.7955 153.674 17.0985 153.261 17.4773 152.966C17.8598 152.667 18.2765 152.458 18.7273 152.341C19.1818 152.22 19.6288 152.159 20.0682 152.159C20.3485 152.159 20.6705 152.193 21.0341 152.261C21.4015 152.326 21.7557 152.46 22.0966 152.665C22.4413 152.869 22.7273 153.178 22.9545 153.591C23.1818 154.004 23.2955 154.557 23.2955 155.25V161H21.9545V159.818H21.8864C21.7955 160.008 21.6439 160.21 21.4318 160.426C21.2197 160.642 20.9375 160.826 20.5852 160.977C20.233 161.129 19.803 161.205 19.2955 161.205ZM19.5 160C20.0303 160 20.4773 159.896 20.8409 159.688C21.2083 159.479 21.4848 159.21 21.6705 158.881C21.8598 158.551 21.9545 158.205 21.9545 157.841V156.614C21.8977 156.682 21.7727 156.744 21.5795 156.801C21.3902 156.854 21.1705 156.902 20.9205 156.943C20.6742 156.981 20.4337 157.015 20.1989 157.045C19.9678 157.072 19.7803 157.095 19.6364 157.114C19.2879 157.159 18.9621 157.233 18.6591 157.335C18.3598 157.434 18.1174 157.583 17.9318 157.784C17.75 157.981 17.6591 158.25 17.6591 158.591C17.6591 159.057 17.8314 159.409 18.1761 159.648C18.5246 159.883 18.9659 160 19.5 160ZM29.5384 152.273V153.409H25.0156V152.273H29.5384ZM26.3338 150.182H27.6747V158.5C27.6747 158.879 27.7296 159.163 27.8395 159.352C27.9531 159.538 28.0971 159.663 28.2713 159.727C28.4493 159.788 28.6368 159.818 28.8338 159.818C28.9815 159.818 29.1027 159.811 29.1974 159.795C29.2921 159.777 29.3679 159.761 29.4247 159.75L29.6974 160.955C29.6065 160.989 29.4796 161.023 29.3168 161.057C29.1539 161.095 28.9474 161.114 28.6974 161.114C28.3187 161.114 27.9474 161.032 27.5838 160.869C27.224 160.706 26.9247 160.458 26.6861 160.125C26.4512 159.792 26.3338 159.371 26.3338 158.864V150.182ZM34.1236 161.205C33.5705 161.205 33.0687 161.1 32.6179 160.892C32.1671 160.68 31.8092 160.375 31.544 159.977C31.2789 159.576 31.1463 159.091 31.1463 158.523C31.1463 158.023 31.2448 157.617 31.4418 157.307C31.6387 156.992 31.902 156.746 32.2315 156.568C32.5611 156.39 32.9247 156.258 33.3224 156.17C33.724 156.08 34.1274 156.008 34.5327 155.955C35.063 155.886 35.4929 155.835 35.8224 155.801C36.1558 155.763 36.3982 155.701 36.5497 155.614C36.705 155.527 36.7827 155.375 36.7827 155.159V155.114C36.7827 154.553 36.6293 154.117 36.3224 153.807C36.0194 153.496 35.5592 153.341 34.9418 153.341C34.3016 153.341 33.7997 153.481 33.4361 153.761C33.0724 154.042 32.8168 154.341 32.669 154.659L31.3963 154.205C31.6236 153.674 31.9266 153.261 32.3054 152.966C32.688 152.667 33.1046 152.458 33.5554 152.341C34.0099 152.22 34.4569 152.159 34.8963 152.159C35.1766 152.159 35.4986 152.193 35.8622 152.261C36.2296 152.326 36.5838 152.46 36.9247 152.665C37.2694 152.869 37.5554 153.178 37.7827 153.591C38.0099 154.004 38.1236 154.557 38.1236 155.25V161H36.7827V159.818H36.7145C36.6236 160.008 36.4721 160.21 36.2599 160.426C36.0478 160.642 35.7656 160.826 35.4134 160.977C35.0611 161.129 34.6312 161.205 34.1236 161.205ZM34.3281 160C34.8584 160 35.3054 159.896 35.669 159.688C36.0365 159.479 36.313 159.21 36.4986 158.881C36.688 158.551 36.7827 158.205 36.7827 157.841V156.614C36.7259 156.682 36.6009 156.744 36.4077 156.801C36.2183 156.854 35.9986 156.902 35.7486 156.943C35.5024 156.981 35.2618 157.015 35.027 157.045C34.7959 157.072 34.6084 157.095 34.4645 157.114C34.116 157.159 33.7902 157.233 33.4872 157.335C33.188 157.434 32.9455 157.583 32.7599 157.784C32.5781 157.981 32.4872 158.25 32.4872 158.591C32.4872 159.057 32.6596 159.409 33.0043 159.648C33.3527 159.883 33.794 160 34.3281 160ZM53.2074 153C53.0824 152.617 52.9176 152.275 52.7131 151.972C52.5123 151.665 52.2718 151.403 51.9915 151.188C51.715 150.972 51.4006 150.807 51.0483 150.693C50.696 150.58 50.3097 150.523 49.8892 150.523C49.1998 150.523 48.5729 150.701 48.0085 151.057C47.4441 151.413 46.9953 151.938 46.6619 152.631C46.3286 153.324 46.1619 154.174 46.1619 155.182C46.1619 156.189 46.3305 157.04 46.6676 157.733C47.0047 158.426 47.4612 158.951 48.0369 159.307C48.6127 159.663 49.2604 159.841 49.9801 159.841C50.6468 159.841 51.2339 159.699 51.7415 159.415C52.2528 159.127 52.6506 158.722 52.9347 158.199C53.2225 157.672 53.3665 157.053 53.3665 156.341L53.7983 156.432H50.2983V155.182H54.7301V156.432C54.7301 157.39 54.5256 158.223 54.1165 158.932C53.7112 159.64 53.1506 160.189 52.4347 160.58C51.7225 160.966 50.9044 161.159 49.9801 161.159C48.9498 161.159 48.0445 160.917 47.2642 160.432C46.4877 159.947 45.8816 159.258 45.446 158.364C45.0142 157.47 44.7983 156.409 44.7983 155.182C44.7983 154.261 44.9214 153.434 45.1676 152.699C45.4176 151.96 45.7699 151.331 46.2244 150.812C46.679 150.294 47.2169 149.896 47.8381 149.619C48.4593 149.343 49.143 149.205 49.8892 149.205C50.5028 149.205 51.0748 149.297 51.6051 149.483C52.1392 149.665 52.6146 149.924 53.0312 150.261C53.4517 150.595 53.8021 150.994 54.0824 151.46C54.3627 151.922 54.5559 152.436 54.6619 153H53.2074ZM59.5298 161.205C58.9768 161.205 58.4749 161.1 58.0241 160.892C57.5734 160.68 57.2154 160.375 56.9503 159.977C56.6851 159.576 56.5526 159.091 56.5526 158.523C56.5526 158.023 56.651 157.617 56.848 157.307C57.045 156.992 57.3082 156.746 57.6378 156.568C57.9673 156.39 58.331 156.258 58.7287 156.17C59.1302 156.08 59.5336 156.008 59.9389 155.955C60.4692 155.886 60.8991 155.835 61.2287 155.801C61.562 155.763 61.8045 155.701 61.956 155.614C62.1113 155.527 62.1889 155.375 62.1889 155.159V155.114C62.1889 154.553 62.0355 154.117 61.7287 153.807C61.4257 153.496 60.9654 153.341 60.348 153.341C59.7079 153.341 59.206 153.481 58.8423 153.761C58.4787 154.042 58.223 154.341 58.0753 154.659L56.8026 154.205C57.0298 153.674 57.3329 153.261 57.7116 152.966C58.0942 152.667 58.5109 152.458 58.9616 152.341C59.4162 152.22 59.8632 152.159 60.3026 152.159C60.5829 152.159 60.9048 152.193 61.2685 152.261C61.6359 152.326 61.9901 152.46 62.331 152.665C62.6757 152.869 62.9616 153.178 63.1889 153.591C63.4162 154.004 63.5298 154.557 63.5298 155.25V161H62.1889V159.818H62.1207C62.0298 160.008 61.8783 160.21 61.6662 160.426C61.4541 160.642 61.1719 160.826 60.8196 160.977C60.4673 161.129 60.0374 161.205 59.5298 161.205ZM59.7344 160C60.2647 160 60.7116 159.896 61.0753 159.688C61.4427 159.479 61.7192 159.21 61.9048 158.881C62.0942 158.551 62.1889 158.205 62.1889 157.841V156.614C62.1321 156.682 62.0071 156.744 61.8139 156.801C61.6245 156.854 61.4048 156.902 61.1548 156.943C60.9086 156.981 60.6681 157.015 60.4332 157.045C60.2022 157.072 60.0147 157.095 59.8707 157.114C59.5223 157.159 59.1965 157.233 58.8935 157.335C58.5942 157.434 58.3518 157.583 58.1662 157.784C57.9844 157.981 57.8935 158.25 57.8935 158.591C57.8935 159.057 58.0658 159.409 58.4105 159.648C58.759 159.883 59.2003 160 59.7344 160ZM69.7727 152.273V153.409H65.25V152.273H69.7727ZM66.5682 150.182H67.9091V158.5C67.9091 158.879 67.964 159.163 68.0739 159.352C68.1875 159.538 68.3314 159.663 68.5057 159.727C68.6837 159.788 68.8712 159.818 69.0682 159.818C69.2159 159.818 69.3371 159.811 69.4318 159.795C69.5265 159.777 69.6023 159.761 69.6591 159.75L69.9318 160.955C69.8409 160.989 69.714 161.023 69.5511 161.057C69.3883 161.095 69.1818 161.114 68.9318 161.114C68.553 161.114 68.1818 161.032 67.8182 160.869C67.4583 160.706 67.1591 160.458 66.9205 160.125C66.6856 159.792 66.5682 159.371 66.5682 158.864V150.182ZM73.3182 155.75V161H71.9773V149.364H73.3182V153.636H73.4318C73.6364 153.186 73.9432 152.828 74.3523 152.562C74.7652 152.294 75.3144 152.159 76 152.159C76.5947 152.159 77.1155 152.278 77.5625 152.517C78.0095 152.752 78.3561 153.114 78.6023 153.602C78.8523 154.087 78.9773 154.705 78.9773 155.455V161H77.6364V155.545C77.6364 154.852 77.4564 154.316 77.0966 153.938C76.7405 153.555 76.2462 153.364 75.6136 153.364C75.1742 153.364 74.7803 153.456 74.4318 153.642C74.0871 153.828 73.8144 154.098 73.6136 154.455C73.4167 154.811 73.3182 155.242 73.3182 155.75ZM85.0895 161.182C84.2486 161.182 83.5232 160.996 82.9134 160.625C82.3073 160.25 81.8395 159.727 81.5099 159.057C81.1842 158.383 81.0213 157.598 81.0213 156.705C81.0213 155.811 81.1842 155.023 81.5099 154.341C81.8395 153.655 82.2978 153.121 82.8849 152.739C83.4759 152.352 84.1652 152.159 84.9531 152.159C85.4077 152.159 85.8565 152.235 86.2997 152.386C86.7429 152.538 87.1463 152.784 87.5099 153.125C87.8736 153.462 88.1634 153.909 88.3793 154.466C88.5952 155.023 88.7031 155.708 88.7031 156.523V157.091H81.9759V155.932H87.3395C87.3395 155.439 87.241 155 87.044 154.614C86.8509 154.227 86.5743 153.922 86.2145 153.699C85.8584 153.475 85.438 153.364 84.9531 153.364C84.419 153.364 83.9569 153.496 83.5668 153.761C83.1804 154.023 82.883 154.364 82.6747 154.784C82.4664 155.205 82.3622 155.655 82.3622 156.136V156.909C82.3622 157.568 82.4759 158.127 82.7031 158.585C82.9342 159.04 83.2543 159.386 83.6634 159.625C84.0724 159.86 84.5478 159.977 85.0895 159.977C85.4418 159.977 85.7599 159.928 86.044 159.83C86.3319 159.727 86.58 159.576 86.7884 159.375C86.9967 159.17 87.1577 158.917 87.2713 158.614L88.5668 158.977C88.4304 159.417 88.2012 159.803 87.8793 160.136C87.5573 160.466 87.1596 160.723 86.6861 160.909C86.2126 161.091 85.6804 161.182 85.0895 161.182ZM90.7429 161V152.273H92.0384V153.591H92.1293C92.2884 153.159 92.5762 152.809 92.9929 152.54C93.4096 152.271 93.8793 152.136 94.402 152.136C94.5005 152.136 94.6236 152.138 94.7713 152.142C94.919 152.146 95.0308 152.152 95.1065 152.159V153.523C95.0611 153.511 94.9569 153.494 94.794 153.472C94.6349 153.445 94.4664 153.432 94.2884 153.432C93.8641 153.432 93.4853 153.521 93.152 153.699C92.8224 153.873 92.5611 154.116 92.3679 154.426C92.1785 154.733 92.0838 155.083 92.0838 155.477V161H90.7429ZM96.696 161V152.273H98.0369V161H96.696ZM97.3778 150.818C97.1165 150.818 96.8911 150.729 96.7017 150.551C96.5161 150.373 96.4233 150.159 96.4233 149.909C96.4233 149.659 96.5161 149.445 96.7017 149.267C96.8911 149.089 97.1165 149 97.3778 149C97.6392 149 97.8627 149.089 98.0483 149.267C98.2377 149.445 98.3324 149.659 98.3324 149.909C98.3324 150.159 98.2377 150.373 98.0483 150.551C97.8627 150.729 97.6392 150.818 97.3778 150.818ZM101.834 155.75V161H100.493V152.273H101.788V153.636H101.902C102.107 153.193 102.417 152.837 102.834 152.568C103.25 152.295 103.788 152.159 104.447 152.159C105.038 152.159 105.555 152.28 105.999 152.523C106.442 152.761 106.786 153.125 107.033 153.614C107.279 154.098 107.402 154.712 107.402 155.455V161H106.061V155.545C106.061 154.86 105.883 154.326 105.527 153.943C105.171 153.557 104.682 153.364 104.061 153.364C103.633 153.364 103.25 153.456 102.913 153.642C102.58 153.828 102.317 154.098 102.124 154.455C101.93 154.811 101.834 155.242 101.834 155.75ZM113.375 164.455C112.727 164.455 112.17 164.371 111.705 164.205C111.239 164.042 110.85 163.826 110.54 163.557C110.233 163.292 109.989 163.008 109.807 162.705L110.875 161.955C110.996 162.114 111.15 162.295 111.335 162.5C111.521 162.708 111.775 162.888 112.097 163.04C112.422 163.195 112.848 163.273 113.375 163.273C114.08 163.273 114.661 163.102 115.119 162.761C115.578 162.42 115.807 161.886 115.807 161.159V159.386H115.693C115.595 159.545 115.455 159.742 115.273 159.977C115.095 160.208 114.837 160.415 114.5 160.597C114.167 160.775 113.716 160.864 113.148 160.864C112.443 160.864 111.811 160.697 111.25 160.364C110.693 160.03 110.252 159.545 109.926 158.909C109.604 158.273 109.443 157.5 109.443 156.591C109.443 155.697 109.6 154.919 109.915 154.256C110.229 153.589 110.667 153.074 111.227 152.71C111.788 152.343 112.436 152.159 113.17 152.159C113.739 152.159 114.189 152.254 114.523 152.443C114.86 152.629 115.117 152.841 115.295 153.08C115.477 153.314 115.617 153.508 115.716 153.659H115.852V152.273H117.148V161.25C117.148 162 116.977 162.61 116.636 163.08C116.299 163.553 115.845 163.9 115.273 164.119C114.705 164.343 114.072 164.455 113.375 164.455ZM113.33 159.659C113.867 159.659 114.322 159.536 114.693 159.29C115.064 159.044 115.347 158.689 115.54 158.227C115.733 157.765 115.83 157.212 115.83 156.568C115.83 155.939 115.735 155.384 115.545 154.903C115.356 154.422 115.076 154.045 114.705 153.773C114.333 153.5 113.875 153.364 113.33 153.364C112.761 153.364 112.288 153.508 111.909 153.795C111.534 154.083 111.252 154.47 111.062 154.955C110.877 155.439 110.784 155.977 110.784 156.568C110.784 157.174 110.879 157.71 111.068 158.176C111.261 158.638 111.545 159.002 111.92 159.267C112.299 159.528 112.769 159.659 113.33 159.659Z" fill="black"/>
<path d="M216.773 83.2727C216.705 82.697 216.428 82.25 215.943 81.9318C215.458 81.6136 214.864 81.4545 214.159 81.4545C213.644 81.4545 213.193 81.5379 212.807 81.7045C212.424 81.8712 212.125 82.1004 211.909 82.392C211.697 82.6837 211.591 83.0152 211.591 83.3864C211.591 83.697 211.665 83.964 211.812 84.1875C211.964 84.4072 212.157 84.5909 212.392 84.7386C212.627 84.8826 212.873 85.0019 213.131 85.0966C213.388 85.1875 213.625 85.2614 213.841 85.3182L215.023 85.6364C215.326 85.7159 215.663 85.8258 216.034 85.9659C216.409 86.1061 216.767 86.2973 217.108 86.5398C217.453 86.7784 217.737 87.0852 217.96 87.4602C218.184 87.8352 218.295 88.2955 218.295 88.8409C218.295 89.4697 218.131 90.0379 217.801 90.5455C217.475 91.053 216.998 91.4564 216.369 91.7557C215.744 92.0549 214.985 92.2045 214.091 92.2045C213.258 92.2045 212.536 92.0701 211.926 91.8011C211.32 91.5322 210.843 91.1572 210.494 90.6761C210.15 90.1951 209.955 89.6364 209.909 89H211.364C211.402 89.4394 211.549 89.803 211.807 90.0909C212.068 90.375 212.398 90.5871 212.795 90.7273C213.197 90.8636 213.629 90.9318 214.091 90.9318C214.629 90.9318 215.112 90.8447 215.54 90.6705C215.968 90.4924 216.307 90.2462 216.557 89.9318C216.807 89.6136 216.932 89.2424 216.932 88.8182C216.932 88.4318 216.824 88.1174 216.608 87.875C216.392 87.6326 216.108 87.4356 215.756 87.2841C215.403 87.1326 215.023 87 214.614 86.8864L213.182 86.4773C212.273 86.2159 211.553 85.8428 211.023 85.358C210.492 84.8731 210.227 84.2386 210.227 83.4545C210.227 82.803 210.403 82.2348 210.756 81.75C211.112 81.2614 211.589 80.8826 212.188 80.6136C212.79 80.3409 213.462 80.2045 214.205 80.2045C214.955 80.2045 215.621 80.339 216.205 80.608C216.788 80.8731 217.25 81.2367 217.591 81.6989C217.936 82.161 218.117 82.6856 218.136 83.2727H216.773ZM223.976 92.1818C223.188 92.1818 222.497 91.9943 221.902 91.6193C221.311 91.2443 220.849 90.7197 220.516 90.0455C220.186 89.3712 220.021 88.5833 220.021 87.6818C220.021 86.7727 220.186 85.9792 220.516 85.3011C220.849 84.6231 221.311 84.0966 221.902 83.7216C222.497 83.3466 223.188 83.1591 223.976 83.1591C224.764 83.1591 225.453 83.3466 226.044 83.7216C226.639 84.0966 227.101 84.6231 227.43 85.3011C227.764 85.9792 227.93 86.7727 227.93 87.6818C227.93 88.5833 227.764 89.3712 227.43 90.0455C227.101 90.7197 226.639 91.2443 226.044 91.6193C225.453 91.9943 224.764 92.1818 223.976 92.1818ZM223.976 90.9773C224.574 90.9773 225.067 90.8239 225.453 90.517C225.839 90.2102 226.125 89.8068 226.311 89.3068C226.497 88.8068 226.589 88.2652 226.589 87.6818C226.589 87.0985 226.497 86.5549 226.311 86.0511C226.125 85.5473 225.839 85.1402 225.453 84.8295C225.067 84.5189 224.574 84.3636 223.976 84.3636C223.377 84.3636 222.885 84.5189 222.499 84.8295C222.112 85.1402 221.826 85.5473 221.641 86.0511C221.455 86.5549 221.362 87.0985 221.362 87.6818C221.362 88.2652 221.455 88.8068 221.641 89.3068C221.826 89.8068 222.112 90.2102 222.499 90.517C222.885 90.8239 223.377 90.9773 223.976 90.9773ZM233.864 83.2727V84.4091H229.159V83.2727H233.864ZM230.568 92V82.0682C230.568 81.5682 230.686 81.1515 230.92 80.8182C231.155 80.4848 231.46 80.2348 231.835 80.0682C232.21 79.9015 232.606 79.8182 233.023 79.8182C233.352 79.8182 233.621 79.8447 233.83 79.8977C234.038 79.9508 234.193 80 234.295 80.0455L233.909 81.2045C233.841 81.1818 233.746 81.1534 233.625 81.1193C233.508 81.0852 233.352 81.0682 233.159 81.0682C232.716 81.0682 232.396 81.1799 232.199 81.4034C232.006 81.6269 231.909 81.9545 231.909 82.3864V92H230.568ZM239.538 83.2727V84.4091H235.016V83.2727H239.538ZM236.334 81.1818H237.675V89.5C237.675 89.8788 237.73 90.1629 237.839 90.3523C237.953 90.5379 238.097 90.6629 238.271 90.7273C238.449 90.7879 238.637 90.8182 238.834 90.8182C238.982 90.8182 239.103 90.8106 239.197 90.7955C239.292 90.7765 239.368 90.7614 239.425 90.75L239.697 91.9545C239.607 91.9886 239.48 92.0227 239.317 92.0568C239.154 92.0947 238.947 92.1136 238.697 92.1136C238.319 92.1136 237.947 92.0322 237.584 91.8693C237.224 91.7064 236.925 91.4583 236.686 91.125C236.451 90.7917 236.334 90.3712 236.334 89.8636V81.1818ZM243.533 92L240.874 83.2727H242.283L244.169 89.9545H244.26L246.124 83.2727H247.555L249.396 89.9318H249.487L251.374 83.2727H252.783L250.124 92H248.805L246.896 85.2955H246.76L244.851 92H243.533ZM257.124 92.2045C256.571 92.2045 256.069 92.1004 255.618 91.892C255.167 91.6799 254.809 91.375 254.544 90.9773C254.279 90.5758 254.146 90.0909 254.146 89.5227C254.146 89.0227 254.245 88.6174 254.442 88.3068C254.639 87.9924 254.902 87.7462 255.232 87.5682C255.561 87.3902 255.925 87.2576 256.322 87.1705C256.724 87.0795 257.127 87.0076 257.533 86.9545C258.063 86.8864 258.493 86.8352 258.822 86.8011C259.156 86.7633 259.398 86.7008 259.55 86.6136C259.705 86.5265 259.783 86.375 259.783 86.1591V86.1136C259.783 85.553 259.629 85.1174 259.322 84.8068C259.019 84.4962 258.559 84.3409 257.942 84.3409C257.302 84.3409 256.8 84.4811 256.436 84.7614C256.072 85.0417 255.817 85.3409 255.669 85.6591L254.396 85.2045C254.624 84.6742 254.927 84.2614 255.305 83.9659C255.688 83.6667 256.105 83.4583 256.555 83.3409C257.01 83.2197 257.457 83.1591 257.896 83.1591C258.177 83.1591 258.499 83.1932 258.862 83.2614C259.23 83.3258 259.584 83.4602 259.925 83.6648C260.269 83.8693 260.555 84.178 260.783 84.5909C261.01 85.0038 261.124 85.5568 261.124 86.25V92H259.783V90.8182H259.714C259.624 91.0076 259.472 91.2102 259.26 91.4261C259.048 91.642 258.766 91.8258 258.413 91.9773C258.061 92.1288 257.631 92.2045 257.124 92.2045ZM257.328 91C257.858 91 258.305 90.8958 258.669 90.6875C259.036 90.4792 259.313 90.2102 259.499 89.8807C259.688 89.5511 259.783 89.2045 259.783 88.8409V87.6136C259.726 87.6818 259.601 87.7443 259.408 87.8011C259.218 87.8542 258.999 87.9015 258.749 87.9432C258.502 87.9811 258.262 88.0152 258.027 88.0455C257.796 88.072 257.608 88.0947 257.464 88.1136C257.116 88.1591 256.79 88.233 256.487 88.3352C256.188 88.4337 255.946 88.5833 255.76 88.7841C255.578 88.9811 255.487 89.25 255.487 89.5909C255.487 90.0568 255.66 90.4091 256.004 90.6477C256.353 90.8826 256.794 91 257.328 91ZM263.571 92V83.2727H264.866V84.5909H264.957C265.116 84.1591 265.404 83.8087 265.821 83.5398C266.238 83.2708 266.707 83.1364 267.23 83.1364C267.329 83.1364 267.452 83.1383 267.599 83.142C267.747 83.1458 267.859 83.1515 267.935 83.1591V84.5227C267.889 84.5114 267.785 84.4943 267.622 84.4716C267.463 84.4451 267.295 84.4318 267.116 84.4318C266.692 84.4318 266.313 84.5208 265.98 84.6989C265.651 84.8731 265.389 85.1155 265.196 85.4261C265.007 85.733 264.912 86.0833 264.912 86.4773V92H263.571ZM272.918 92.1818C272.077 92.1818 271.351 91.9962 270.741 91.625C270.135 91.25 269.668 90.7273 269.338 90.0568C269.012 89.3826 268.849 88.5985 268.849 87.7045C268.849 86.8106 269.012 86.0227 269.338 85.3409C269.668 84.6553 270.126 84.1212 270.713 83.7386C271.304 83.3523 271.993 83.1591 272.781 83.1591C273.236 83.1591 273.685 83.2348 274.128 83.3864C274.571 83.5379 274.974 83.7841 275.338 84.125C275.702 84.4621 275.991 84.9091 276.207 85.4659C276.423 86.0227 276.531 86.7083 276.531 87.5227V88.0909H269.804V86.9318H275.168C275.168 86.4394 275.069 86 274.872 85.6136C274.679 85.2273 274.402 84.9223 274.043 84.6989C273.687 84.4754 273.266 84.3636 272.781 84.3636C272.247 84.3636 271.785 84.4962 271.395 84.7614C271.009 85.0227 270.711 85.3636 270.503 85.7841C270.295 86.2045 270.19 86.6553 270.19 87.1364V87.9091C270.19 88.5682 270.304 89.1269 270.531 89.5852C270.762 90.0398 271.082 90.3864 271.491 90.625C271.901 90.8598 272.376 90.9773 272.918 90.9773C273.27 90.9773 273.588 90.928 273.872 90.8295C274.16 90.7273 274.408 90.5758 274.616 90.375C274.825 90.1705 274.986 89.9167 275.099 89.6136L276.395 89.9773C276.259 90.4167 276.029 90.803 275.707 91.1364C275.385 91.4659 274.988 91.7235 274.514 91.9091C274.041 92.0909 273.509 92.1818 272.918 92.1818ZM284.662 80.3636V92H283.253V80.3636H284.662ZM290.601 92.1818C289.874 92.1818 289.232 91.9981 288.675 91.6307C288.118 91.2595 287.682 90.7367 287.368 90.0625C287.054 89.3845 286.896 88.5833 286.896 87.6591C286.896 86.7424 287.054 85.947 287.368 85.2727C287.682 84.5985 288.12 84.0777 288.68 83.7102C289.241 83.3428 289.889 83.1591 290.624 83.1591C291.192 83.1591 291.641 83.2538 291.97 83.4432C292.304 83.6288 292.557 83.8409 292.732 84.0795C292.91 84.3144 293.048 84.5076 293.146 84.6591H293.26V80.3636H294.601V92H293.305V90.6591H293.146C293.048 90.8182 292.908 91.0189 292.726 91.2614C292.544 91.5 292.285 91.714 291.947 91.9034C291.61 92.089 291.161 92.1818 290.601 92.1818ZM290.783 90.9773C291.321 90.9773 291.775 90.8371 292.146 90.5568C292.518 90.2727 292.8 89.8807 292.993 89.3807C293.186 88.8769 293.283 88.2955 293.283 87.6364C293.283 86.9848 293.188 86.4148 292.999 85.9261C292.809 85.4337 292.529 85.0511 292.158 84.7784C291.786 84.5019 291.328 84.3636 290.783 84.3636C290.214 84.3636 289.741 84.5095 289.362 84.8011C288.987 85.089 288.705 85.4811 288.516 85.9773C288.33 86.4697 288.237 87.0227 288.237 87.6364C288.237 88.2576 288.332 88.822 288.521 89.3295C288.714 89.8333 288.999 90.2348 289.374 90.5341C289.752 90.8295 290.222 90.9773 290.783 90.9773ZM300.902 92.1818C300.061 92.1818 299.336 91.9962 298.726 91.625C298.12 91.25 297.652 90.7273 297.322 90.0568C296.997 89.3826 296.834 88.5985 296.834 87.7045C296.834 86.8106 296.997 86.0227 297.322 85.3409C297.652 84.6553 298.11 84.1212 298.697 83.7386C299.288 83.3523 299.978 83.1591 300.766 83.1591C301.22 83.1591 301.669 83.2348 302.112 83.3864C302.555 83.5379 302.959 83.7841 303.322 84.125C303.686 84.4621 303.976 84.9091 304.192 85.4659C304.408 86.0227 304.516 86.7083 304.516 87.5227V88.0909H297.788V86.9318H303.152C303.152 86.4394 303.054 86 302.857 85.6136C302.663 85.2273 302.387 84.9223 302.027 84.6989C301.671 84.4754 301.25 84.3636 300.766 84.3636C300.232 84.3636 299.769 84.4962 299.379 84.7614C298.993 85.0227 298.696 85.3636 298.487 85.7841C298.279 86.2045 298.175 86.6553 298.175 87.1364V87.9091C298.175 88.5682 298.288 89.1269 298.516 89.5852C298.747 90.0398 299.067 90.3864 299.476 90.625C299.885 90.8598 300.36 90.9773 300.902 90.9773C301.254 90.9773 301.572 90.928 301.857 90.8295C302.144 90.7273 302.393 90.5758 302.601 90.375C302.809 90.1705 302.97 89.9167 303.084 89.6136L304.379 89.9773C304.243 90.4167 304.014 90.803 303.692 91.1364C303.37 91.4659 302.972 91.7235 302.499 91.9091C302.025 92.0909 301.493 92.1818 300.902 92.1818ZM309.124 92.2045C308.571 92.2045 308.069 92.1004 307.618 91.892C307.167 91.6799 306.809 91.375 306.544 90.9773C306.279 90.5758 306.146 90.0909 306.146 89.5227C306.146 89.0227 306.245 88.6174 306.442 88.3068C306.639 87.9924 306.902 87.7462 307.232 87.5682C307.561 87.3902 307.925 87.2576 308.322 87.1705C308.724 87.0795 309.127 87.0076 309.533 86.9545C310.063 86.8864 310.493 86.8352 310.822 86.8011C311.156 86.7633 311.398 86.7008 311.55 86.6136C311.705 86.5265 311.783 86.375 311.783 86.1591V86.1136C311.783 85.553 311.629 85.1174 311.322 84.8068C311.019 84.4962 310.559 84.3409 309.942 84.3409C309.302 84.3409 308.8 84.4811 308.436 84.7614C308.072 85.0417 307.817 85.3409 307.669 85.6591L306.396 85.2045C306.624 84.6742 306.927 84.2614 307.305 83.9659C307.688 83.6667 308.105 83.4583 308.555 83.3409C309.01 83.2197 309.457 83.1591 309.896 83.1591C310.177 83.1591 310.499 83.1932 310.862 83.2614C311.23 83.3258 311.584 83.4602 311.925 83.6648C312.269 83.8693 312.555 84.178 312.783 84.5909C313.01 85.0038 313.124 85.5568 313.124 86.25V92H311.783V90.8182H311.714C311.624 91.0076 311.472 91.2102 311.26 91.4261C311.048 91.642 310.766 91.8258 310.413 91.9773C310.061 92.1288 309.631 92.2045 309.124 92.2045ZM309.328 91C309.858 91 310.305 90.8958 310.669 90.6875C311.036 90.4792 311.313 90.2102 311.499 89.8807C311.688 89.5511 311.783 89.2045 311.783 88.8409V87.6136C311.726 87.6818 311.601 87.7443 311.408 87.8011C311.218 87.8542 310.999 87.9015 310.749 87.9432C310.502 87.9811 310.262 88.0152 310.027 88.0455C309.796 88.072 309.608 88.0947 309.464 88.1136C309.116 88.1591 308.79 88.233 308.487 88.3352C308.188 88.4337 307.946 88.5833 307.76 88.7841C307.578 88.9811 307.487 89.25 307.487 89.5909C307.487 90.0568 307.66 90.4091 308.004 90.6477C308.353 90.8826 308.794 91 309.328 91Z" fill="black"/>
<path d="M210.409 230V218.364H214.341C215.254 218.364 216 218.528 216.58 218.858C217.163 219.184 217.595 219.625 217.875 220.182C218.155 220.739 218.295 221.36 218.295 222.045C218.295 222.731 218.155 223.354 217.875 223.915C217.598 224.475 217.17 224.922 216.591 225.256C216.011 225.585 215.269 225.75 214.364 225.75H211.545V224.5H214.318C214.943 224.5 215.445 224.392 215.824 224.176C216.203 223.96 216.477 223.669 216.648 223.301C216.822 222.93 216.909 222.511 216.909 222.045C216.909 221.58 216.822 221.163 216.648 220.795C216.477 220.428 216.201 220.14 215.818 219.932C215.436 219.72 214.928 219.614 214.295 219.614H211.818V230H210.409ZM221.724 218.364V230H220.384V218.364H221.724ZM226.749 230.205C226.196 230.205 225.694 230.1 225.243 229.892C224.792 229.68 224.434 229.375 224.169 228.977C223.904 228.576 223.771 228.091 223.771 227.523C223.771 227.023 223.87 226.617 224.067 226.307C224.264 225.992 224.527 225.746 224.857 225.568C225.186 225.39 225.55 225.258 225.947 225.17C226.349 225.08 226.752 225.008 227.158 224.955C227.688 224.886 228.118 224.835 228.447 224.801C228.781 224.763 229.023 224.701 229.175 224.614C229.33 224.527 229.408 224.375 229.408 224.159V224.114C229.408 223.553 229.254 223.117 228.947 222.807C228.644 222.496 228.184 222.341 227.567 222.341C226.927 222.341 226.425 222.481 226.061 222.761C225.697 223.042 225.442 223.341 225.294 223.659L224.021 223.205C224.249 222.674 224.552 222.261 224.93 221.966C225.313 221.667 225.73 221.458 226.18 221.341C226.635 221.22 227.082 221.159 227.521 221.159C227.802 221.159 228.124 221.193 228.487 221.261C228.855 221.326 229.209 221.46 229.55 221.665C229.894 221.869 230.18 222.178 230.408 222.591C230.635 223.004 230.749 223.557 230.749 224.25V230H229.408V228.818H229.339C229.249 229.008 229.097 229.21 228.885 229.426C228.673 229.642 228.391 229.826 228.038 229.977C227.686 230.129 227.256 230.205 226.749 230.205ZM226.953 229C227.483 229 227.93 228.896 228.294 228.688C228.661 228.479 228.938 228.21 229.124 227.881C229.313 227.551 229.408 227.205 229.408 226.841V225.614C229.351 225.682 229.226 225.744 229.033 225.801C228.843 225.854 228.624 225.902 228.374 225.943C228.127 225.981 227.887 226.015 227.652 226.045C227.421 226.072 227.233 226.095 227.089 226.114C226.741 226.159 226.415 226.233 226.112 226.335C225.813 226.434 225.571 226.583 225.385 226.784C225.203 226.981 225.112 227.25 225.112 227.591C225.112 228.057 225.285 228.409 225.629 228.648C225.978 228.883 226.419 229 226.953 229ZM234.537 224.75V230H233.196V221.273H234.491V222.636H234.605C234.81 222.193 235.12 221.837 235.537 221.568C235.954 221.295 236.491 221.159 237.151 221.159C237.741 221.159 238.259 221.28 238.702 221.523C239.145 221.761 239.49 222.125 239.736 222.614C239.982 223.098 240.105 223.712 240.105 224.455V230H238.764V224.545C238.764 223.86 238.586 223.326 238.23 222.943C237.874 222.557 237.385 222.364 236.764 222.364C236.336 222.364 235.954 222.456 235.616 222.642C235.283 222.828 235.02 223.098 234.827 223.455C234.634 223.811 234.537 224.242 234.537 224.75ZM243.896 224.75V230H242.555V221.273H243.851V222.636H243.964C244.169 222.193 244.48 221.837 244.896 221.568C245.313 221.295 245.851 221.159 246.51 221.159C247.101 221.159 247.618 221.28 248.061 221.523C248.504 221.761 248.849 222.125 249.095 222.614C249.341 223.098 249.464 223.712 249.464 224.455V230H248.124V224.545C248.124 223.86 247.946 223.326 247.589 222.943C247.233 222.557 246.745 222.364 246.124 222.364C245.696 222.364 245.313 222.456 244.976 222.642C244.643 222.828 244.379 223.098 244.186 223.455C243.993 223.811 243.896 224.242 243.896 224.75ZM251.915 230V221.273H253.256V230H251.915ZM252.597 219.818C252.335 219.818 252.11 219.729 251.92 219.551C251.735 219.373 251.642 219.159 251.642 218.909C251.642 218.659 251.735 218.445 251.92 218.267C252.11 218.089 252.335 218 252.597 218C252.858 218 253.081 218.089 253.267 218.267C253.456 218.445 253.551 218.659 253.551 218.909C253.551 219.159 253.456 219.373 253.267 219.551C253.081 219.729 252.858 219.818 252.597 219.818ZM257.053 224.75V230H255.712V221.273H257.007V222.636H257.121C257.325 222.193 257.636 221.837 258.053 221.568C258.469 221.295 259.007 221.159 259.666 221.159C260.257 221.159 260.774 221.28 261.217 221.523C261.661 221.761 262.005 222.125 262.251 222.614C262.498 223.098 262.621 223.712 262.621 224.455V230H261.28V224.545C261.28 223.86 261.102 223.326 260.746 222.943C260.39 222.557 259.901 222.364 259.28 222.364C258.852 222.364 258.469 222.456 258.132 222.642C257.799 222.828 257.536 223.098 257.342 223.455C257.149 223.811 257.053 224.242 257.053 224.75ZM268.594 233.455C267.946 233.455 267.389 233.371 266.923 233.205C266.457 233.042 266.069 232.826 265.759 232.557C265.452 232.292 265.207 232.008 265.026 231.705L266.094 230.955C266.215 231.114 266.368 231.295 266.554 231.5C266.74 231.708 266.993 231.888 267.315 232.04C267.641 232.195 268.067 232.273 268.594 232.273C269.298 232.273 269.88 232.102 270.338 231.761C270.796 231.42 271.026 230.886 271.026 230.159V228.386H270.912C270.813 228.545 270.673 228.742 270.491 228.977C270.313 229.208 270.056 229.415 269.719 229.597C269.385 229.775 268.935 229.864 268.366 229.864C267.662 229.864 267.029 229.697 266.469 229.364C265.912 229.03 265.471 228.545 265.145 227.909C264.823 227.273 264.662 226.5 264.662 225.591C264.662 224.697 264.819 223.919 265.134 223.256C265.448 222.589 265.885 222.074 266.446 221.71C267.007 221.343 267.654 221.159 268.389 221.159C268.957 221.159 269.408 221.254 269.741 221.443C270.079 221.629 270.336 221.841 270.514 222.08C270.696 222.314 270.836 222.508 270.935 222.659H271.071V221.273H272.366V230.25C272.366 231 272.196 231.61 271.855 232.08C271.518 232.553 271.063 232.9 270.491 233.119C269.923 233.343 269.291 233.455 268.594 233.455ZM268.548 228.659C269.086 228.659 269.541 228.536 269.912 228.29C270.283 228.044 270.565 227.689 270.759 227.227C270.952 226.765 271.048 226.212 271.048 225.568C271.048 224.939 270.954 224.384 270.764 223.903C270.575 223.422 270.295 223.045 269.923 222.773C269.552 222.5 269.094 222.364 268.548 222.364C267.98 222.364 267.507 222.508 267.128 222.795C266.753 223.083 266.471 223.47 266.281 223.955C266.096 224.439 266.003 224.977 266.003 225.568C266.003 226.174 266.098 226.71 266.287 227.176C266.48 227.638 266.764 228.002 267.139 228.267C267.518 228.528 267.988 228.659 268.548 228.659Z" fill="black"/>
<path d="M210.409 368V356.364H211.818V366.75H217.227V368H210.409ZM221.795 368.205C221.242 368.205 220.741 368.1 220.29 367.892C219.839 367.68 219.481 367.375 219.216 366.977C218.951 366.576 218.818 366.091 218.818 365.523C218.818 365.023 218.917 364.617 219.114 364.307C219.311 363.992 219.574 363.746 219.903 363.568C220.233 363.39 220.597 363.258 220.994 363.17C221.396 363.08 221.799 363.008 222.205 362.955C222.735 362.886 223.165 362.835 223.494 362.801C223.828 362.763 224.07 362.701 224.222 362.614C224.377 362.527 224.455 362.375 224.455 362.159V362.114C224.455 361.553 224.301 361.117 223.994 360.807C223.691 360.496 223.231 360.341 222.614 360.341C221.973 360.341 221.472 360.481 221.108 360.761C220.744 361.042 220.489 361.341 220.341 361.659L219.068 361.205C219.295 360.674 219.598 360.261 219.977 359.966C220.36 359.667 220.777 359.458 221.227 359.341C221.682 359.22 222.129 359.159 222.568 359.159C222.848 359.159 223.17 359.193 223.534 359.261C223.902 359.326 224.256 359.46 224.597 359.665C224.941 359.869 225.227 360.178 225.455 360.591C225.682 361.004 225.795 361.557 225.795 362.25V368H224.455V366.818H224.386C224.295 367.008 224.144 367.21 223.932 367.426C223.72 367.642 223.438 367.826 223.085 367.977C222.733 368.129 222.303 368.205 221.795 368.205ZM222 367C222.53 367 222.977 366.896 223.341 366.688C223.708 366.479 223.985 366.21 224.17 365.881C224.36 365.551 224.455 365.205 224.455 364.841V363.614C224.398 363.682 224.273 363.744 224.08 363.801C223.89 363.854 223.67 363.902 223.42 363.943C223.174 363.981 222.934 364.015 222.699 364.045C222.468 364.072 222.28 364.095 222.136 364.114C221.788 364.159 221.462 364.233 221.159 364.335C220.86 364.434 220.617 364.583 220.432 364.784C220.25 364.981 220.159 365.25 220.159 365.591C220.159 366.057 220.331 366.409 220.676 366.648C221.025 366.883 221.466 367 222 367ZM233.743 364.432V359.273H235.084V368H233.743V366.523H233.652C233.447 366.966 233.129 367.343 232.697 367.653C232.266 367.96 231.72 368.114 231.061 368.114C230.516 368.114 230.031 367.994 229.607 367.756C229.182 367.513 228.849 367.15 228.607 366.665C228.364 366.176 228.243 365.561 228.243 364.818V359.273H229.584V364.727C229.584 365.364 229.762 365.871 230.118 366.25C230.478 366.629 230.936 366.818 231.493 366.818C231.826 366.818 232.165 366.733 232.51 366.562C232.858 366.392 233.15 366.131 233.385 365.778C233.624 365.426 233.743 364.977 233.743 364.432ZM238.881 362.75V368H237.54V359.273H238.835V360.636H238.949C239.153 360.193 239.464 359.837 239.881 359.568C240.297 359.295 240.835 359.159 241.494 359.159C242.085 359.159 242.602 359.28 243.045 359.523C243.489 359.761 243.833 360.125 244.08 360.614C244.326 361.098 244.449 361.712 244.449 362.455V368H243.108V362.545C243.108 361.86 242.93 361.326 242.574 360.943C242.218 360.557 241.729 360.364 241.108 360.364C240.68 360.364 240.297 360.456 239.96 360.642C239.627 360.828 239.364 361.098 239.17 361.455C238.977 361.811 238.881 362.242 238.881 362.75ZM250.445 368.182C249.626 368.182 248.922 367.989 248.331 367.602C247.74 367.216 247.286 366.684 246.967 366.006C246.649 365.328 246.49 364.553 246.49 363.682C246.49 362.795 246.653 362.013 246.979 361.335C247.308 360.653 247.767 360.121 248.354 359.739C248.945 359.352 249.634 359.159 250.422 359.159C251.036 359.159 251.589 359.273 252.081 359.5C252.573 359.727 252.977 360.045 253.291 360.455C253.606 360.864 253.801 361.341 253.876 361.886H252.536C252.433 361.489 252.206 361.136 251.854 360.83C251.505 360.519 251.036 360.364 250.445 360.364C249.922 360.364 249.464 360.5 249.07 360.773C248.679 361.042 248.375 361.422 248.155 361.915C247.939 362.403 247.831 362.977 247.831 363.636C247.831 364.311 247.937 364.898 248.149 365.398C248.365 365.898 248.668 366.286 249.058 366.562C249.452 366.839 249.914 366.977 250.445 366.977C250.793 366.977 251.109 366.917 251.393 366.795C251.678 366.674 251.918 366.5 252.115 366.273C252.312 366.045 252.452 365.773 252.536 365.455H253.876C253.801 365.97 253.613 366.434 253.314 366.847C253.018 367.256 252.626 367.581 252.138 367.824C251.653 368.062 251.089 368.182 250.445 368.182ZM257.178 362.75V368H255.837V356.364H257.178V360.636H257.291C257.496 360.186 257.803 359.828 258.212 359.562C258.625 359.294 259.174 359.159 259.859 359.159C260.454 359.159 260.975 359.278 261.422 359.517C261.869 359.752 262.215 360.114 262.462 360.602C262.712 361.087 262.837 361.705 262.837 362.455V368H261.496V362.545C261.496 361.852 261.316 361.316 260.956 360.938C260.6 360.555 260.106 360.364 259.473 360.364C259.034 360.364 258.64 360.456 258.291 360.642C257.946 360.828 257.674 361.098 257.473 361.455C257.276 361.811 257.178 362.242 257.178 362.75ZM271.562 356.364L271.449 364.727H270.131L270.017 356.364H271.562ZM270.79 368.091C270.509 368.091 270.269 367.991 270.068 367.79C269.867 367.589 269.767 367.348 269.767 367.068C269.767 366.788 269.867 366.547 270.068 366.347C270.269 366.146 270.509 366.045 270.79 366.045C271.07 366.045 271.311 366.146 271.511 366.347C271.712 366.547 271.812 366.788 271.812 367.068C271.812 367.254 271.765 367.424 271.67 367.58C271.58 367.735 271.456 367.86 271.301 367.955C271.15 368.045 270.979 368.091 270.79 368.091Z" fill="black"/>
<path d="M2.81818 287.364V299H1.40909V287.364H2.81818ZM5.46165 299V290.273H6.7571V291.636H6.87074C7.05256 291.17 7.34612 290.809 7.75142 290.551C8.15672 290.29 8.64347 290.159 9.21165 290.159C9.78741 290.159 10.2666 290.29 10.6491 290.551C11.0355 290.809 11.3366 291.17 11.5526 291.636H11.6435C11.867 291.186 12.2022 290.828 12.6491 290.562C13.0961 290.294 13.6321 290.159 14.2571 290.159C15.0374 290.159 15.6757 290.403 16.1719 290.892C16.6681 291.377 16.9162 292.133 16.9162 293.159V299H15.5753V293.159C15.5753 292.515 15.3991 292.055 15.0469 291.778C14.6946 291.502 14.2798 291.364 13.8026 291.364C13.1889 291.364 12.7135 291.549 12.3764 291.92C12.0393 292.288 11.8707 292.754 11.8707 293.318V299H10.5071V293.023C10.5071 292.527 10.3461 292.127 10.0241 291.824C9.70218 291.517 9.28741 291.364 8.77983 291.364C8.43134 291.364 8.10559 291.456 7.80256 291.642C7.50331 291.828 7.26089 292.085 7.07528 292.415C6.89347 292.741 6.80256 293.117 6.80256 293.545V299H5.46165ZM19.3679 302.273V290.273H20.6634V291.659H20.8224C20.9209 291.508 21.0573 291.314 21.2315 291.08C21.4096 290.841 21.6634 290.629 21.9929 290.443C22.3262 290.254 22.777 290.159 23.3452 290.159C24.08 290.159 24.7277 290.343 25.2884 290.71C25.849 291.078 26.2865 291.598 26.6009 292.273C26.9152 292.947 27.0724 293.742 27.0724 294.659C27.0724 295.583 26.9152 296.384 26.6009 297.062C26.2865 297.737 25.8509 298.259 25.294 298.631C24.7372 298.998 24.0952 299.182 23.3679 299.182C22.8073 299.182 22.3584 299.089 22.0213 298.903C21.6842 298.714 21.4247 298.5 21.2429 298.261C21.0611 298.019 20.9209 297.818 20.8224 297.659H20.7088V302.273H19.3679ZM20.6861 294.636C20.6861 295.295 20.7827 295.877 20.9759 296.381C21.169 296.881 21.4512 297.273 21.8224 297.557C22.1937 297.837 22.6482 297.977 23.1861 297.977C23.7467 297.977 24.2145 297.83 24.5895 297.534C24.9683 297.235 25.2524 296.833 25.4418 296.33C25.6349 295.822 25.7315 295.258 25.7315 294.636C25.7315 294.023 25.6368 293.47 25.4474 292.977C25.2618 292.481 24.9796 292.089 24.6009 291.801C24.2259 291.509 23.7543 291.364 23.1861 291.364C22.6406 291.364 22.1823 291.502 21.8111 291.778C21.4399 292.051 21.1596 292.434 20.9702 292.926C20.7808 293.415 20.6861 293.985 20.6861 294.636ZM30.4588 287.364V299H29.1179V287.364H30.4588ZM36.5739 299.182C35.733 299.182 35.0076 298.996 34.3977 298.625C33.7917 298.25 33.3239 297.727 32.9943 297.057C32.6686 296.383 32.5057 295.598 32.5057 294.705C32.5057 293.811 32.6686 293.023 32.9943 292.341C33.3239 291.655 33.7822 291.121 34.3693 290.739C34.9602 290.352 35.6496 290.159 36.4375 290.159C36.892 290.159 37.3409 290.235 37.7841 290.386C38.2273 290.538 38.6307 290.784 38.9943 291.125C39.358 291.462 39.6477 291.909 39.8636 292.466C40.0795 293.023 40.1875 293.708 40.1875 294.523V295.091H33.4602V293.932H38.8239C38.8239 293.439 38.7254 293 38.5284 292.614C38.3352 292.227 38.0587 291.922 37.6989 291.699C37.3428 291.475 36.9223 291.364 36.4375 291.364C35.9034 291.364 35.4413 291.496 35.0511 291.761C34.6648 292.023 34.3674 292.364 34.1591 292.784C33.9508 293.205 33.8466 293.655 33.8466 294.136V294.909C33.8466 295.568 33.9602 296.127 34.1875 296.585C34.4186 297.04 34.7386 297.386 35.1477 297.625C35.5568 297.86 36.0322 297.977 36.5739 297.977C36.9261 297.977 37.2443 297.928 37.5284 297.83C37.8163 297.727 38.0644 297.576 38.2727 297.375C38.4811 297.17 38.642 296.917 38.7557 296.614L40.0511 296.977C39.9148 297.417 39.6856 297.803 39.3636 298.136C39.0417 298.466 38.6439 298.723 38.1705 298.909C37.697 299.091 37.1648 299.182 36.5739 299.182ZM42.2273 299V290.273H43.5227V291.636H43.6364C43.8182 291.17 44.1117 290.809 44.517 290.551C44.9223 290.29 45.4091 290.159 45.9773 290.159C46.553 290.159 47.0322 290.29 47.4148 290.551C47.8011 290.809 48.1023 291.17 48.3182 291.636H48.4091C48.6326 291.186 48.9678 290.828 49.4148 290.562C49.8617 290.294 50.3977 290.159 51.0227 290.159C51.803 290.159 52.4413 290.403 52.9375 290.892C53.4337 291.377 53.6818 292.133 53.6818 293.159V299H52.3409V293.159C52.3409 292.515 52.1648 292.055 51.8125 291.778C51.4602 291.502 51.0455 291.364 50.5682 291.364C49.9545 291.364 49.4792 291.549 49.142 291.92C48.8049 292.288 48.6364 292.754 48.6364 293.318V299H47.2727V293.023C47.2727 292.527 47.1117 292.127 46.7898 291.824C46.4678 291.517 46.053 291.364 45.5455 291.364C45.197 291.364 44.8712 291.456 44.5682 291.642C44.2689 291.828 44.0265 292.085 43.8409 292.415C43.6591 292.741 43.5682 293.117 43.5682 293.545V299H42.2273ZM59.7926 299.182C58.9517 299.182 58.2263 298.996 57.6165 298.625C57.0104 298.25 56.5426 297.727 56.2131 297.057C55.8873 296.383 55.7244 295.598 55.7244 294.705C55.7244 293.811 55.8873 293.023 56.2131 292.341C56.5426 291.655 57.0009 291.121 57.5881 290.739C58.179 290.352 58.8684 290.159 59.6562 290.159C60.1108 290.159 60.5597 290.235 61.0028 290.386C61.446 290.538 61.8494 290.784 62.2131 291.125C62.5767 291.462 62.8665 291.909 63.0824 292.466C63.2983 293.023 63.4062 293.708 63.4062 294.523V295.091H56.679V293.932H62.0426C62.0426 293.439 61.9441 293 61.7472 292.614C61.554 292.227 61.2775 291.922 60.9176 291.699C60.5616 291.475 60.1411 291.364 59.6562 291.364C59.1222 291.364 58.66 291.496 58.2699 291.761C57.8835 292.023 57.5862 292.364 57.3778 292.784C57.1695 293.205 57.0653 293.655 57.0653 294.136V294.909C57.0653 295.568 57.179 296.127 57.4062 296.585C57.6373 297.04 57.9574 297.386 58.3665 297.625C58.7756 297.86 59.2509 297.977 59.7926 297.977C60.1449 297.977 60.4631 297.928 60.7472 297.83C61.035 297.727 61.2831 297.576 61.4915 297.375C61.6998 297.17 61.8608 296.917 61.9744 296.614L63.2699 296.977C63.1335 297.417 62.9044 297.803 62.5824 298.136C62.2604 298.466 61.8627 298.723 61.3892 298.909C60.9157 299.091 60.3835 299.182 59.7926 299.182ZM66.7869 293.75V299H65.446V290.273H66.7415V291.636H66.8551C67.0597 291.193 67.3703 290.837 67.7869 290.568C68.2036 290.295 68.7415 290.159 69.4006 290.159C69.9915 290.159 70.5085 290.28 70.9517 290.523C71.3949 290.761 71.7396 291.125 71.9858 291.614C72.232 292.098 72.3551 292.712 72.3551 293.455V299H71.0142V293.545C71.0142 292.86 70.8362 292.326 70.4801 291.943C70.1241 291.557 69.6354 291.364 69.0142 291.364C68.5862 291.364 68.2036 291.456 67.8665 291.642C67.5331 291.828 67.2699 292.098 67.0767 292.455C66.8835 292.811 66.7869 293.242 66.7869 293.75ZM78.6009 290.273V291.409H74.0781V290.273H78.6009ZM75.3963 288.182H76.7372V296.5C76.7372 296.879 76.7921 297.163 76.902 297.352C77.0156 297.538 77.1596 297.663 77.3338 297.727C77.5118 297.788 77.6993 297.818 77.8963 297.818C78.044 297.818 78.1652 297.811 78.2599 297.795C78.3546 297.777 78.4304 297.761 78.4872 297.75L78.7599 298.955C78.669 298.989 78.5421 299.023 78.3793 299.057C78.2164 299.095 78.0099 299.114 77.7599 299.114C77.3812 299.114 77.0099 299.032 76.6463 298.869C76.2865 298.706 75.9872 298.458 75.7486 298.125C75.5137 297.792 75.3963 297.371 75.3963 296.864V288.182ZM83.1861 299.205C82.633 299.205 82.1312 299.1 81.6804 298.892C81.2296 298.68 80.8717 298.375 80.6065 297.977C80.3414 297.576 80.2088 297.091 80.2088 296.523C80.2088 296.023 80.3073 295.617 80.5043 295.307C80.7012 294.992 80.9645 294.746 81.294 294.568C81.6236 294.39 81.9872 294.258 82.3849 294.17C82.7865 294.08 83.1899 294.008 83.5952 293.955C84.1255 293.886 84.5554 293.835 84.8849 293.801C85.2183 293.763 85.4607 293.701 85.6122 293.614C85.7675 293.527 85.8452 293.375 85.8452 293.159V293.114C85.8452 292.553 85.6918 292.117 85.3849 291.807C85.0819 291.496 84.6217 291.341 84.0043 291.341C83.3641 291.341 82.8622 291.481 82.4986 291.761C82.1349 292.042 81.8793 292.341 81.7315 292.659L80.4588 292.205C80.6861 291.674 80.9891 291.261 81.3679 290.966C81.7505 290.667 82.1671 290.458 82.6179 290.341C83.0724 290.22 83.5194 290.159 83.9588 290.159C84.2391 290.159 84.5611 290.193 84.9247 290.261C85.2921 290.326 85.6463 290.46 85.9872 290.665C86.3319 290.869 86.6179 291.178 86.8452 291.591C87.0724 292.004 87.1861 292.557 87.1861 293.25V299H85.8452V297.818H85.777C85.6861 298.008 85.5346 298.21 85.3224 298.426C85.1103 298.642 84.8281 298.826 84.4759 298.977C84.1236 299.129 83.6937 299.205 83.1861 299.205ZM83.3906 298C83.9209 298 84.3679 297.896 84.7315 297.688C85.099 297.479 85.3755 297.21 85.5611 296.881C85.7505 296.551 85.8452 296.205 85.8452 295.841V294.614C85.7884 294.682 85.6634 294.744 85.4702 294.801C85.2808 294.854 85.0611 294.902 84.8111 294.943C84.5649 294.981 84.3243 295.015 84.0895 295.045C83.8584 295.072 83.6709 295.095 83.527 295.114C83.1785 295.159 82.8527 295.233 82.5497 295.335C82.2505 295.434 82.008 295.583 81.8224 295.784C81.6406 295.981 81.5497 296.25 81.5497 296.591C81.5497 297.057 81.7221 297.409 82.0668 297.648C82.4152 297.883 82.8565 298 83.3906 298ZM93.429 290.273V291.409H88.9062V290.273H93.429ZM90.2244 288.182H91.5653V296.5C91.5653 296.879 91.6203 297.163 91.7301 297.352C91.8438 297.538 91.9877 297.663 92.1619 297.727C92.34 297.788 92.5275 297.818 92.7244 297.818C92.8722 297.818 92.9934 297.811 93.0881 297.795C93.1828 297.777 93.2585 297.761 93.3153 297.75L93.5881 298.955C93.4972 298.989 93.3703 299.023 93.2074 299.057C93.0445 299.095 92.8381 299.114 92.5881 299.114C92.2093 299.114 91.8381 299.032 91.4744 298.869C91.1146 298.706 90.8153 298.458 90.5767 298.125C90.3419 297.792 90.2244 297.371 90.2244 296.864V288.182ZM95.446 299V290.273H96.7869V299H95.446ZM96.1278 288.818C95.8665 288.818 95.6411 288.729 95.4517 288.551C95.2661 288.373 95.1733 288.159 95.1733 287.909C95.1733 287.659 95.2661 287.445 95.4517 287.267C95.6411 287.089 95.8665 287 96.1278 287C96.3892 287 96.6127 287.089 96.7983 287.267C96.9877 287.445 97.0824 287.659 97.0824 287.909C97.0824 288.159 96.9877 288.373 96.7983 288.551C96.6127 288.729 96.3892 288.818 96.1278 288.818ZM102.788 299.182C102 299.182 101.309 298.994 100.714 298.619C100.124 298.244 99.6615 297.72 99.3281 297.045C98.9986 296.371 98.8338 295.583 98.8338 294.682C98.8338 293.773 98.9986 292.979 99.3281 292.301C99.6615 291.623 100.124 291.097 100.714 290.722C101.309 290.347 102 290.159 102.788 290.159C103.576 290.159 104.266 290.347 104.857 290.722C105.451 291.097 105.913 291.623 106.243 292.301C106.576 292.979 106.743 293.773 106.743 294.682C106.743 295.583 106.576 296.371 106.243 297.045C105.913 297.72 105.451 298.244 104.857 298.619C104.266 298.994 103.576 299.182 102.788 299.182ZM102.788 297.977C103.387 297.977 103.879 297.824 104.266 297.517C104.652 297.21 104.938 296.807 105.124 296.307C105.309 295.807 105.402 295.265 105.402 294.682C105.402 294.098 105.309 293.555 105.124 293.051C104.938 292.547 104.652 292.14 104.266 291.83C103.879 291.519 103.387 291.364 102.788 291.364C102.19 291.364 101.697 291.519 101.311 291.83C100.925 292.14 100.639 292.547 100.453 293.051C100.268 293.555 100.175 294.098 100.175 294.682C100.175 295.265 100.268 295.807 100.453 296.307C100.639 296.807 100.925 297.21 101.311 297.517C101.697 297.824 102.19 297.977 102.788 297.977ZM110.131 293.75V299H108.79V290.273H110.085V291.636H110.199C110.403 291.193 110.714 290.837 111.131 290.568C111.547 290.295 112.085 290.159 112.744 290.159C113.335 290.159 113.852 290.28 114.295 290.523C114.739 290.761 115.083 291.125 115.33 291.614C115.576 292.098 115.699 292.712 115.699 293.455V299H114.358V293.545C114.358 292.86 114.18 292.326 113.824 291.943C113.468 291.557 112.979 291.364 112.358 291.364C111.93 291.364 111.547 291.456 111.21 291.642C110.877 291.828 110.614 292.098 110.42 292.455C110.227 292.811 110.131 293.242 110.131 293.75Z" fill="black"/>
<g clip-path="url(#clip1_195_347)">
<path d="M190.658 164.616L185.79 159.748C185.57 159.528 185.272 159.406 184.96 159.406H184.164C185.512 157.683 186.312 155.515 186.312 153.156C186.312 147.546 181.767 143 176.156 143C170.546 143 166 147.546 166 153.156C166 158.767 170.546 163.312 176.156 163.312C178.515 163.312 180.683 162.512 182.406 161.164V161.96C182.406 162.272 182.528 162.57 182.748 162.79L187.616 167.658C188.075 168.117 188.817 168.117 189.271 167.658L190.653 166.276C191.112 165.817 191.112 165.075 190.658 164.616ZM176.156 159.406C172.704 159.406 169.906 156.613 169.906 153.156C169.906 149.704 172.699 146.906 176.156 146.906C179.608 146.906 182.406 149.699 182.406 153.156C182.406 156.608 179.613 159.406 176.156 159.406Z" fill="black"/>
</g>
<g clip-path="url(#clip2_195_347)">
<path d="M143.67 218.777C143.18 218.916 142.73 219.172 142.362 219.524C141.993 219.876 141.716 220.313 141.555 220.796L137 234.461L137.717 235.178L145.047 227.849C144.901 227.543 144.812 227.205 144.812 226.844C144.812 225.549 145.862 224.5 147.156 224.5C148.451 224.5 149.5 225.549 149.5 226.844C149.5 228.138 148.451 229.188 147.156 229.188C146.795 229.188 146.457 229.099 146.151 228.953L138.822 236.283L139.539 237L153.204 232.445C153.688 232.284 154.124 232.007 154.476 231.638C154.828 231.27 155.085 230.821 155.223 230.33L157.312 222.938L151.062 216.688L143.67 218.777ZM161.313 215.622L158.378 212.687C157.463 211.771 155.978 211.771 155.063 212.687L152.301 215.448L158.552 221.699L161.313 218.938C162.229 218.022 162.229 216.538 161.313 215.622Z" fill="black"/>
</g>
<g clip-path="url(#clip3_195_347)">
<path d="M176.896 303.48L174.513 302.789C174.263 302.719 174.122 302.457 174.192 302.207L179.524 283.84C179.595 283.59 179.856 283.449 180.106 283.52L182.489 284.211C182.739 284.281 182.88 284.543 182.81 284.793L177.478 303.16C177.403 303.41 177.146 303.555 176.896 303.48ZM172.442 299.098L174.142 297.285C174.321 297.094 174.31 296.789 174.11 296.613L170.571 293.5L174.11 290.387C174.31 290.211 174.325 289.906 174.142 289.715L172.442 287.902C172.267 287.715 171.97 287.703 171.778 287.883L166.149 293.156C165.95 293.34 165.95 293.656 166.149 293.84L171.778 299.117C171.97 299.297 172.267 299.289 172.442 299.098ZM185.224 299.121L190.853 293.844C191.052 293.66 191.052 293.344 190.853 293.16L185.224 287.879C185.036 287.703 184.739 287.711 184.56 287.898L182.86 289.711C182.681 289.902 182.692 290.207 182.892 290.383L186.431 293.5L182.892 296.613C182.692 296.789 182.677 297.094 182.86 297.285L184.56 299.098C184.735 299.289 185.032 299.297 185.224 299.121Z" fill="black"/>
</g>
<g clip-path="url(#clip4_195_347)">
<path d="M161.658 350.933C161.626 350.786 161.554 350.653 161.448 350.547C161.342 350.441 161.208 350.368 161.062 350.337C159.49 350 158.26 350 157.034 350C151.995 350 148.973 352.695 146.717 356.25H141.63C141.195 356.25 140.769 356.372 140.399 356.6C140.03 356.828 139.731 357.155 139.536 357.543L137.123 362.368C137.034 362.546 136.992 362.745 137.001 362.944C137.01 363.144 137.07 363.338 137.176 363.508C137.281 363.677 137.427 363.817 137.602 363.915C137.776 364.012 137.973 364.063 138.172 364.062H143.239L142.142 365.16C141.849 365.453 141.685 365.85 141.685 366.264C141.685 366.679 141.849 367.076 142.142 367.369L144.628 369.855C144.773 370 144.945 370.115 145.135 370.194C145.324 370.272 145.527 370.313 145.733 370.313C145.938 370.313 146.141 370.272 146.331 370.194C146.52 370.115 146.692 370 146.838 369.855L147.935 368.758V373.828C147.935 374.028 147.986 374.224 148.083 374.399C148.18 374.573 148.32 374.72 148.49 374.825C148.659 374.93 148.853 374.99 149.052 374.999C149.252 375.008 149.45 374.966 149.629 374.877L154.448 372.466C154.837 372.271 155.165 371.972 155.393 371.602C155.622 371.232 155.743 370.806 155.742 370.371V365.273C159.287 363.012 161.992 359.98 161.992 354.966C161.997 353.735 161.997 352.505 161.658 350.933ZM155.747 358.203C155.361 358.203 154.983 358.089 154.662 357.874C154.341 357.659 154.091 357.354 153.943 356.997C153.795 356.641 153.756 356.248 153.832 355.869C153.907 355.49 154.093 355.142 154.366 354.869C154.639 354.596 154.987 354.41 155.366 354.334C155.745 354.259 156.138 354.298 156.495 354.446C156.851 354.593 157.157 354.844 157.371 355.165C157.586 355.486 157.7 355.864 157.7 356.25C157.7 356.768 157.495 357.265 157.128 357.631C156.762 357.997 156.265 358.203 155.747 358.203Z" fill="black"/>
</g>
<path d="M139 0V47.5L149.5 37L160 47.5V0L149.5 12L139 0Z" fill="#D9D9D9"/>
<path d="M149.5 412L139 400V437L150 447.5L160 437V400L149.5 412Z" fill="#D9D9D9"/>
<defs>
<clipPath id="clip0_195_347">
<rect width="25" height="25" fill="white" transform="translate(137 74)"/>
</clipPath>
<clipPath id="clip1_195_347">
<rect width="25" height="25" fill="white" transform="translate(166 143)"/>
</clipPath>
<clipPath id="clip2_195_347">
<rect width="25" height="25" fill="white" transform="translate(137 212)"/>
</clipPath>
<clipPath id="clip3_195_347">
<rect width="25" height="25" fill="white" transform="translate(166 281)"/>
</clipPath>
<clipPath id="clip4_195_347">
<rect width="25" height="25" fill="white" transform="translate(137 350)"/>
</clipPath>
</defs>
</svg>
