<svg width="273" height="93" viewBox="0 0 273 93" fill="none" xmlns="http://www.w3.org/2000/svg">
<path d="M86.152 11.416C87.944 11.672 89.16 12.216 89.8 13.048C90.504 13.88 90.856 14.968 90.856 16.312C90.856 20.728 88.488 22.776 83.752 22.456L80.392 22.168C76.616 21.848 72.84 21.592 69.064 21.4C65.352 21.208 61.448 21.112 57.352 21.112H53.032C52.264 30.584 51.464 39.224 50.632 47.032L67.144 46.744C69.512 46.744 71.08 47.16 71.848 47.992C72.68 48.824 73.096 49.944 73.096 51.352C73.096 53.528 72.456 55.256 71.176 56.536C69.896 57.752 68.072 58.36 65.704 58.36H49.288L48.712 62.488C47.368 73.048 44.488 80.568 40.072 85.048C35.72 89.528 29.704 91.768 22.024 91.768C17.672 91.768 13.672 90.84 10.024 88.984C6.376 87.064 3.688 84.76 1.96 82.072C1.256 80.984 0.904 79.672 0.904 78.136C0.904 76.6 1.256 75.256 1.96 74.104C2.728 72.952 3.656 72.376 4.744 72.376C5.512 72.376 6.248 72.632 6.952 73.144C7.72 73.656 8.68 74.648 9.832 76.12C12.904 80.152 16.712 82.168 21.256 82.168C24.904 82.168 27.944 80.696 30.376 77.752C32.872 74.744 34.472 70.04 35.176 63.64L35.752 58.36H31.144C29.672 58.36 28.392 57.944 27.304 57.112C26.28 56.28 25.768 55.096 25.768 53.56C25.768 51.576 26.28 50.072 27.304 49.048C28.328 47.96 29.832 47.416 31.816 47.416C33.608 47.416 35.368 47.384 37.096 47.32C37.864 40.28 38.696 31.736 39.592 21.688C32.68 22.328 27.816 23.448 25 25.048C22.184 26.648 20.776 29.016 20.776 32.152C20.776 34.328 21.416 36.408 22.696 38.392C23.08 38.968 23.272 39.544 23.272 40.12C23.272 41.272 22.632 42.296 21.352 43.192C20.072 44.024 18.632 44.44 17.032 44.44C15.304 44.44 13.832 43.928 12.616 42.904C11.848 42.264 11.112 40.952 10.408 38.968C9.704 36.984 9.352 34.776 9.352 32.344C9.352 24.408 13.416 18.648 21.544 15.064C29.736 11.48 41.672 9.68799 57.352 9.68799C68.232 9.68799 77.832 10.264 86.152 11.416ZM82.3848 91.48C78.4168 91.48 75.2488 90.04 72.8808 87.16C70.5128 84.28 69.3288 80.504 69.3288 75.832C69.3288 70.712 70.5128 65.88 72.8808 61.336C75.2488 56.728 78.3848 53.048 82.2888 50.296C86.2568 47.48 90.4488 46.072 94.8648 46.072C96.2728 46.072 97.2008 46.36 97.6488 46.936C98.1608 47.448 98.5768 48.408 98.8968 49.816C100.241 49.56 101.649 49.432 103.121 49.432C106.257 49.432 107.825 50.552 107.825 52.792C107.825 54.136 107.345 57.336 106.385 62.392C104.913 69.752 104.177 74.872 104.177 77.752C104.177 78.712 104.401 79.48 104.849 80.056C105.361 80.632 106.001 80.92 106.769 80.92C107.985 80.92 109.457 80.152 111.185 78.616C112.913 77.016 115.249 74.456 118.193 70.936C118.961 70.04 119.825 69.592 120.785 69.592C121.617 69.592 122.257 69.976 122.705 70.744C123.217 71.512 123.473 72.568 123.473 73.912C123.473 76.472 122.865 78.456 121.649 79.864C119.025 83.128 116.241 85.88 113.297 88.12C110.353 90.36 107.505 91.48 104.753 91.48C102.641 91.48 100.689 90.776 98.8968 89.368C97.1688 87.896 95.8568 85.912 94.9608 83.416C91.6328 88.792 87.4408 91.48 82.3848 91.48ZM85.8408 81.784C87.2488 81.784 88.5928 80.952 89.8728 79.288C91.1528 77.624 92.0808 75.416 92.6568 72.664L96.2088 55C93.5208 55.064 91.0248 56.088 88.7208 58.072C86.4808 59.992 84.6888 62.552 83.3448 65.752C82.0008 68.952 81.3288 72.344 81.3288 75.928C81.3288 77.912 81.7128 79.384 82.4808 80.344C83.3128 81.304 84.4328 81.784 85.8408 81.784ZM168.951 69.592C169.783 69.592 170.423 69.976 170.871 70.744C171.383 71.512 171.639 72.568 171.639 73.912C171.639 76.472 171.031 78.456 169.815 79.864C166.871 83.256 163.831 86.04 160.695 88.216C157.623 90.392 154.103 91.48 150.135 91.48C146.871 91.48 144.407 90.552 142.743 88.696C141.079 86.776 140.247 84.024 140.247 80.44C140.247 78.648 140.695 75.448 141.591 70.84C142.423 66.808 142.839 64.024 142.839 62.488C142.839 61.464 142.487 60.952 141.783 60.952C140.951 60.952 139.767 62.04 138.231 64.216C136.695 66.328 135.159 69.144 133.623 72.664C132.087 76.184 130.839 79.896 129.879 83.8C128.663 88.92 125.655 91.48 120.855 91.48C118.935 91.48 117.655 90.808 117.015 89.464C116.439 88.056 116.151 85.56 116.151 81.976C116.151 79.928 116.183 78.296 116.247 77.08L116.343 69.4C116.343 59.544 117.335 49.272 119.319 38.584C121.367 27.896 124.343 18.936 128.247 11.704C132.215 4.408 136.951 0.759995 142.455 0.759995C145.399 0.759995 147.767 2.04 149.559 4.6C151.415 7.09599 152.343 10.36 152.343 14.392C152.343 20.856 150.455 27.576 146.679 34.552C142.903 41.464 136.759 49.56 128.247 58.84C128.055 62.168 127.959 65.592 127.959 69.112C130.071 63.672 132.407 59.256 134.967 55.864C137.591 52.408 140.151 49.944 142.647 48.472C145.207 47 147.543 46.264 149.655 46.264C153.815 46.264 155.895 48.344 155.895 52.504C155.895 55 155.191 59.512 153.783 66.04C152.567 71.608 151.959 75.288 151.959 77.08C151.959 79.64 152.887 80.92 154.743 80.92C156.023 80.92 157.527 80.152 159.255 78.616C161.047 77.016 163.415 74.456 166.359 70.936C167.127 70.04 167.991 69.592 168.951 69.592ZM140.439 10.264C139.287 10.264 138.007 11.928 136.599 15.256C135.191 18.52 133.815 22.968 132.471 28.6C131.191 34.168 130.135 40.248 129.303 46.84C133.271 42.168 136.535 37.08 139.095 31.576C141.719 26.072 143.031 21.08 143.031 16.6C143.031 14.552 142.807 12.984 142.359 11.896C141.911 10.808 141.271 10.264 140.439 10.264ZM175.666 91.48C171.698 91.48 168.53 90.04 166.162 87.16C163.794 84.28 162.61 80.504 162.61 75.832C162.61 70.712 163.794 65.88 166.162 61.336C168.53 56.728 171.666 53.048 175.57 50.296C179.538 47.48 183.73 46.072 188.146 46.072C189.554 46.072 190.482 46.36 190.93 46.936C191.442 47.448 191.858 48.408 192.178 49.816C193.522 49.56 194.93 49.432 196.402 49.432C199.538 49.432 201.106 50.552 201.106 52.792C201.106 54.136 200.626 57.336 199.666 62.392C198.194 69.752 197.458 74.872 197.458 77.752C197.458 78.712 197.682 79.48 198.13 80.056C198.642 80.632 199.282 80.92 200.05 80.92C201.266 80.92 202.738 80.152 204.466 78.616C206.194 77.016 208.53 74.456 211.474 70.936C212.242 70.04 213.106 69.592 214.066 69.592C214.898 69.592 215.538 69.976 215.986 70.744C216.498 71.512 216.754 72.568 216.754 73.912C216.754 76.472 216.146 78.456 214.93 79.864C212.306 83.128 209.522 85.88 206.578 88.12C203.634 90.36 200.786 91.48 198.034 91.48C195.922 91.48 193.97 90.776 192.178 89.368C190.45 87.896 189.138 85.912 188.242 83.416C184.914 88.792 180.722 91.48 175.666 91.48ZM179.122 81.784C180.53 81.784 181.874 80.952 183.154 79.288C184.434 77.624 185.362 75.416 185.938 72.664L189.49 55C186.802 55.064 184.306 56.088 182.002 58.072C179.762 59.992 177.97 62.552 176.626 65.752C175.282 68.952 174.61 72.344 174.61 75.928C174.61 77.912 174.994 79.384 175.762 80.344C176.594 81.304 177.714 81.784 179.122 81.784ZM243.896 69.592C244.6 74.84 245.624 80.024 246.968 85.144C247.224 85.976 247.352 86.84 247.352 87.736C247.352 90.616 245.592 92.056 242.072 92.056C240.088 92.056 238.552 91.512 237.464 90.424C236.44 89.336 235.48 87.288 234.584 84.28L234.488 83.896C232.056 86.904 229.848 88.92 227.864 89.944C225.944 90.968 223.704 91.48 221.144 91.48C217.24 91.48 214.008 90.04 211.448 87.16C208.952 84.216 207.704 80.408 207.704 75.736C207.704 70.616 208.792 65.88 210.968 61.528C213.144 57.176 216.12 53.624 219.896 50.872C223.672 48.056 227.896 46.36 232.568 45.784C233.784 33.688 236.088 23.16 239.48 14.2C242.936 5.24 247.512 0.759995 253.208 0.759995C255.96 0.759995 258.232 2.008 260.024 4.504C261.88 7 262.808 10.776 262.808 15.832C262.808 22.872 261.08 31.096 257.624 40.504C254.168 49.912 249.592 59.608 243.896 69.592ZM252.152 10.168C250.296 10.168 248.536 14.904 246.872 24.376C245.272 33.848 244.184 44.152 243.608 55.288C250.712 39.928 254.264 27.448 254.264 17.848C254.264 15.416 254.04 13.528 253.592 12.184C253.208 10.84 252.728 10.168 252.152 10.168ZM224.504 81.784C225.784 81.784 227 81.304 228.152 80.344C229.368 79.384 230.904 77.528 232.76 74.776C232.12 70.104 231.8 65.272 231.8 60.28C231.8 58.296 231.832 56.76 231.896 55.672C228.376 56.696 225.464 59.032 223.16 62.68C220.856 66.328 219.704 70.36 219.704 74.776C219.704 79.448 221.304 81.784 224.504 81.784Z" fill="#0C0C0C"/>
<path d="M262.92 91.48C260.104 91.48 257.96 90.712 256.488 89.176C255.08 87.64 254.376 85.624 254.376 83.128C254.376 80.248 255.176 77.944 256.776 76.216C258.44 74.488 260.744 73.624 263.688 73.624C266.504 73.624 268.616 74.328 270.024 75.736C271.496 77.08 272.232 79.096 272.232 81.784C272.232 84.728 271.4 87.096 269.736 88.888C268.072 90.616 265.8 91.48 262.92 91.48Z" fill="#0FA0AD"/>
</svg>
